<?xml version="1.0" encoding="UTF-8" standalone="no"?><!DOCTYPE svg PUBLIC "-//W3C//DTD SVG 1.1//EN" "http://www.w3.org/Graphics/SVG/1.1/DTD/svg11.dtd"><svg width="100%" height="100%" viewBox="0 0 102 114" version="1.1" xmlns="http://www.w3.org/2000/svg" xmlns:xlink="http://www.w3.org/1999/xlink" xml:space="preserve" xmlns:serif="http://www.serif.com/" style="fill-rule:evenodd;clip-rule:evenodd;stroke-linejoin:round;stroke-miterlimit:2;"><g id="Group"><path id="Shape" d="M64.801,56.665c0,-7.5 -6.116,-13.6 -13.636,-13.6c-7.52,0 -13.636,6.1 -13.636,13.6c0,7.5 6.116,13.599 13.636,13.599c7.52,0 13.636,-6.099 13.636,-13.599Zm-13.636,9.066c-5.014,0 -9.091,-4.066 -9.091,-9.066c0,-5 4.077,-9.067 9.091,-9.067c5.013,0 9.091,4.067 9.091,9.067c0,5 -4.078,9.066 -9.091,9.066Z" style="fill:#f83e5a;fill-rule:nonzero;"/><path id="Shape1" serif:id="Shape" d="M90.307,65.164c6.05,7.442 8.284,13.842 6.125,17.566c-2.191,3.788 -9.018,5.034 -18.722,3.425c-2.15,-0.356 -4.402,-0.875 -6.7,-1.482c1.05,-4.694 1.839,-9.821 2.323,-15.266c1.941,-1.357 3.84,-2.738 5.654,-4.159l-2.809,-3.563c-0.795,0.623 -1.625,1.233 -2.448,1.845c0.103,-2.251 0.162,-4.538 0.162,-6.865c0,-2.333 -0.059,-4.622 -0.166,-6.873c1.116,0.832 2.22,1.666 3.288,2.519l2.841,-3.541c-2.077,-1.659 -4.272,-3.268 -6.525,-4.846c-0.484,-5.446 -1.272,-10.571 -2.322,-15.268c2.3,-0.607 4.552,-1.126 6.7,-1.482c9.704,-1.611 16.533,-0.363 18.722,3.423c2.154,3.724 -0.075,10.122 -6.123,17.561l3.53,2.856c7.409,-9.109 9.727,-17.163 6.531,-22.682c-3.238,-5.596 -11.554,-7.59 -23.406,-5.628c-2.263,0.377 -4.632,0.921 -7.047,1.555c-4.062,-14.753 -10.878,-24.259 -18.75,-24.259c-6.466,0 -12.35,6.156 -16.563,17.335l4.252,1.596c3.452,-9.151 7.938,-14.398 12.311,-14.398c5.22,0 10.791,7.924 14.37,20.998c-4.65,1.469 -9.479,3.357 -14.37,5.625c-1.993,-0.922 -3.984,-1.811 -5.966,-2.613l-1.709,4.202c0.786,0.318 1.575,0.669 2.364,1.009c-2.021,1.043 -4.044,2.124 -6.055,3.282c-2.016,1.16 -3.968,2.369 -5.886,3.595c0.159,-1.353 0.327,-2.702 0.527,-4.023l-4.493,-0.68c-0.395,2.599 -0.693,5.274 -0.934,7.983c-4.427,3.096 -8.488,6.328 -12.095,9.619c-1.677,-1.682 -3.252,-3.368 -4.637,-5.045c-6.252,-7.58 -8.581,-14.099 -6.39,-17.886c1.904,-3.293 7.547,-4.703 15.486,-3.865l0.475,-4.508c-10.098,-1.058 -16.975,1.052 -19.9,6.106c-3.241,5.597 -0.818,13.777 6.816,23.033c1.457,1.764 3.109,3.534 4.866,5.3c-1.778,1.786 -3.448,3.576 -4.918,5.36l3.513,2.876c1.396,-1.695 2.989,-3.399 4.684,-5.102c3.607,3.291 7.668,6.524 12.095,9.62c0.241,2.708 0.537,5.383 0.935,7.985l4.493,-0.682c-0.2,-1.322 -0.369,-2.67 -0.53,-4.024c1.918,1.227 3.87,2.435 5.886,3.595c2.014,1.161 4.037,2.24 6.057,3.282c-0.789,0.338 -1.579,0.692 -2.366,1.009l1.709,4.202c1.982,-0.802 3.975,-1.688 5.966,-2.613c4.891,2.269 9.718,4.159 14.368,5.625c-3.57,13.074 -9.141,20.998 -14.361,20.998c-4.373,0 -8.861,-5.249 -12.316,-14.406l-4.252,1.595c4.216,11.184 10.1,17.344 16.568,17.344c7.872,0 14.688,-9.506 18.752,-24.259c2.416,0.637 4.784,1.181 7.047,1.557c2.975,0.494 5.728,0.737 8.23,0.737c7.477,0 12.75,-2.174 15.177,-6.367c3.195,-5.519 0.877,-13.577 -6.534,-22.686l-3.53,2.853Zm-23.683,-35.227c0.731,3.318 1.347,6.879 1.802,10.701c-1.923,-1.231 -3.88,-2.442 -5.895,-3.602c-2.016,-1.16 -4.046,-2.244 -6.078,-3.291c3.462,-1.491 6.862,-2.752 10.171,-3.808Zm-46.411,26.728c2.575,-2.335 5.375,-4.645 8.405,-6.895c-0.107,2.278 -0.18,4.571 -0.18,6.895c0,2.323 0.073,4.617 0.18,6.895c-3.03,-2.251 -5.83,-4.561 -8.405,-6.895Zm21.861,15.703c-3.027,-1.743 -5.941,-3.568 -8.722,-5.449c-0.246,-3.355 -0.369,-6.78 -0.369,-10.254c0,-3.475 0.123,-6.9 0.369,-10.254c2.781,-1.882 5.695,-3.706 8.722,-5.449c3.023,-1.741 6.059,-3.341 9.079,-4.803c3.041,1.469 6.084,3.064 9.103,4.803c3.013,1.736 5.922,3.551 8.709,5.437c0.24,3.289 0.381,6.707 0.381,10.266c0,3.554 -0.141,6.969 -0.381,10.256c-2.794,1.89 -5.698,3.713 -8.709,5.447c-3.019,1.738 -6.062,3.334 -9.103,4.802c-3.02,-1.462 -6.056,-3.062 -9.079,-4.802Zm14.377,7.219c2.032,-1.048 4.061,-2.131 6.077,-3.294c2.016,-1.16 3.971,-2.371 5.896,-3.601c-0.453,3.821 -1.071,7.382 -1.803,10.7c-3.306,-1.054 -6.709,-2.316 -10.17,-3.805Z" style="fill:#f83e5a;fill-rule:nonzero;"/><path id="Shape2" serif:id="Shape" d="M8.961,85.382l-1.957,4.091c2.664,1.267 6.025,1.902 10.043,1.902c2.198,0 4.593,-0.19 7.18,-0.571l-0.666,-4.486c-6.309,0.934 -11.357,0.608 -14.6,-0.936Z" style="fill:#f83e5a;fill-rule:nonzero;"/><path id="Shape3" serif:id="Shape" d="M32.983,33.999c3.759,0 6.818,-3.051 6.818,-6.8c0,-3.749 -3.059,-6.8 -6.818,-6.8c-3.759,0 -6.818,3.051 -6.818,6.8c0,3.749 3.059,6.8 6.818,6.8Zm0,-9.067c1.255,0 2.273,1.018 2.273,2.267c0,1.249 -1.018,2.267 -2.273,2.267c-1.254,0 -2.272,-1.018 -2.272,-2.267c0,-1.249 1.018,-2.267 2.272,-2.267Z" style="fill:#f83e5a;fill-rule:nonzero;"/><path id="Shape4" serif:id="Shape" d="M85.255,49.865c-3.759,0 -6.818,3.051 -6.818,6.8c0,3.749 3.059,6.799 6.818,6.799c3.759,0 6.818,-3.05 6.818,-6.799c0,-3.749 -3.059,-6.8 -6.818,-6.8Zm0,9.066c-1.254,0 -2.273,-1.017 -2.273,-2.266c0,-1.249 1.019,-2.267 2.273,-2.267c1.255,0 2.273,1.018 2.273,2.267c0,1.249 -1.018,2.266 -2.273,2.266Z" style="fill:#f83e5a;fill-rule:nonzero;"/><path id="Shape5" serif:id="Shape" d="M42.074,86.13c0,-3.749 -3.059,-6.8 -6.818,-6.8c-3.759,0 -6.818,3.051 -6.818,6.8c0,3.749 3.059,6.8 6.818,6.8c3.759,0 6.818,-3.051 6.818,-6.8Zm-9.091,0c0,-1.251 1.019,-2.266 2.273,-2.266c1.255,0 2.273,1.015 2.273,2.266c0,1.251 -1.018,2.267 -2.273,2.267c-1.254,0 -2.273,-1.016 -2.273,-2.267Z" style="fill:#f83e5a;fill-rule:nonzero;"/></g></svg>