<?xml version="1.0" encoding="UTF-8" standalone="no"?><!DOCTYPE svg PUBLIC "-//W3C//DTD SVG 1.1//EN" "http://www.w3.org/Graphics/SVG/1.1/DTD/svg11.dtd"><svg width="100%" height="100%" viewBox="0 0 100 100" version="1.1" xmlns="http://www.w3.org/2000/svg" xmlns:xlink="http://www.w3.org/1999/xlink" xml:space="preserve" xmlns:serif="http://www.serif.com/" style="fill-rule:evenodd;clip-rule:evenodd;stroke-linejoin:round;stroke-miterlimit:2;"><g id="_069-wheelchair" serif:id="069-wheelchair"><path id="Path" d="M51.621,68.974c0,7.63 -6.186,13.815 -13.815,13.815c-7.631,0 -13.816,-6.185 -13.816,-13.815c0,-7.63 6.185,-13.816 13.816,-13.816c7.629,0 13.815,6.186 13.815,13.816Z" style="fill:#ffccd4;fill-rule:nonzero;"/><path id="Shape" d="M37.806,84.516c-8.572,0 -15.543,-6.971 -15.543,-15.542c0,-8.571 6.971,-15.542 15.543,-15.542c8.57,0 15.541,6.971 15.541,15.542c0,8.571 -6.971,15.542 -15.541,15.542Zm0,-27.63c-6.666,0 -12.089,5.423 -12.089,12.088c0,6.665 5.423,12.088 12.089,12.088c6.664,0 12.087,-5.423 12.087,-12.088c0,-6.665 -5.423,-12.088 -12.087,-12.088Z" style="fill:#d1344c;fill-rule:nonzero;"/><path id="Path1" serif:id="Path" d="M37.806,100.058c-16.882,0 -30.614,-13.733 -30.614,-30.613c0,-9.028 3.958,-17.551 10.859,-23.386c0.728,-0.619 1.816,-0.525 2.433,0.204c0.616,0.729 0.525,1.819 -0.204,2.434c-6.124,5.177 -9.634,12.739 -9.634,20.748c0,14.975 12.184,27.16 27.16,27.16c11.249,0 21.176,-6.765 25.287,-17.232c0.348,-0.889 1.353,-1.32 2.238,-0.977c0.889,0.349 1.325,1.351 0.976,2.239c-4.634,11.799 -15.822,19.423 -28.501,19.423Z" style="fill:#d1344c;fill-rule:nonzero;"/><path id="Path2" serif:id="Path" d="M90.061,73.975c-1.173,-1.173 -3.014,-1.355 -4.395,-0.434l-5.159,3.439l-13.344,-21.822l-29.357,0l0,-12.087l18.21,0c2.428,0 4.396,-1.969 4.396,-4.396c0,-2.428 -1.967,-4.396 -4.396,-4.396l-18.21,0l0,-10.833c3.467,-2.008 5.805,-5.75 5.805,-10.046c0,-6.414 -5.2,-11.614 -11.615,-11.614c-6.414,0 -11.613,5.2 -11.613,11.614c0,4.797 2.91,8.915 7.061,10.686l0,41.434l35.48,0l15.07,21.508l11.536,-7.691c1.829,-1.219 2.085,-3.806 0.531,-5.362Z" style="fill:#ffccd4;fill-rule:nonzero;"/><path id="Shape1" serif:id="Shape" d="M77.996,88.755c-0.545,0 -1.081,-0.256 -1.416,-0.735l-14.555,-20.773l-34.581,0c-0.955,0 -1.727,-0.772 -1.727,-1.727l0,-40.349c-4.325,-2.306 -7.061,-6.807 -7.061,-11.771c0,-7.356 5.986,-13.342 13.341,-13.342c7.357,0 13.34,5.986 13.34,13.342c0,4.396 -2.202,8.521 -5.805,10.995l0,8.158l16.485,0c3.376,0 6.122,2.747 6.122,6.124c0,3.376 -2.746,6.121 -6.122,6.121l-16.485,0l0,8.634l27.631,0c0.602,0 1.16,0.314 1.473,0.826l12.407,20.29l3.664,-2.444c2.054,-1.371 4.824,-1.098 6.574,0.651c1.108,1.108 1.656,2.638 1.501,4.198c-0.153,1.558 -0.99,2.95 -2.293,3.821l-11.537,7.692c-0.293,0.195 -0.627,0.289 -0.956,0.289Zm-48.825,-24.962l33.754,0c0.563,0 1.091,0.276 1.415,0.735l14.099,20.128l10.134,-6.756c0.438,-0.293 0.72,-0.762 0.772,-1.288c0.053,-0.525 -0.131,-1.041 -0.506,-1.415c-0.59,-0.59 -1.522,-0.681 -2.216,-0.22l-5.158,3.441c-0.391,0.26 -0.874,0.348 -1.329,0.25c-0.459,-0.102 -0.857,-0.385 -1.103,-0.786l-12.838,-20.996l-28.389,0c-0.955,0 -1.728,-0.773 -1.728,-1.728l0,-12.087c0,-0.955 0.773,-1.728 1.728,-1.728l18.211,0c1.47,0 2.668,-1.196 2.668,-2.667c0,-1.473 -1.197,-2.67 -2.668,-2.67l-18.211,0c-0.955,0 -1.728,-0.772 -1.728,-1.727l0,-10.834c0,-0.615 0.329,-1.184 0.862,-1.494c3.049,-1.765 4.942,-5.043 4.942,-8.551c0,-5.452 -4.434,-9.887 -9.885,-9.887c-5.452,0 -9.887,4.435 -9.887,9.887c0,3.968 2.36,7.537 6.012,9.096c0.636,0.272 1.049,0.897 1.049,1.589l0,39.708Z" style="fill:#d1344c;fill-rule:nonzero;"/></g></svg>