<?xml version="1.0" encoding="UTF-8" standalone="no"?><!DOCTYPE svg PUBLIC "-//W3C//DTD SVG 1.1//EN" "http://www.w3.org/Graphics/SVG/1.1/DTD/svg11.dtd"><svg width="100%" height="100%" viewBox="0 0 64 72" version="1.1" xmlns="http://www.w3.org/2000/svg" xmlns:xlink="http://www.w3.org/1999/xlink" xml:space="preserve" xmlns:serif="http://www.serif.com/" style="fill-rule:evenodd;clip-rule:evenodd;stroke-linejoin:round;stroke-miterlimit:1.41421;"><rect x="0" y="0" width="64" height="72" style="fill:none;"/><path   d="M43.825,11.647c-0.02,-0.226 0.103,-0.46 0.168,-0.535c0.007,-0.072 0.551,-0.52 0.677,-0.535l-0.581,-0.25c-0.609,-0.303 -0.938,-0.808 -0.989,-1.516l-1.482,-0.606l0.114,-0.72c-1.089,0.379 -2.001,0.189 -2.736,-0.569c-0.532,-0.152 -0.734,-0.519 -0.608,-1.099c-0.557,0.126 -1.127,0.113 -1.71,-0.038c-0.785,-0.253 -1.189,-0.569 -1.215,-0.948c-0.025,-0.379 0.038,-0.656 0.19,-0.834c-0.583,-0.302 -0.956,-0.694 -1.121,-1.174c-0.164,-0.48 -0.076,-0.853 0.266,-1.119c0.342,-0.264 0.969,-0.422 1.881,-0.473c-0.076,-0.657 0.177,-0.973 0.76,-0.948c0.38,0.127 0.784,0.241 1.216,0.341c0.429,0.101 0.835,0.342 1.215,0.721c0.228,-0.38 0.709,-0.443 1.444,-0.19c0.887,0.404 1.951,1.251 3.192,2.54c0.76,-0.531 1.266,-0.329 1.52,0.606l0.114,0.795c0.709,-0.757 1.494,-0.681 2.356,0.228c0.279,0 0.62,0.126 1.025,0.379c0.204,-0.101 0.419,-0.139 0.647,-0.113c0.608,0.025 1.051,0.34 1.329,0.947c0.279,0.606 0.457,1.188 0.533,1.743c0.177,-0.682 0.493,-0.935 0.949,-0.758c0.329,0.38 0.608,1.049 0.836,2.009c0.406,0.505 0.621,1.074 0.647,1.705c0.86,-0.252 1.785,0.355 2.774,1.82c0.354,-0.43 0.835,-0.19 1.443,0.72c0.405,0.707 0.659,1.453 0.76,2.236c0.632,-0.253 0.988,0.367 1.064,1.857c0.481,1.137 0.715,1.883 0.703,2.236c-0.013,0.354 -0.083,0.657 -0.21,0.91c0.355,-0.253 0.621,-0.177 0.798,0.227c0.431,0.708 0.621,1.289 0.57,1.744c0,0.48 -0.367,1.049 -1.101,1.706c1.342,-0.38 1.734,0.05 1.177,1.288c-0.81,1.238 -1.254,2.098 -1.329,2.578c0,0.783 -0.095,1.358 -0.285,1.724c-0.191,0.366 -0.615,0.701 -1.274,1.004c0.101,0.253 0.089,0.543 -0.038,0.872c0.736,-0.657 1.317,-0.872 1.748,-0.645c0.734,-0.58 1.355,-0.694 1.862,-0.34c0.481,0.353 0.62,1.213 0.417,2.577c0.558,0.834 0.47,1.769 -0.266,2.802c0.278,0.252 0.418,0.569 0.418,0.947c0,0.379 -0.095,0.677 -0.285,0.89c-0.191,0.215 -0.527,0.475 -1.008,0.778c0.127,0.732 0.14,1.416 0.038,2.046c-0.126,0.709 -0.697,1.668 -1.71,2.882c0.228,0.732 0.127,1.402 -0.303,2.008c-1.089,1.289 -1.875,2.072 -2.356,2.35c0.253,0.506 0.253,0.896 0,1.176c-1.621,1.06 -2.939,1.629 -3.952,1.705c-0.836,0.101 -1.608,0.454 -2.317,1.062l-2.204,2.652c-0.152,0.429 -0.393,0.706 -0.722,0.833c0,0.507 -0.164,0.817 -0.494,0.929c-0.329,0.115 -0.734,0.209 -1.215,0.285c-0.71,0.53 -1.381,0.986 -2.014,1.365c0.177,0.858 0.468,1.466 0.874,1.819c1.849,0.328 3.039,0.404 3.571,0.227c0.658,-0.327 1.912,-1.225 3.762,-2.69c0.127,-0.581 0.266,-1.705 0.417,-3.373c0,-0.33 -0.139,-0.62 -0.417,-0.872c-0.355,-0.405 -0.368,-0.784 -0.039,-1.137c0.229,-0.278 0.9,-0.556 2.015,-0.833c0.304,-0.051 0.418,0.126 0.342,0.53l-0.038,0.909c0.076,0.178 0.354,0.291 0.836,0.341c1.013,-0.101 1.925,-0.112 2.736,-0.037c0.455,0.051 0.746,0.164 0.873,0.34c0.304,0.304 0.418,0.627 0.342,0.966c-0.076,0.342 -0.063,0.727 0.038,1.157c0.076,0.456 0.26,1.012 0.551,1.668c0.291,0.658 0.627,1.163 1.007,1.516c-0.38,0.885 -0.886,1.668 -1.52,2.35c-4.281,3.032 -6.845,4.858 -7.694,5.476c-0.849,0.619 -1.526,0.878 -2.032,0.778c-4.105,-0.278 -7.536,-0.657 -10.297,-1.138l0.608,0.456c0.938,0.732 1.861,1.313 2.773,1.743l0.723,0.189l0.342,0.342c0.05,0.328 -0.14,0.656 -0.571,0.985l-0.835,0.266c-0.685,0.58 -1.419,0.86 -2.204,0.834l-0.532,-0.19l-0.531,-0.986c-0.786,-0.152 -1.267,-0.34 -1.444,-0.568c-0.304,-0.304 -0.444,-0.568 -0.418,-0.795c-2.229,-1.996 -3.787,-3.095 -4.674,-3.299l-0.987,0.569c-0.381,0.177 -0.824,0.202 -1.33,0.076c-1.039,-0.556 -1.584,-0.771 -1.635,-0.645l-1.33,0.91c-0.177,0.101 -0.291,0.353 -0.341,0.758c-0.254,0.456 -0.811,0.758 -1.673,0.91l-1.101,0.832l-1.523,1.519l-0.149,0.149c-0.152,0.606 -0.456,0.998 -0.912,1.175c-0.481,0.151 -0.988,0.151 -1.52,0l-1.405,-0.833l-0.494,-0.569c-0.405,-0.126 -0.684,-0.353 -0.836,-0.682c-0.203,-0.734 -0.038,-1.126 0.494,-1.176c0.38,0.179 1.241,-0.239 2.583,-1.251l-0.038,-0.415c-4.686,0.707 -7.218,1.049 -7.598,1.024c-1.824,-0.785 -3.736,-1.769 -5.737,-2.958c-1.697,-0.984 -2.88,-1.718 -3.551,-2.198c-0.672,-0.479 -1.17,-0.884 -1.499,-1.213c-0.76,-0.757 -1.231,-1.313 -1.422,-1.668c-0.189,-0.353 -0.226,-0.617 -0.125,-0.796c0.76,-1.161 1.243,-2.147 1.421,-2.955c0.051,-0.202 0.093,-0.443 0.067,-0.72c-0.202,-0.758 -0.136,-1.264 0.079,-1.517c0.216,-0.252 0.608,-0.378 0.938,-0.378l3.849,-0.076l0,-0.993l0.005,0.766l0.465,-0.757l0.343,0.151l-0.571,1.136c-0.075,0.177 -0.24,0.253 -0.493,0.228c-0.583,-0.051 -1.723,-0.026 -3.42,0.075c-0.684,0.026 -0.887,0.468 -0.608,1.328c0.051,0.202 0.025,0.48 -0.076,0.833c-0.228,0.833 -0.671,1.794 -1.33,2.88c-0.203,0.229 0.203,0.885 1.216,1.972c0.886,0.833 2.444,1.92 4.673,3.258c3.141,1.769 5.041,2.742 5.7,2.919c2.583,-0.303 5.205,-0.695 7.865,-1.175c1.063,-0.227 2.254,-0.487 3.571,-0.778c1.318,-0.289 3.483,-0.991 6.498,-2.101c0.202,-0.051 0.266,-0.317 0.19,-0.797c-0.152,-0.935 -0.557,-2.021 -1.216,-3.259c-0.684,0.1 -1.431,0.164 -2.242,0.19c-0.811,0.024 -1.482,0.075 -2.014,0.151c-1.444,0.176 -2.837,0.391 -4.179,0.644l-3.268,0.606c-2.153,0.303 -3.825,0.468 -5.016,0.493c-1.216,-0.884 -2.925,-2.021 -5.129,-3.411c-1.393,-0.911 -3.002,-1.82 -4.825,-2.73c-0.254,-0.227 -0.291,-0.441 -0.114,-0.643c0.228,-0.127 0.734,-0.19 1.519,-0.19c0.355,0.026 0.494,0.113 0.419,0.266c-0.076,0.152 -0.228,0.233 -0.456,0.246c-0.227,0.011 -0.429,0.032 -0.607,0.057c1.545,0.682 2.991,1.466 4.334,2.35l-0.035,-1.971c-0.025,-0.706 0.134,-1.339 0.463,-1.894c0.077,-0.43 -0.403,-0.783 -1.467,-1.063c-0.145,-0.048 -0.195,-0.01 -0.195,0.105l0,-0.142c0,-0.227 -0.125,-0.367 0.026,-0.417c0.355,-0.076 0.71,0.089 1.546,0.493c0.557,0.353 0.798,0.745 0.722,1.175c-0.329,0.53 -0.469,1.187 -0.418,1.97l0.114,2.274c1.799,1.213 3.191,2.173 4.179,2.881c1.064,-0.025 2.23,-0.126 3.496,-0.303l0.722,-2.047c-0.633,-0.456 -1.342,-1.061 -2.127,-1.819l-0.57,0.076c-0.558,0 -0.975,-0.304 -1.254,-0.911c-0.658,0.051 -1.292,-0.392 -1.9,-1.326c-0.963,-1.112 -1.761,-2.173 -2.394,-3.184c-0.431,0.126 -0.899,0.057 -1.406,-0.209c-0.507,-0.264 -1.038,-0.675 -1.596,-1.23l-2.773,-3.26c-1.849,-2.248 -3.154,-5.054 -3.914,-8.415c-0.152,-1.035 -0.241,-2.02 -0.266,-2.956c-0.025,-0.934 -0.025,-1.515 0,-1.742c0.101,-0.582 0.354,-0.948 0.761,-1.1c0.836,-0.278 1.989,1.213 3.458,4.472c0.76,1.794 1.748,4.449 2.963,7.959c0,-0.555 0.051,-1.111 0.152,-1.666c-0.557,-1.037 -1,-2.161 -1.33,-3.375c-0.127,-0.378 -0.284,-0.63 -0.474,-0.756c-0.191,-0.127 -0.273,-0.349 -0.248,-0.664c0.026,-0.316 -0.063,-0.777 -0.265,-1.383c-0.381,-1.289 -0.685,-2.212 -0.912,-2.768c-0.355,-0.126 -0.735,-0.568 -1.141,-1.327c-0.405,-0.758 -0.81,-1.933 -1.215,-3.524c-0.329,-1.592 -0.431,-3.083 -0.304,-4.473c0.202,-2.172 0.5,-3.916 0.893,-5.23c0.392,-1.313 0.849,-2.451 1.368,-3.411c0.519,-0.96 0.968,-1.699 1.349,-2.217c0.379,-0.518 0.772,-1.055 1.177,-1.611c0.405,-0.556 0.81,-0.972 1.216,-1.251c0.43,-0.151 0.709,-0.063 0.835,0.266c0.229,0.809 0.254,1.781 0.076,2.918c0.33,-1.011 0.944,-2.388 1.844,-4.131c0.898,-1.743 1.931,-3.209 3.096,-4.397c1.064,-0.96 1.799,-1.49 2.204,-1.591c0.38,-0.101 0.627,-0.038 0.741,0.189c0.114,0.228 0.107,0.607 -0.019,1.137c-0.431,1.112 -0.836,2.085 -1.216,2.919l-0.76,1.743c0.633,-1.289 1.475,-2.533 2.526,-3.733c1.051,-1.2 2.235,-2.217 3.553,-3.051c1.292,-0.91 2.799,-1.579 4.521,-2.009c1.647,-0.303 2.634,-0.227 2.964,0.227c-0.025,0.556 -0.266,1.087 -0.722,1.592c0.862,0.026 1.381,0.152 1.558,0.38c-0.076,0.96 -0.621,1.882 -1.634,2.766c-0.962,0.784 -1.976,1.403 -3.04,1.857l-1.532,0.812c-0.988,0.455 -2.064,0.995 -3.331,1.5l-0.38,0.151l-0.323,0.105c-0.049,0.22 -0.229,0.639 -0.476,1.146c0.127,-0.089 0.231,-0.16 0.3,-0.205l0.141,-0.092l1.665,1.511c0.807,-0.478 1.637,-0.899 2.472,-1.257l-0.252,-2.21l0.154,-0.062c0.457,-0.186 2.285,-0.778 2.745,-0.896l0.161,-0.042l1.125,1.943c0.85,-0.202 1.772,-0.35 2.747,-0.438l0.436,-2.177l0.166,-0.012l0.001,0l0.005,0l0.003,0l0.006,-0.001l0.005,0l0,0l0.143,-0.01c0,0 0.006,-0.001 0.008,-0.001l0.039,-0.003l0,0.001c0.011,-0.001 0.015,-0.001 0.015,-0.001l0.168,0c0.31,-0.007 0.712,-0.01 1.057,-0.01c0.527,0 1.185,0.007 1.45,0.026l0.166,0.011l0.453,2.178c0.908,0.081 1.81,0.225 2.744,0.439l1.092,-1.943l0.162,0.04c0.484,0.12 2.331,0.714 2.767,0.898l0.15,0.063l-0.252,2.209c0.848,0.363 1.682,0.785 2.487,1.256l1.236,-1.145Zm-17.633,55.076c-1.064,1.037 -2.267,2.022 -3.61,2.957l-0.456,-0.151c0.786,-0.481 1.9,-1.264 3.344,-2.351l0.646,-0.72l-0.342,-0.037c-0.481,0.429 -1.032,0.865 -1.653,1.307c-0.62,0.444 -1.336,0.866 -2.146,1.27l-1.103,0.531l0.191,0.228l0.836,0.112c0.481,0.304 0.683,0.608 0.607,0.911c-0.253,0.379 -0.658,0.429 -1.215,0.151l-0.912,-0.493c-0.33,-0.328 -0.659,-0.555 -0.988,-0.682l-0.38,-0.302l0.151,-0.345l1.14,0.491l0.343,0l-0.191,-0.718l1.369,-0.851c0.354,-0.126 0.506,-0.351 0.455,-0.653l0.114,-0.688c0.583,0.126 1.216,0.029 1.9,-0.286c0.684,-0.317 1.33,-0.5 1.937,-0.551c0.381,0.253 0.368,0.542 -0.037,0.87Zm17.896,2.652l0.418,0.078l-0.152,0.189l-0.988,0.303c-0.431,0.378 -0.937,0.632 -1.52,0.759l-0.645,-0.115l-0.153,-0.454c0.153,-0.227 0.348,-0.392 0.59,-0.493c0.24,-0.101 0.551,-0.188 0.931,-0.266l0.912,0.153l0.607,-0.154Zm-2.698,0.225c0.178,0 0.607,-0.433 1.292,-0.433l-3.23,-2.44c-1.089,-0.304 -1.798,-0.418 -2.127,-0.242l1.786,1.507c0.43,0.429 1.012,0.648 1.747,1.608l0.532,0Zm6.725,-8.353c0.735,0.062 1.292,0.032 1.673,-0.094c0.683,-0.278 2.089,-1.314 4.217,-3.109c2.052,-1.541 3.787,-2.615 5.206,-3.221c0.43,-0.252 0.45,-0.436 0.056,-0.55c-0.392,-0.113 -0.981,-0.17 -1.767,-0.17c-0.253,0.202 -0.228,0.367 0.076,0.493c0.355,-0.025 0.608,0 0.76,0.076c-1.697,0.883 -3.116,1.769 -4.256,2.652c0.102,-0.581 0.19,-1.579 0.266,-2.994c-0.025,-0.454 -0.177,-0.858 -0.455,-1.213c-0.177,-0.253 0.039,-0.48 0.698,-0.682l0.509,-0.151l0,0.833l-0.698,-0.189l0.088,0.379c0.151,0.277 0.436,0.468 0.842,0.569l2.053,0.112l0.914,-0.036c1.064,0.025 1.584,0.284 1.559,0.777c-0.025,0.491 0.011,0.952 0.113,1.383c0.178,1.086 0.609,2.123 1.293,3.108c-0.151,0.454 -0.481,0.986 -0.987,1.591l-1.977,1.289c-1.696,1.212 -4.002,2.793 -6.915,4.738c-2.077,0.05 -4.572,-0.114 -7.485,-0.493c-2.103,-0.277 -4.521,-0.808 -7.257,-1.592l-0.609,-0.151l0.267,-0.266c0.431,-0.555 0.665,-0.928 0.703,-1.118c0.038,-0.19 -0.035,-0.619 -0.2,-1.289c-0.165,-0.67 -0.471,-1.459 -1.434,-2.368l0,-0.227l0.579,-0.076c1.571,0.101 2.976,0.303 4.203,0.606c1.229,0.303 2.693,0.58 4.391,0.833c1.646,0.304 2.84,0.486 3.574,0.55Zm-1.93,1.568c0,-0.173 0.09,-0.599 0.09,-0.767c-0.09,-0.172 -0.258,-0.261 -0.428,-0.261l0.088,-0.079c0.168,0 0.424,0.079 0.595,0.079c0.257,0.089 0.512,0.089 0.767,0.089l-0.082,0.172c-0.085,0 -0.345,-0.084 -0.428,0.084c-0.085,0.169 -0.085,0.599 -0.174,0.766l-0.254,1.63c-0.084,0.68 0,0.852 0.511,0.94c0.26,0 0.512,0.084 0.681,0c0.348,-0.174 0.348,-0.347 0.429,-0.687l0.173,0l-0.254,1.027c0,-0.085 -0.174,-0.085 -0.174,-0.085c-0.855,-0.171 -1.622,-0.255 -2.471,-0.429l0,-0.086c0.166,0 0.336,0 0.508,-0.17c0,-0.082 0.086,-0.51 0.173,-0.683l0.25,-1.54Zm3.785,2.891c-0.258,0.085 -0.428,0.085 -0.683,0.085l0,-0.085c0.088,0 0.344,0 0.344,-0.254c0.081,-0.173 0,-0.513 0,-0.685l-0.089,-1.625c0,-0.168 -0.085,-0.594 -0.085,-0.683c-0.082,-0.258 -0.258,-0.169 -0.426,-0.169l0,-0.175c0.168,0 0.426,0 0.68,0c0.169,0 0.427,-0.084 0.684,-0.084l0,0.17c-0.168,0 -0.347,0 -0.425,0.175c0,0.171 0,0.597 0,0.766l0.168,1.541c0,0.172 0,0.596 0.089,0.769c0.085,0.17 0.256,0.17 0.423,0.17l0,0.084l-0.68,0Zm-34.75,-2.626c-0.005,-0.164 -0.1,-0.583 -0.104,-0.746c-0.088,-0.165 -0.259,-0.162 -0.424,-0.07l-0.004,-0.169c0.167,-0.005 0.421,-0.012 0.586,-0.103c0.257,-0.007 0.424,-0.01 0.589,-0.096c0.418,-0.094 1.098,-0.028 1.204,0.721c0.097,0.503 -0.152,0.757 -0.481,0.929c0.254,-0.007 0.505,-0.013 0.674,0.072c0.261,0.157 0.435,0.406 0.443,0.739c0.091,0.336 -0.064,0.589 -0.315,0.847c-0.164,0.171 -0.497,0.262 -0.751,0.269c-0.258,0.007 -0.425,0.011 -0.588,0.101c-0.343,0.009 -0.505,0.101 -0.844,0.11l-0.003,-0.088c0.166,-0.089 0.337,-0.094 0.418,-0.263c-0.004,-0.163 -0.1,-0.58 -0.105,-0.747l-0.295,-1.506Zm19.787,0.84l-0.191,-0.608l-1.025,1.289l-0.836,0.53c-0.38,0.329 -0.773,0.454 -1.178,0.378l-1.33,-0.642l0.684,-0.342l0.19,0.151c-0.127,0.379 0.025,0.328 0.456,-0.151l1.178,-1.138c0.076,-0.681 -0.089,-1.56 -0.494,-2.633c-0.405,-1.074 -0.709,-1.749 -0.912,-2.028c-0.05,-0.228 -0.633,-0.278 -1.748,-0.152c0.659,-0.328 1.431,-0.353 2.318,-0.075l0.912,0.378l0.496,-0.21l-0.071,-0.068l-0.843,-0.403l0.456,0.038l0.387,0.365l0.107,0.051l-0.036,0.017l0.265,0.249c1.291,1.39 2.019,2.337 2.184,2.842c0.165,0.506 0.184,0.999 0.056,1.478c-0.48,0.633 -0.823,0.86 -1.025,0.684Zm-18.987,0.567c0.004,0.165 0.099,0.5 0.183,0.668c0.093,0.162 0.26,0.157 0.427,0.069c0.42,-0.011 0.581,-0.348 0.483,-0.85c-0.093,-0.249 -0.185,-0.498 -0.439,-0.577c-0.169,-0.076 -0.42,-0.069 -0.673,0.019l-0.087,0.001l0.106,0.67Zm2.043,-1.897c-0.005,-0.17 -0.099,-0.582 -0.189,-0.667c-0.088,-0.161 -0.255,-0.156 -0.427,-0.152l-0.002,-0.081c0.254,-0.093 0.421,-0.098 0.679,-0.105c0.162,-0.003 0.328,-0.092 0.502,-0.097c0.503,-0.101 1.095,-0.029 1.197,0.639c0.101,0.5 -0.236,0.756 -0.567,0.938c0.254,-0.007 0.507,-0.014 0.684,0.15c0.252,0.158 0.43,0.404 0.521,0.649c0.011,0.421 -0.151,0.675 -0.314,0.849c-0.248,0.259 -0.586,0.267 -0.84,0.274c-0.08,0.088 -0.335,0.094 -0.5,0.1c-0.259,0.006 -0.509,0.094 -0.756,0.183l-0.004,-0.163c0.082,-0.004 0.332,-0.01 0.325,-0.261c-0.004,-0.167 -0.096,-0.503 -0.1,-0.667l-0.209,-1.589Zm33.978,1.198c0,0.17 0.081,0.601 0.167,0.852c0.087,0.173 0.336,0.084 0.423,0l0.086,0.084c-0.173,0.089 -0.251,0.173 -0.422,0.263c-0.172,0.082 -0.343,0.166 -0.428,0.25l-0.088,-0.084c0.173,-0.167 0.262,-0.256 0.173,-0.597c0,-0.344 -0.086,-0.768 -0.173,-1.11l-0.427,-2.309l0.174,0l2.213,1.964c0.09,0.088 0.345,0.345 0.514,0.427c0.168,0.087 0.341,0 0.428,0l0.085,0.087c-0.172,0.084 -0.427,0.173 -0.598,0.343c-0.169,0.086 -0.429,0.17 -0.598,0.342l-0.086,-0.172c0.172,0 0.345,-0.169 0.255,-0.34c-0.083,-0.089 -0.17,-0.259 -0.339,-0.341l-0.426,-0.345l-1.022,0.513l0.089,0.173Zm-9.422,-0.092c-0.085,0.169 -0.254,0.595 -0.339,0.769c0,0.252 0.254,0.252 0.339,0.342l0,0.084c-0.172,0 -0.339,-0.084 -0.508,-0.084c-0.175,0 -0.346,-0.09 -0.512,-0.09l0.081,-0.079c0.256,0 0.338,-0.09 0.515,-0.347c0.17,-0.342 0.339,-0.681 0.512,-1.025l1.022,-2.05l0.169,0.081l0.511,2.91c0.091,0.17 0.091,0.509 0.173,0.683c0.083,0.177 0.169,0.177 0.338,0.258l0,0.086c-0.169,0 -0.42,-0.086 -0.68,-0.086c-0.173,-0.081 -0.426,-0.081 -0.682,-0.081l0.086,-0.177c0.085,0 0.339,0.088 0.339,-0.084c0,-0.168 0,-0.342 0,-0.515l-0.085,-0.595l-1.192,-0.174l-0.087,0.174Zm-30.759,-1.919c0.067,-0.347 0.135,-0.606 -0.13,-0.849l0.08,-0.092c0.172,0.079 0.361,0.241 0.534,0.316c0.18,0.076 0.358,0.238 0.622,0.307l-0.083,0.088c-0.086,-0.08 -0.35,-0.149 -0.429,0.023c-0.078,0.181 -0.29,1.044 -0.368,1.308l-0.261,1.468l1.077,-0.909c0.16,-0.18 0.817,-0.82 0.894,-0.991c0.16,-0.268 -0.019,-0.342 -0.109,-0.426l-0.009,-0.167c0.181,0.158 0.354,0.237 0.448,0.317c0.18,0.077 0.352,0.152 0.445,0.235l0.005,0.08c-0.357,-0.233 -0.681,0.211 -1.013,0.484l-2.138,2.001l-0.175,-0.081l0.61,-3.112Zm6.92,2.301c0.086,0.165 0.092,0.419 0.181,0.584c0.092,0.165 0.259,0.162 0.426,0.156c0.337,-0.096 0.496,-0.432 0.401,-0.85c-0.01,-0.335 -0.186,-0.501 -0.358,-0.66c-0.252,-0.074 -0.417,0.01 -0.589,0.015l-0.166,0.005l0.105,0.75Zm1.977,-1.973c-0.005,-0.168 -0.102,-0.582 -0.107,-0.752c-0.09,-0.163 -0.336,-0.158 -0.423,-0.072l-0.091,-0.165c0.254,-0.007 0.508,-0.012 0.676,-0.097c0.252,-0.008 0.509,-0.014 0.673,-0.105l0.085,0.165c-0.168,0.005 -0.334,0.009 -0.414,0.177c0.004,0.166 0.1,0.58 0.105,0.753l0.209,1.582c0.105,0.67 0.277,0.832 0.866,0.732c0.165,-0.087 0.422,-0.094 0.583,-0.269c0.168,-0.17 0.161,-0.419 0.154,-0.673l0.166,-0.09l0.107,1.005c-0.08,0.002 -0.168,0.005 -0.248,0.007c-0.76,0.105 -1.601,0.291 -2.358,0.397l-0.002,-0.086c0.168,-0.084 0.336,-0.089 0.331,-0.257c0.08,-0.169 -0.016,-0.588 -0.02,-0.756l-0.292,-1.496Zm21.534,-0.16l-0.089,-0.082c0.089,-0.515 -0.084,-0.69 -0.509,-0.776c-0.256,0 -0.516,-0.08 -0.516,0.086l-0.423,2.649c0,0.431 0,0.515 0.423,0.689l0,0.083c-0.252,0 -0.51,-0.083 -0.762,-0.169c-0.26,0 -0.516,0 -0.772,-0.088l0,-0.084c0.511,0 0.603,-0.084 0.684,-0.515l0.34,-2.65c0.087,-0.081 -0.173,-0.17 -0.34,-0.17c-0.514,-0.079 -0.684,-0.079 -0.766,0.599l-0.172,-0.084l0.172,-0.858l2.898,0.513l-0.168,0.857Zm-4.322,-0.574c0,-0.173 0.084,-0.511 0,-0.687c0,-0.168 -0.169,-0.255 -0.335,-0.255l0,-0.169c0.249,0.083 0.51,0.169 0.68,0.169c0.256,0 0.509,0.087 0.766,0.087l-0.087,0.083c-0.091,0 -0.342,0 -0.423,0.173c-0.09,0.17 -0.09,0.51 -0.172,0.685l-0.173,1.623c-0.081,0.173 -0.081,0.597 -0.081,0.687c0,0.253 0.17,0.253 0.337,0.253l0,0.174c-0.256,-0.091 -0.428,-0.091 -0.68,-0.174c-0.259,0 -0.426,0 -0.68,-0.087l0,-0.084c0.165,0 0.333,0 0.421,-0.172c0.092,-0.084 0.172,-0.513 0.172,-0.68l0.255,-1.626Zm-14.278,0.176c-0.005,-0.17 -0.095,-0.5 -0.099,-0.667c-0.177,-0.163 -0.342,-0.158 -0.429,-0.157l-0.087,-0.077c0.251,-0.094 0.507,-0.101 0.677,-0.106c0.249,-0.005 0.501,-0.097 0.67,-0.103l0.002,0.086c-0.084,0.002 -0.253,0.093 -0.331,0.256c0.005,0.175 0.013,0.503 0.1,0.671l0.214,1.587c0.004,0.166 0.1,0.581 0.181,0.662c0.092,0.165 0.265,0.16 0.429,0.154l0.005,0.172c-0.249,0.007 -0.424,0.01 -0.674,0.017c-0.167,0.086 -0.418,0.092 -0.67,0.099l-0.002,-0.081c0.17,-0.005 0.335,-0.008 0.328,-0.262c0.081,-0.169 -0.013,-0.5 -0.017,-0.665l-0.297,-1.586Zm3.449,-1.597l0.086,-0.002l0.202,1.084l-0.089,0.001c-0.186,-0.582 -0.618,-0.986 -1.12,-0.891c-0.844,0.106 -0.9,1.109 -0.795,1.944c0.196,0.832 0.552,1.661 1.393,1.555c0.587,-0.182 0.744,-0.687 0.726,-1.357l0.082,-0.088l0.202,1.251l-0.176,-0.246c-0.245,0.341 -0.579,0.432 -0.916,0.525c-0.922,0.195 -1.701,-0.454 -1.899,-1.536c-0.114,-1.088 0.37,-2.023 1.29,-2.128c0.425,-0.096 0.681,-0.018 1.021,0.138l-0.007,-0.25Zm-11.313,3.616l0.166,-0.082c0.166,-0.005 0.333,-0.009 0.417,-0.177c0.165,-0.172 0.16,-0.345 0.153,-0.591c-0.095,-0.419 -0.275,-0.663 -0.693,-0.57c0,0 -0.167,0.005 -0.252,0.093l0.004,0.166l0.205,1.161Zm27.988,-0.044l-0.256,-1.538l-0.684,1.37l0.94,0.168Zm-34.713,-1.218c-0.075,0.177 -0.311,0.535 -0.302,0.702c-0.077,0.176 0.093,0.256 0.277,0.417l-0.081,0.086c-0.178,-0.158 -0.359,-0.234 -0.628,-0.399c-0.176,-0.072 -0.356,-0.23 -0.533,-0.306l-0.009,-0.175c0.177,0.081 0.356,0.242 0.438,0.066c0.164,-0.098 0.409,-0.45 0.486,-0.629l0.79,-1.324c0.074,-0.175 0.317,-0.527 0.397,-0.623c0.073,-0.257 -0.103,-0.335 -0.28,-0.41l0.083,-0.091c0.18,0.162 0.443,0.234 0.626,0.394c0.175,0.075 0.358,0.239 0.534,0.316c0.441,0.231 0.815,0.722 0.414,1.347c-0.396,0.705 -1.094,0.569 -1.54,0.254c-0.087,0.005 -0.267,-0.158 -0.267,-0.158l-0.405,0.533Zm43.703,0.627l-1.11,-1.023l0.257,1.456l0.853,-0.433Zm-24.094,-0.843c0.007,0.251 -0.149,0.673 -0.062,0.837c0.007,0.254 0.259,0.161 0.431,0.157l0.004,0.17c-0.171,0.005 -0.342,0.01 -0.509,0.013c-0.168,0.088 -0.332,0.092 -0.502,0.096l-0.002,-0.083c0.25,-0.089 0.33,-0.178 0.41,-0.434c0.072,-0.419 0.063,-0.752 0.137,-1.095l0.366,-2.264l0.167,-0.003l1.335,2.559c0.087,0.164 0.262,0.414 0.352,0.576c0.088,0.082 0.255,0.077 0.422,0.073l0.005,0.166c-0.167,0.005 -0.42,0.012 -0.586,0.101c-0.253,0.007 -0.502,0.095 -0.671,0.099l-0.002,-0.081c0.079,-0.089 0.333,-0.094 0.239,-0.343c-0.002,-0.083 -0.086,-0.249 -0.088,-0.331l-0.358,-0.583l-1.092,0.202l0.004,0.168Zm24.897,-1.721c-0.255,-0.09 -0.43,-0.09 -0.596,0.088l-0.087,-0.177c0.17,-0.083 0.253,-0.083 0.342,-0.253c0.086,0 0.256,-0.084 0.341,-0.169l3.328,1.112l-0.94,-1.288c-0.17,-0.167 -0.339,-0.511 -0.512,-0.68c-0.251,-0.171 -0.343,-0.086 -0.595,0l-0.087,-0.086c0.17,-0.086 0.339,-0.173 0.515,-0.258c0.083,-0.172 0.167,-0.253 0.34,-0.346l0.086,0.092c-0.086,0.171 -0.259,0.171 -0.171,0.426c0.086,0.172 0.425,0.599 0.599,0.851l1.362,1.887l-0.086,0.083c-0.17,0 -0.339,-0.083 -0.511,-0.172l-3.073,-1.023l1.11,1.537c0.09,0.174 0.344,0.429 0.511,0.599c0.173,0.087 0.342,0 0.512,-0.09l0,0.09c-0.086,0.174 -0.253,0.259 -0.424,0.341c-0.172,0.084 -0.255,0.17 -0.431,0.344l-0.079,-0.086c0.17,-0.174 0.254,-0.258 0.17,-0.512c-0.091,-0.176 -0.26,-0.429 -0.431,-0.604l-1.193,-1.706Zm-34.939,2.713l0.084,-0.002c0.164,-0.096 0.331,-0.101 0.416,-0.186c0.162,-0.171 0.156,-0.42 0.149,-0.67c-0.095,-0.415 -0.27,-0.577 -0.602,-0.567c-0.082,0.085 -0.257,0.088 -0.257,0.088c0,0 0.005,0.165 0.007,0.25l0.203,1.087Zm-11.478,-3.817c0.076,-0.177 0.316,-0.534 0.397,-0.623c0.072,-0.259 -0.104,-0.337 -0.281,-0.412l0.168,-0.101l1.877,1.189l-0.483,0.709l-0.089,-0.079c0.319,-0.527 0.132,-0.69 -0.311,-1.01l-0.27,-0.156c-0.086,-0.082 -0.086,-0.082 -0.25,0.098l-0.717,1.151c0.537,0.402 0.785,0.132 1.026,-0.142l0.087,-0.005c-0.154,0.271 -0.319,0.45 -0.4,0.624c-0.157,0.267 -0.235,0.436 -0.397,0.62l-0.091,-0.084c0.317,-0.527 0.136,-0.689 -0.306,-0.924l-0.479,0.797c-0.078,0.172 -0.239,0.355 -0.23,0.522c0.014,0.259 0.194,0.428 0.373,0.496c0.445,0.236 0.706,0.305 1.112,-0.136l0.087,-0.005l-0.474,0.788l-2.146,-1.429l0.077,-0.09c0.096,0.079 0.268,0.16 0.438,0.063c0.078,-0.091 0.321,-0.447 0.484,-0.621l0.798,-1.24Zm2.477,2.327c0.004,0.088 0.092,0.082 0.184,0.162c0.354,0.237 0.696,0.134 0.935,-0.307c0.321,-0.443 0.213,-0.783 -0.141,-1.016c-0.184,-0.165 -0.184,-0.165 -0.343,0.102l-0.635,1.059Zm20.128,-0.012l-0.711,-1.324l-0.219,1.43l0.93,-0.106Zm28.076,-1.83c0,0.255 0.174,0.684 0.26,0.854c0.171,0.172 0.34,0 0.422,-0.086l0.088,0.172c-0.088,0.086 -0.253,0.175 -0.424,0.259c-0.086,0.077 -0.261,0.169 -0.346,0.342l-0.084,-0.173c0.169,-0.169 0.169,-0.253 0.169,-0.514c-0.169,-0.427 -0.255,-0.769 -0.337,-1.11l-0.684,-2.222l0.082,-0.089l2.479,1.715c0.082,0.082 0.42,0.341 0.509,0.341c0.167,0.085 0.341,0 0.513,-0.088l0,0.172c-0.172,0.088 -0.346,0.17 -0.513,0.34c-0.168,0.171 -0.342,0.259 -0.509,0.431l-0.086,-0.09c0.086,-0.082 0.252,-0.255 0.168,-0.427c-0.082,-0.085 -0.252,-0.167 -0.341,-0.254l-0.508,-0.344l-0.942,0.684l0.084,0.087Zm-52.756,0.695c0.014,0.257 0.018,0.341 0.201,0.506l-0.078,0.091c-0.095,-0.081 -0.186,-0.162 -0.274,-0.248c-0.093,-0.079 -0.267,-0.069 -0.357,-0.148l0.063,-0.436l0.013,-1.368c-0.013,-0.256 -0.013,-0.256 -0.195,-0.419l-0.401,0.536c-0.08,0.177 -0.317,0.529 -0.394,0.704c0.009,0.171 0.1,0.252 0.276,0.33l-0.081,0.09c-0.177,-0.076 -0.358,-0.237 -0.531,-0.319c-0.186,-0.156 -0.367,-0.321 -0.627,-0.388l0.077,-0.091c0.179,0.077 0.269,0.154 0.435,0.062c0.169,-0.094 0.411,-0.45 0.487,-0.621l0.877,-1.334c0.083,-0.093 0.323,-0.447 0.404,-0.619c0.074,-0.176 -0.104,-0.255 -0.195,-0.334l-0.008,-0.171c0.268,0.158 0.449,0.32 0.719,0.476c0.176,0.074 0.356,0.239 0.448,0.318c0.449,0.32 0.814,0.727 0.415,1.346c-0.403,0.539 -0.834,0.563 -1.274,0.324l0,1.713Zm40.15,-0.201c-0.659,-0.101 -1.723,-0.29 -3.192,-0.569l1.33,-0.454c0.709,0.151 1.114,0 1.215,-0.455c0.102,0.53 0.318,1.024 0.647,1.478Zm-26.787,-0.227l0.531,-1.516l1.748,1.137l-2.279,0.379Zm40.075,-1.206l-1.276,-0.855l0.511,1.455l0.765,-0.6Zm-35.896,0.448l-2.85,-1.706l-2.621,-1.744l-0.494,-0.644c-0.152,-0.177 -0.361,-0.214 -0.627,-0.113c-0.266,0.101 -0.475,-0.051 -0.628,-0.454c-0.683,0.403 -1.38,0.252 -2.089,-0.456l-1.254,-1.515l-1.177,-2.009l-0.419,-0.304c-0.24,0.153 -0.506,0.208 -0.797,0.165c-0.496,-0.065 -1.064,-0.393 -1.634,-0.998c-0.355,-0.33 -1.115,-1.63 -2.28,-3.904c-1.545,-2.932 -2.596,-5.142 -3.153,-6.633c-0.406,-1.238 -0.672,-2.021 -0.798,-2.349c-0.127,-0.329 -0.178,-0.335 -0.153,-0.02c0.026,0.316 0.216,1.024 0.57,2.124c0.355,1.098 1.013,2.709 1.976,4.831c0.836,1.718 1.659,3.285 2.47,4.699c-1.875,-2.021 -3.23,-3.916 -4.066,-5.685c-0.836,-1.744 -1.393,-3.36 -1.672,-4.85c-0.126,-0.531 -0.203,-1.347 -0.228,-2.446c-0.025,-1.098 -0.013,-1.711 0.038,-1.838c0.126,-0.379 0.304,-0.543 0.532,-0.492c0.152,0 0.501,0.36 1.045,1.08c0.544,0.72 1.285,2.337 2.222,4.851c0.938,2.513 1.514,4.162 1.729,4.947c0.216,0.782 0.431,1.464 0.646,2.046c0.216,0.581 0.475,1.175 0.779,1.781c0.456,0.909 0.912,1.528 1.368,1.858c0.601,0.424 1.04,0.5 1.328,0.224l-1.39,-2.479c-0.126,-0.055 -0.268,-0.066 -0.432,-0.02c-0.028,0.002 -0.045,-0.009 -0.071,-0.009c-0.001,0 -0.002,0.01 -0.002,0.01c-0.058,-0.002 -0.099,-0.022 -0.15,-0.03c-0.057,-0.01 -0.121,-0.015 -0.169,-0.035c-0.044,-0.019 -0.073,-0.056 -0.109,-0.085c-0.043,-0.033 -0.092,-0.06 -0.123,-0.108c-0.028,-0.042 -0.038,-0.102 -0.056,-0.154c-0.018,-0.054 -0.045,-0.1 -0.053,-0.163c-0.016,-0.129 -0.013,-0.278 0.011,-0.45c0.051,-0.454 0.216,-1.237 0.494,-2.35c0.558,-1.87 1.355,-3.726 2.394,-5.57c-0.127,0.808 -0.19,1.489 -0.19,2.047c-0.937,2.096 -1.621,3.79 -2.052,5.077c-0.228,0.936 -0.216,1.39 0.038,1.365l0.304,-0.152l-0.228,-0.529l0.152,-0.418l0.456,0.796l0.266,-0.19l0.228,0.341l-0.228,0.342l1.71,2.463l0.418,-0.34l0.304,0.34c-0.507,0.506 -0.71,0.834 -0.608,0.986c0.456,0.833 0.874,1.503 1.254,2.01c0.76,1.11 1.38,1.427 1.862,0.947c0.151,-0.126 0.342,-0.101 0.569,0.076c0.228,0.177 0.482,0.555 0.761,1.136l-0.038,-0.872l-1.406,-1.326l-0.798,-1.592c-0.659,-0.934 -1.127,-1.654 -1.406,-2.159c-0.279,-0.507 -0.627,-1.112 -1.045,-1.82c-0.417,-0.708 -0.93,-1.504 -1.538,-2.388l0.114,-0.417l1.216,1.477c1.089,1.39 1.855,2.446 2.298,3.166c0.443,0.72 0.703,0.89 0.779,0.512l0.228,-0.72l0.342,0.19l-0.228,1.478l-0.076,0.454c-0.026,0.353 0.045,0.562 0.209,0.626c0.165,0.062 0.311,0.296 0.437,0.7c0.076,0.252 0.475,0.778 1.197,1.573c0.722,0.796 1.482,1.466 2.28,2.009c0.798,0.543 1.456,0.986 1.976,1.327c0.519,0.341 0.766,0.675 0.741,1.004l0.722,0.151l-0.19,-0.909l0.456,-0.115c0.228,0.152 0.418,0.431 0.57,0.835c0.659,0.505 1.228,0.909 1.71,1.212l-1.673,0.304Zm17.896,-0.217l-0.021,-0.162c0.972,-0.405 1.527,-0.838 1.655,-1.136c0.177,-0.709 0.165,-1.045 -0.038,-1.07c-0.482,-0.051 -0.925,0.102 -1.331,0.406c-0.429,0.254 -0.582,0.651 -0.455,1.08l0.169,0.642c-0.057,0.024 -0.113,0.048 -0.174,0.074l-0.337,-0.63l-1.329,0.654l1.253,0.174c0.145,-0.056 0.282,-0.07 0.413,-0.122l0.005,0.09l0.19,0Zm-27.698,-11.946c0.376,0.547 0.919,1.31 0.886,1.202c0.187,-0.685 0.352,-0.628 0.406,-0.606c0.254,0.052 0.747,0.234 1.026,0.537c0.076,0.101 0.101,0.241 0.076,0.417l-0.19,1.175c-0.152,0.86 0.202,1.77 1.064,2.73l1.177,1.327c0.76,0.784 1.33,1.266 1.71,1.442c0.177,-0.429 0.456,-0.753 0.836,-0.981c0.354,-0.176 2.457,0.55 6.307,2.167l1.862,2.022c0.228,0.101 0.582,0.094 1.064,-0.083c0.785,-0.505 1.57,-0.611 2.356,-0.434c0.835,-0.429 1.418,-0.402 1.747,-0.149c0.456,0.404 0.887,0.7 1.292,1.18l1.482,0c0.836,-1.44 1.482,-2.013 1.936,-2.242c2.609,-1.289 4.344,-2.28 5.205,-2.507c0.153,-0.025 0.254,0.012 0.305,0.113c0.354,0.328 0.557,0.569 0.608,0.72c0.86,-0.53 1.354,-1.023 1.481,-1.478c0.228,-0.607 0.703,-1.27 1.425,-1.99c0.722,-0.719 1.033,-1.37 0.931,-1.951l-0.152,-1.404c0.144,-0.22 0.394,-0.59 0.702,-0.863c0.29,-0.254 1.169,0.238 1.231,0.212c0.006,-0.018 0.204,-0.334 0.455,-0.73c-0.019,0.023 -0.036,0.044 -0.05,0.062l-0.107,0.13l-2.05,-0.923c-0.576,0.664 -1.224,1.308 -1.973,1.966l0.944,2.035l-0.138,0.106c-0.374,0.29 -1.924,1.43 -2.333,1.687l-0.14,0.087l-1.663,-1.508c-0.78,0.461 -1.61,0.889 -2.472,1.269l0.252,2.218l-0.158,0.061c-0.438,0.167 -2.274,0.755 -2.753,0.892l-0.165,0.047l-1.112,-1.949c-0.852,0.192 -1.754,0.335 -2.743,0.437l-0.438,2.187l-0.173,0.007c-0.263,0.009 -0.914,0.011 -1.436,0.011c-0.522,0 -1.176,-0.003 -1.448,-0.011l-0.172,-0.007l-0.454,-2.2c-0.87,-0.079 -1.791,-0.222 -2.743,-0.426l-1.096,1.951l-0.166,-0.048c-0.454,-0.129 -2.285,-0.72 -2.75,-0.892l-0.161,-0.058l0.253,-2.234c-0.848,-0.363 -1.683,-0.786 -2.487,-1.255l-1.65,1.511l-0.142,-0.092c-0.407,-0.266 -1.964,-1.387 -2.334,-1.689l-0.129,-0.106l0.925,-2.048c-0.742,-0.666 -1.389,-1.306 -1.971,-1.949l-1.995,0.905Zm12.348,11.707l-1.634,-1.135c-0.658,-0.785 -1.14,-1.351 -1.444,-1.707c-0.303,-0.353 -0.595,-0.606 -0.873,-0.758c-0.406,-0.227 -0.735,-0.302 -0.989,-0.227c-0.177,0.05 -0.366,0.303 -0.569,0.757l-0.076,-0.075c0.101,-0.43 0.259,-0.695 0.475,-0.796c0.215,-0.101 0.488,-0.076 0.817,0.076l1.823,0.871l3.116,1.175c0.76,0.81 1.228,1.365 1.405,1.668c-0.632,0.076 -1.317,0.126 -2.051,0.151Zm12.121,-1.023c0.304,-0.353 0.696,-0.668 1.177,-0.947c2.153,-1.061 3.584,-1.68 4.293,-1.857c0.127,-0.05 0.242,-0.013 0.343,0.113l0.304,0.38l-0.418,0.264c-0.253,0.202 -0.57,0.292 -0.95,0.267c-0.33,-0.026 -0.772,0.082 -1.33,0.321c-0.557,0.241 -0.862,0.575 -0.912,1.005c-0.102,0.303 -0.241,0.493 -0.418,0.569c-0.557,0.303 -1.064,0.569 -1.52,0.796l-1.178,-0.076l0.609,-0.835Zm-32.672,0.463c0.454,0.321 0.722,0.562 1.207,-0.064c0.24,-0.353 0.217,-0.779 -0.05,-0.939c-0.089,-0.077 -0.265,-0.155 -0.265,-0.155c-0.09,0.004 -0.085,0.091 -0.17,0.096l-0.722,1.062Zm48.554,-9.179c-0.507,0.555 -0.672,1.136 -0.494,1.744c-0.709,0.378 -1.393,0.934 -2.051,1.668c-0.659,0.732 -1.16,1.351 -1.502,1.856c-0.342,0.505 -0.703,0.808 -1.083,0.91c-0.431,0.202 -0.924,0.101 -1.482,-0.304l-0.151,0.948l-2.546,1.554l-1.254,0.53c0.102,-0.252 0.165,-0.681 0.19,-1.289l0.456,-0.379c1.749,-0.909 2.762,-1.744 3.04,-2.501c0.354,-0.632 0.735,-1.156 1.14,-1.573c0.405,-0.418 0.696,-0.929 0.873,-1.535l0.038,-0.909l-0.113,-0.948c0.405,0.454 0.772,0.556 1.101,0.303c0.532,-0.986 1.102,-1.902 1.71,-2.748c0.609,-0.847 1.254,-1.636 1.938,-2.368c0.684,-0.734 1.266,-1.353 1.748,-1.858l-0.038,0.947c-1.52,1.87 -2.47,3.146 -2.85,3.829c-1.291,1.946 -2.165,3.488 -2.622,4.624c-0.278,0.63 -0.684,1.137 -1.215,1.516c-0.406,0.202 -0.71,0.417 -0.912,0.645c-0.177,0.328 -0.076,0.415 0.304,0.264c0.252,-0.252 0.532,-0.441 0.836,-0.567c0.557,-0.28 1.747,-1.593 3.572,-3.942l-0.038,-1.328l0.417,-0.72c-0.025,0.733 0.038,1.137 0.19,1.213c0.152,0.076 0.361,-0.133 0.628,-0.626c0.265,-0.492 0.917,-1.85 1.956,-4.073c-0.228,0.682 -0.241,1.275 -0.038,1.781c-0.608,0.429 -0.773,1.163 -0.493,2.198l-1.255,1.138Zm-29.142,-13.432l-5.623,8.188l-0.231,-0.256c-1.316,-1.459 -2.366,-3.105 -3.128,-4.867c-0.187,0.698 -0.394,1.237 -0.584,1.383c-0.069,0.067 -0.085,0.098 -0.144,0.21c0.016,0.599 -0.165,2.167 -0.556,3.587c-0.278,1.012 -0.726,1.91 -1.067,2.41c0.081,0.111 0.154,0.209 0.214,0.288l2.017,-0.913l0.108,0.119c0.628,0.705 1.336,1.405 2.162,2.141l0.12,0.106l-0.918,2.033c0.454,0.348 1.548,1.136 2.024,1.461l1.637,-1.5l0.14,0.084c0.878,0.522 1.794,0.985 2.724,1.376l0.151,0.063l-0.25,2.215c0.556,0.194 1.835,0.608 2.392,0.776l1.084,-1.93l0.159,0.035c1.049,0.23 2.061,0.387 3.007,0.463l0.163,0.013l0.451,2.183c0.277,0.005 0.741,0.009 1.261,0.009c0.518,0 0.976,-0.004 1.248,-0.009l0.434,-2.163l0.161,-0.015c1.096,-0.108 2.08,-0.266 3.007,-0.481l0.16,-0.037l1.102,1.932c0.567,-0.17 1.85,-0.582 2.393,-0.774l-0.251,-2.198l0.149,-0.066c0.949,-0.412 1.861,-0.88 2.709,-1.392l0.139,-0.084l1.656,1.501c0.473,-0.319 1.559,-1.117 2.02,-1.464l-0.934,-2.014l0.123,-0.108c0.833,-0.722 1.539,-1.426 2.158,-2.153l0.107,-0.124l2.04,0.917c0.254,-0.328 0.739,-0.993 1.111,-1.514c-0.08,-0.097 -0.133,-0.232 -0.122,-0.535c-1.138,-1.137 -2.532,-2.021 -2.29,-3.226c-0.118,-0.249 -0.399,-0.831 -0.398,-1.175c0.001,-1.13 1.187,-1.119 1.71,-0.653c-0.036,-0.629 -0.846,-1.774 -1.41,-2.808c-0.762,2.597 -2.12,5.016 -4.006,7.052l-0.234,0.252l-5.45,-8.196l2.844,9.485l0.21,0.698l-0.602,-0.414l-8.272,-5.696l6.06,7.842l-0.314,0.139c-2.272,1.017 -4.793,1.554 -7.292,1.554c-2.586,0 -5.083,-0.545 -7.425,-1.62l-0.314,-0.145l6.137,-7.705l-8.162,5.631l-0.601,0.414l0.208,-0.698l2.878,-9.627Zm-12.084,14.873l0.419,-0.532l0.988,1.404l0.57,1.023l0.19,0.568c-0.354,-0.177 -0.658,-0.442 -0.913,-0.796l-0.607,-0.795l-0.647,-0.872Zm49.756,-9.856c-0.089,0.633 -0.297,1.177 -0.627,1.631c-1.039,1.186 -1.469,1.895 -1.293,2.122c0.279,0.48 0.228,1.023 -0.151,1.63c-0.557,0.683 -1.292,1.44 -2.204,2.273c0.253,0.507 0.064,0.936 -0.57,1.29c-0.735,0.403 -1.545,0.757 -2.431,1.061c1.646,-1.238 2.659,-2.565 3.039,-3.98c0.531,-0.479 1,-0.796 1.406,-0.947c0.355,-0.228 0.418,-0.329 0.19,-0.304c-0.457,0.177 -0.938,0.455 -1.445,0.834c0.482,-0.96 0.824,-1.997 1.026,-3.107c0.988,-0.961 1.61,-1.719 1.862,-2.276c0.354,-0.53 0.367,-0.643 0.038,-0.34c-0.379,0.631 -0.962,1.301 -1.748,2.008c0.355,-1.085 0.672,-2.299 0.95,-3.638c0.127,-0.783 0.089,-0.923 -0.114,-0.416l-0.379,1.327c-0.178,-0.53 -0.38,-0.936 -0.609,-1.214l0.495,1.592c-0.102,0.631 -0.343,1.528 -0.722,2.691c-0.355,-1.01 -0.824,-1.92 -1.407,-2.728c-0.531,-0.658 -0.62,-0.67 -0.266,-0.039c0.583,0.835 1.064,1.933 1.445,3.297c-0.305,1.213 -0.659,2.223 -1.064,3.032c-0.305,-0.454 -0.621,-0.77 -0.951,-0.947c-0.253,-0.127 -0.253,-0.051 0,0.227c0.33,0.329 0.595,0.656 0.798,0.987c-0.304,0.731 -0.703,1.376 -1.196,1.931c-0.494,0.556 -0.982,1.024 -1.464,1.402c0.608,-0.934 0.811,-1.97 0.608,-3.107c0,-0.202 0.159,-0.367 0.475,-0.493c0.316,-0.126 0.425,-0.266 0.324,-0.417c-0.279,-0.555 -0.419,-0.998 -0.418,-1.326c0.203,-0.101 0.506,-0.101 0.911,0c0.331,-0.228 0.298,-0.55 -0.094,-0.966c-0.393,-0.418 -0.639,-1.018 -0.741,-1.801c0,-0.454 0.304,-0.62 0.912,-0.493c0.279,-0.026 0.304,-0.354 0.076,-0.985l-0.646,-0.871c-0.456,-1.012 -0.266,-1.377 0.57,-1.1l0.988,0.607c0.659,0.252 0.975,-0.19 0.951,-1.327c0,-0.252 0.195,-0.31 0.589,-0.171c0.391,0.139 0.753,-0.156 1.082,-0.89c0.33,-0.354 0.583,-0.026 0.76,0.986c-0.076,1.34 0.253,1.971 0.988,1.895c0.126,0.076 0.145,0.429 0.057,1.06Zm-30.455,-1.799l-6.821,8.562c2.179,0.949 4.492,1.429 6.883,1.429c2.307,0 4.634,-0.471 6.754,-1.369l-6.673,-8.635l-0.063,-0.043l-0.08,0.056Zm-21.086,8.092l0.228,-0.227l1.064,1.78l-0.115,0.227l-1.177,-1.78Zm2.254,-1.026l0.405,-0.869c0.457,-0.708 0.798,-2.072 1.026,-4.093c0.177,-1.592 0.177,-3.38 0,-5.364c-0.177,-1.983 -0.405,-3.341 -0.684,-4.074c-0.481,0.126 -0.988,1.238 -1.52,3.335c-0.379,1.668 -0.607,3.221 -0.684,4.662c-0.05,1.946 0.102,3.802 0.456,5.571l0.494,0.569l0.076,-2.957l0.038,-2.159c0.076,-3.286 0.317,-5.976 0.722,-8.074c0.152,-0.277 0.177,-0.164 0.076,0.341c-0.177,2.072 -0.285,3.923 -0.323,5.553c-0.038,1.629 -0.076,2.937 -0.114,3.923c-0.037,0.968 -0.056,2.218 -0.056,3.75l0.088,-0.114Zm-2.212,-9.131c-0.961,1.513 -1.601,2.984 -1.923,4.414c-0.418,1.857 -0.589,3.304 -0.514,4.339c0.102,-0.808 0.229,-1.503 0.38,-2.084c0.608,-1.895 1.47,-3.803 2.584,-5.724c0.025,-0.504 0.165,-1.275 0.418,-2.311c-0.293,0.392 -0.565,0.781 -0.817,1.167l0.024,0.113l-0.152,0.086Zm40.441,5.42c-0.122,0.224 -0.247,0.445 -0.376,0.664l1.515,1.646l-0.093,0.141c-0.042,0.064 -0.105,0.156 -0.182,0.268c0.285,-0.311 0.535,-0.611 0.752,-0.899c-0.025,-0.126 -0.101,-0.278 -0.228,-0.456c-0.126,-0.176 -0.487,-0.537 -1.083,-1.079c-0.106,-0.097 -0.208,-0.192 -0.305,-0.285Zm-22.916,-16.371l-0.036,0.839l-0.78,-0.229l-10.918,0.263l8.659,6.579l0.788,0.292l-0.459,0.669l-3.127,10.46l8.952,-6.176l0.524,-0.657l0.496,0.642l8.989,6.19l-3.118,-10.402l-0.465,-0.698l0.767,-0.273l8.679,-6.625l-10.875,-0.248l-0.813,0.226l-0.023,-0.812l-3.64,-10.286l-3.6,10.246Zm23.433,18.65c0.006,0.048 0.016,0.093 0.028,0.135c0.015,-0.021 0.028,-0.041 0.041,-0.06l-0.069,-0.075Zm-40.392,-0.12l-0.836,-1.061l0.608,-1.516c-0.026,0.833 0.05,1.693 0.228,2.577Zm42.624,-3.765c-0.075,0.246 -0.168,0.523 -0.278,0.829c-0.115,0.316 -0.241,0.6 -0.38,0.853c-0.139,0.253 -0.133,0.695 0.019,1.326c0.431,-0.581 1.139,-1.314 2.127,-2.198c0.178,-1.466 0.127,-2.198 -0.151,-2.198c-0.279,0 -0.469,0.271 -0.57,0.815c-0.09,0.477 -0.149,0.481 -0.18,0.012c-0.066,0.194 -0.121,0.35 -0.155,0.44l-0.058,0.16l-0.374,-0.039Zm-1.481,-0.155l-0.386,-0.041c-0.23,0.526 -0.479,1.044 -0.747,1.551c0.043,0.034 0.087,0.067 0.132,0.1c0.444,0.328 0.881,0.721 1.311,1.175c-0.062,-0.904 -0.165,-1.832 -0.31,-2.785Zm-13.738,-6.598l-0.063,0.048l0.029,0.095l6.054,9.104c1.846,-2.074 3.141,-4.537 3.813,-7.168c-0.087,-0.217 -0.147,-0.42 -0.169,-0.6c-0.052,-0.449 0.158,-0.7 0.458,-0.759c0.244,-1.435 0.306,-2.907 0.175,-4.383l-10.297,3.663Zm12.668,7.007c-0.043,-0.118 -0.065,-0.236 -0.065,-0.354c0.178,-0.985 0.24,-1.554 0.19,-1.705l-0.151,-0.152l0.151,-0.151c0.101,-0.734 0.089,-1.441 -0.038,-2.123c-0.126,-0.682 -0.291,-1.169 -0.494,-1.459c-0.202,-0.291 -0.62,-0.095 -1.254,0.587c-0.176,-0.149 -0.327,-0.247 -0.453,-0.295c-0.052,0.258 -0.11,0.514 -0.174,0.768c0.029,0.066 0.061,0.135 0.096,0.209c0.304,0.429 0.621,0.948 0.951,1.553c0.177,0.381 0.328,0.759 0.455,1.138c0.126,0.379 0.126,0.783 0,1.213c-0.735,-0.556 -1.203,-0.689 -1.406,-0.398c-0.203,0.29 -0.234,0.587 -0.095,0.89c0.14,0.303 0.298,0.568 0.475,0.796c-0.228,0.456 -0.025,0.961 0.609,1.516c0.074,0.06 0.145,0.119 0.213,0.174l-0.125,-0.135l0.084,-0.14c0.176,-0.294 0.346,-0.594 0.509,-0.899c-0.294,-0.298 -0.534,-0.571 -0.719,-0.818c-0.178,-0.227 -0.127,-0.252 0.152,-0.075c0.204,0.236 0.432,0.462 0.681,0.678c0.141,-0.269 0.277,-0.542 0.408,-0.818Zm-26.361,-7.053l-10.266,-3.813c-0.095,0.967 -0.107,1.934 -0.039,2.891c0.513,-0.183 1.013,-0.18 1.077,-0.112c0.126,0.101 0.126,0.315 0,0.644l-0.228,0.455c0.101,-0.075 0.209,-0.107 0.323,-0.095c0.114,0.013 0.209,0.221 0.285,0.626c0.091,0.554 -0.09,2.063 -0.369,3.392c0.712,1.865 1.75,3.613 3.087,5.155l6.187,-9.008l0.022,-0.075l-0.079,-0.06Zm27.704,6.672c0.164,0.652 0.265,1.129 0.304,1.431c0.151,-0.229 0.284,-0.456 0.399,-0.684c0.093,-0.187 0.2,-0.4 0.319,-0.639l-1.022,-0.108Zm-44.959,-10.321c-0.206,0.436 -0.381,0.841 -0.523,1.212c-0.405,1.061 -0.62,1.857 -0.645,2.388c0.405,2.021 0.734,3.158 0.987,3.411c0.33,0.304 0.393,0.632 0.19,0.986c-0.075,0.227 -0.012,0.676 0.191,1.344c0.202,0.67 0.332,1.182 0.56,1.537c0.12,-0.574 0.281,-1.131 0.477,-1.672c-0.211,-0.646 -0.437,-1.354 -0.511,-1.601l-0.049,-0.166l1.958,-1.111c-0.209,-1.001 -0.349,-1.899 -0.426,-2.737l-2.207,-0.453l-0.005,-0.172c-0.017,-0.47 -0.017,-2.407 0,-2.877l0.003,-0.089Zm45.521,4.087c-0.021,-0.224 -0.045,-0.399 -0.069,-0.523c-0.051,-0.253 -0.134,-0.492 -0.247,-0.72c-0.114,-0.227 -0.223,-0.378 -0.324,-0.455c-0.101,-0.075 -0.228,0.007 -0.379,0.247c-0.153,0.239 -0.267,0.271 -0.343,0.095c-0.076,-0.177 -0.24,-0.342 -0.493,-0.493c-0.253,-0.152 -0.5,-0.045 -0.741,0.322c-0.241,0.366 -0.475,1.093 -0.703,2.179c0.506,-0.58 0.898,-0.858 1.178,-0.833c0.278,0.025 0.43,0.132 0.455,0.322c0.026,0.189 0.096,0.455 0.21,0.795c0.114,0.342 0.177,0.841 0.19,1.498c0.012,0.656 0.038,1.055 0.076,1.193c0.037,0.14 0.025,0.278 -0.038,0.417c-0.064,0.139 -0.101,0.246 -0.328,0.322c0.202,0.025 0.194,0.071 0.194,0.133c0,0.064 -0.069,0.328 -0.208,0.796c-0.14,0.467 -0.222,0.764 -0.248,0.89c-0.012,0.072 -0.015,0.16 -0.01,0.266c0.093,-0.2 0.183,-0.402 0.27,-0.605l0.065,-0.148l0.587,0.062c-0.012,-0.073 -0.024,-0.146 -0.036,-0.219c-0.102,-0.732 -0.038,-0.744 0.19,-0.037c0.025,0.096 0.05,0.189 0.074,0.28l1.369,0.144c0.029,-0.043 0.051,-0.07 0.066,-0.081c0.097,-0.277 0.233,-0.682 0.366,-1.088c-0.047,-0.162 -0.109,-0.256 -0.186,-0.279c-0.164,-0.051 -0.355,0.019 -0.57,0.209c-0.216,0.188 -0.399,0.29 -0.551,0.303c-0.153,0.012 -0.254,-0.638 -0.304,-1.952c0,-0.201 0.038,-0.383 0.114,-0.547l-0.056,-0.032l0.035,-0.157c0.179,-0.811 0.309,-1.571 0.395,-2.304Zm-38.474,2.292l-0.009,0.026c0.101,0.48 0.165,1.415 0.19,2.806c0.119,-0.47 0.225,-0.918 0.317,-1.344c-0.188,-0.489 -0.354,-0.985 -0.498,-1.488Zm41.195,-5.65c0.011,0.769 0.005,1.899 -0.019,2.244l-0.012,0.165l-2.2,0.452c-0.013,0.144 -0.027,0.288 -0.044,0.434c0.135,0.877 0.15,1.708 -0.049,2.063c-0.06,0.107 -0.134,0.218 -0.203,0.316l1.8,1.03l-0.035,0.157c-0.042,0.186 -0.159,0.575 -0.297,1.006c0.166,-0.089 0.459,-0.051 0.466,-0.023c0,0.001 0,0.002 0,0.003c0.001,-0.001 0.001,-0.002 0,-0.003c0.16,-0.694 0.337,-1.398 1.413,-0.88c0.308,-1.018 0.528,-2.137 0.659,-3.356c0.002,-0.03 -0.012,-0.561 0.109,-1.177c-0.358,-0.954 -1.353,-2.008 -1.347,-2.059c-0.082,-0.124 -0.162,-0.248 -0.241,-0.372Zm-45.994,6.319l-1.052,0.596c0.07,0.228 0.177,0.566 0.293,0.924c0.222,-0.524 0.477,-1.031 0.759,-1.52Zm43.219,-0.285c-0.109,0.3 -0.072,0.945 -0.062,1.14c0.023,0.3 0.085,0.7 0.156,0.647c0.208,-0.159 0.546,-0.396 0.554,-0.401c0.185,-0.131 0.498,-0.058 0.718,0.108c0.075,-0.239 0.14,-0.454 0.182,-0.608l-1.548,-0.886Zm4.966,-3.792c0.152,-0.05 0.494,-0.008 0.823,-0.008c-0.354,1.92 -0.763,4.024 -1.093,5.337l-0.532,-0.303c0.457,-1.819 0.702,-3.863 0.802,-5.026Zm3.799,2.418c-0.305,0.132 -0.534,0.27 -0.687,0.401c0.431,0.556 0.634,1.142 0.608,1.748l0.418,0.761c0.431,-0.126 0.722,-0.271 0.874,-0.434c0.152,-0.166 0.209,-0.374 0.171,-0.627c-0.038,-0.252 -0.336,-0.428 -0.894,-0.531c0.608,-0.378 1.013,-0.997 1.217,-1.856c-0.026,-0.379 -0.28,-0.569 -0.761,-0.569c0.229,-0.455 0.355,-0.865 0.38,-1.231c0.026,-0.367 -0.076,-0.739 -0.304,-1.118c-0.43,-0.304 -0.949,-0.214 -1.558,0.266c-0.43,-0.202 -0.937,-0.012 -1.519,0.569c-0.329,1.34 -0.596,2.617 -0.798,3.83c0.33,0.177 0.773,-0.161 1.33,-1.021c-0.152,-0.252 -0.266,-0.663 -0.342,-1.244c0.051,-0.455 0.127,-0.43 0.228,0.05c0.076,0.404 0.19,0.707 0.342,0.858c0.329,-0.682 0.709,-1.278 1.14,-1.884c0.279,-0.354 0.355,-0.305 0.228,0.024c-0.506,0.732 -0.874,1.51 -1.101,2.47l0.075,0c0.228,0 0.545,-0.386 0.951,-0.462c0,0 0.001,0 0.002,0c0.048,-0.021 0.098,-0.042 0.149,-0.062c0.278,-0.127 0.228,0.011 -0.149,0.062Zm-46.482,1.436c0.122,-0.686 0.201,-1.306 0.238,-1.86c0.051,-0.783 -0.114,-0.985 -0.494,-0.607l-0.285,0.36c0.032,0.168 0.067,0.336 0.104,0.503c0.062,-0.06 0.084,0.019 0.067,0.237l-0.008,0.021c0.108,0.454 0.234,0.903 0.378,1.346Zm29.062,-24.96l-1.425,1.319l-0.14,-0.083c-0.879,-0.522 -1.796,-0.985 -2.725,-1.375l-0.15,-0.064l0.251,-2.204c-0.537,-0.2 -1.825,-0.614 -2.391,-0.774l-1.088,1.937l-0.161,-0.038c-1.027,-0.244 -2.008,-0.4 -3.003,-0.481l-0.163,-0.013l-0.452,-2.171c-0.271,-0.01 -0.732,-0.016 -1.255,-0.016c-0.522,0 -0.983,0.006 -1.253,0.016l-0.435,2.17l-0.164,0.013c-1.074,0.09 -2.084,0.251 -3.001,0.48l-0.161,0.04l-1.121,-1.938c-0.553,0.16 -1.83,0.574 -2.376,0.775l0.25,2.203l-0.151,0.064c-0.914,0.381 -1.825,0.843 -2.706,1.374l-0.139,0.084l-1.655,-1.5c-0.198,0.136 -0.502,0.354 -0.824,0.586c-0.756,1.45 -1.721,3.102 -1.814,3.13c0.502,3.062 -3.811,9.125 -5.818,10.889l0.388,0.217l-0.035,0.158c-0.236,1.07 -0.388,2.051 -0.465,2.999l-0.013,0.163l-2.188,0.45c-0.011,0.579 -0.011,1.924 0,2.504l2.188,0.449l0.013,0.163c0.064,0.766 0.183,1.585 0.361,2.489c0.22,-0.316 0.451,-0.624 0.69,-0.923l0.305,-0.279c0.378,-1.744 0.851,-3.151 1.914,-3.794c0.006,-0.003 0.171,-0.128 0.224,-0.012c0.064,0.14 0.153,0.378 0.24,0.655c0,-0.698 0.04,-1.398 0.123,-2.098l0.041,-0.342l9.24,3.432l-7.894,-5.997l-0.582,-0.442l0.732,-0.018l10.053,-0.243l-9.53,-2.805l0.172,-0.298c2.567,-4.446 6.92,-7.561 11.942,-8.547l0.338,-0.066l-0.421,9.814l3.28,-9.337l0.242,-0.689l0.244,0.687l3.35,9.47l-0.283,-9.915l0.336,0.071c5.043,1.058 9.364,4.229 11.857,8.7l0.167,0.3l-9.487,2.632l9.911,0.225l0.731,0.017l-0.58,0.443l-7.988,6.098l9.354,-3.327l0.037,0.341c0.178,1.633 0.126,3.264 -0.142,4.852c0.106,0.045 0.211,0.106 0.311,0.186c-0.099,-1.479 0.79,-3.071 1.621,-2.875c0.296,0.071 0.695,0.217 0.726,0.464c0.108,-0.435 0.675,-0.467 0.763,-0.433c0.216,0.085 0.462,0.264 0.581,0.638c0.072,0.226 0.138,0.47 0.197,0.722l1.99,-0.408c0.022,-0.575 0.022,-1.926 0,-2.501l-2.192,-0.434l-0.014,-0.164c-0.089,-1.07 -0.251,-2.078 -0.48,-2.994l-0.04,-0.16l0.888,-0.505c-0.004,-0.013 -0.008,-0.026 -0.012,-0.039c-0.6,-0.013 -0.86,-0.555 -1.105,-0.877c-0.46,-0.602 -0.782,-1.206 -0.894,-1.321c-0.574,-0.583 -1.725,-1.25 -1.976,-1.371c-1.001,-0.214 -1.121,-1.47 -0.769,-1.72c0.15,-0.107 0.433,-0.25 0.512,-0.241c-0.162,-0.36 -1.187,-1.406 -0.715,-2.136c0.131,-0.201 0.494,-0.453 0.578,-0.412c-0.153,-0.189 -0.229,-0.443 -0.253,-0.715l-0.806,0.375l-0.108,-0.124c-0.669,-0.766 -1.375,-1.471 -2.16,-2.154l-0.123,-0.107l0.92,-2.017c-0.343,-0.267 -1.044,-0.786 -1.579,-1.165c-0.132,-0.013 -0.263,-0.027 -0.391,-0.042c-0.108,-0.021 -0.195,-0.052 -0.265,-0.09Zm-29.707,22.248l0.503,-0.74c0.202,-0.378 0.139,-0.53 -0.19,-0.454c-0.14,0.062 -0.284,0.138 -0.433,0.228c0.031,0.323 0.071,0.645 0.12,0.966Zm-9.377,-1.459c-0.203,0.125 -0.392,0.137 -0.569,0.037c-0.329,-0.127 -0.62,-0.588 -0.874,-1.384c-0.253,-0.796 -0.354,-2.091 -0.303,-3.884c0.252,-5.13 1.152,-9.008 2.697,-11.636c0.355,-0.505 0.368,-0.391 0.038,0.341c-0.684,1.415 -1.247,3.784 -1.69,7.107c-0.444,3.322 -0.564,5.502 -0.361,6.538c0.455,-2.148 0.873,-3.891 1.253,-5.231c0.203,-1.138 0.798,-3.348 1.786,-6.633c0.38,-1.163 0.627,-2.218 0.741,-3.165c0.114,-0.948 0.12,-1.927 0.019,-2.937c-0.101,-0.253 -0.367,-0.139 -0.798,0.341c-1.951,2.274 -3.242,4.674 -3.876,7.201c-0.43,1.82 -0.709,3.69 -0.836,5.61c-0.05,1.617 0.057,3.007 0.323,4.169c0.266,1.163 0.551,2.103 0.855,2.823c0.303,0.717 0.801,1.231 1.48,1.535c-0.025,-0.147 0.086,-0.794 0.115,-0.832c0.001,0 0.002,-0.001 0.003,-0.001c-0.001,0 -0.002,0 -0.003,0.001Zm4.564,-6.618c1.464,-1.368 2.974,-3.479 4.528,-6.336c-0.039,-0.021 -0.003,-0.036 0.025,-0.047c0.431,-0.858 0.734,-1.68 0.911,-2.463c0.177,-0.783 0.174,-1.301 -0.004,-1.554c-0.683,0.076 -1.476,0.632 -2.363,1.668c-1.494,2.072 -2.674,3.916 -3.51,5.533l-1.55,3.601l-1.334,3.411c-0.354,0.935 -0.241,1.92 -1.203,2.956l0,0.607c0.962,-1.239 1.014,-2.098 1.166,-2.578c0.151,-0.48 0.635,-1.15 1.117,-2.009c0.47,-0.841 0.977,-1.742 1.473,-2.704l0,0l0.001,0c0.01,-0.021 0.021,-0.042 0.032,-0.062c0.506,-0.986 2.051,-3.399 4.609,-7.239c0.304,-0.253 0.221,0.05 -0.26,0.909l-1.251,2.274l-2.497,4.044l0.108,-0.012l0.002,0.001Zm44.524,0c-0.1,0.472 -0.049,0.935 0.156,1.387c0.228,0.505 0.589,1.162 1.083,1.971c0.493,0.808 0.874,1.408 1.139,1.8c0.266,0.392 0.653,0.941 1.158,1.648l0.95,-0.038l0.152,-1.82c0.684,-0.227 1.038,-0.581 1.064,-1.061c0.025,-1.895 -0.089,-3.195 -0.342,-3.903c-0.887,-1.137 -1.735,-1.997 -2.546,-2.578c-0.354,-0.353 -0.329,-0.404 0.076,-0.151c0.937,0.606 1.697,1.2 2.28,1.781l-0.571,-2.312c-0.734,-0.631 -1.38,-1.364 -1.937,-2.198c-0.278,-0.404 -0.266,-0.454 0.038,-0.151c0.684,0.834 1.266,1.389 1.748,1.668c-0.279,-0.834 -0.57,-1.694 -0.874,-2.578c-0.937,-1.086 -1.748,-1.844 -2.432,-2.274c-0.481,-0.353 -0.481,-0.442 0,-0.265c0.381,0.101 1.051,0.555 2.015,1.364c-0.33,-0.859 -0.659,-1.693 -0.989,-2.502c-0.405,-0.555 -0.886,-1.073 -1.444,-1.553c-0.202,-0.228 -0.139,-0.24 0.19,-0.038c0.33,0.202 0.685,0.518 1.064,0.947l-0.493,-1.591c-0.05,-0.405 0.013,-0.405 0.19,0l0.532,1.212l0.835,2.123c0.127,-0.38 0.191,-0.835 0.191,-1.365c0.101,-0.657 0.164,-0.631 0.19,0.076c0.025,0.707 -0.025,1.327 -0.152,1.857c0.38,0.935 0.734,1.933 1.064,2.994c0.405,-0.531 0.684,-1.276 0.836,-2.236c0.126,-0.682 0.177,-0.619 0.152,0.189c-0.102,0.961 -0.343,1.757 -0.723,2.388c0.33,1.34 0.635,2.477 0.913,3.411c0.278,-0.176 0.557,-0.643 0.836,-1.402c0.253,-0.378 0.29,-0.315 0.113,0.19c-0.354,1.011 -0.633,1.605 -0.836,1.781c0.228,0.986 0.386,1.876 0.475,2.672c0.088,0.796 0.108,1.56 0.058,2.293c0.177,-0.101 0.278,-0.442 0.303,-1.023c0,-0.278 0.083,-0.645 0.248,-1.1c0.164,-0.455 0.424,-1.011 0.778,-1.667c0.329,-0.607 0.316,-0.884 -0.038,-0.834l-0.684,0.19c-0.228,0 -0.342,-0.114 -0.342,-0.341c0.051,-0.455 0.248,-0.846 0.59,-1.175c0.341,-0.329 0.512,-0.631 0.512,-0.91c0.051,-0.227 -0.088,-0.694 -0.418,-1.402c-0.506,0.152 -0.842,0.341 -1.007,0.569c-0.164,0.227 -0.253,0.234 -0.266,0.019c-0.012,-0.215 0.102,-0.525 0.342,-0.929c0.24,-0.404 0.317,-0.84 0.228,-1.308c-0.089,-0.467 -0.335,-1.118 -0.741,-1.951c0.278,-1.188 -0.051,-1.529 -0.988,-1.024c0.101,-0.985 -0.076,-1.832 -0.531,-2.539c-0.38,-0.783 -0.772,-0.948 -1.178,-0.493c-0.836,-1.163 -1.444,-1.832 -1.824,-2.009c-0.38,-0.176 -0.608,-0.151 -0.683,0.076c-0.076,0.228 -0.204,0.518 -0.381,0.872c-0.177,0.329 -0.177,0.884 0,1.668c-0.557,0.151 -0.785,0.429 -0.683,0.834l0.379,1.175c0.304,0.379 0.5,0.77 0.589,1.175c0.089,0.404 0.045,0.821 -0.133,1.25c0.785,-0.455 1.318,-0.48 1.596,-0.075c0.101,0.379 0.126,0.707 0.076,0.985c-0.051,0.278 -0.063,0.809 -0.038,1.592c-0.025,0.176 0.19,0.334 0.647,0.474c0.455,0.138 0.594,0.385 0.417,0.739c-0.101,0.126 -0.323,0.069 -0.665,-0.171c-0.341,-0.24 -0.576,-0.246 -0.703,-0.019c-0.33,0.454 -0.075,0.972 0.76,1.554c1.621,1.061 2.292,1.667 2.014,1.819c-0.481,0.101 -0.646,0.366 -0.494,0.795c0.076,0.254 0.381,0.531 0.912,0.835c0.507,0.353 0.697,0.858 0.571,1.516c-0.076,0.707 -0.343,1.124 -0.798,1.25c-0.152,-0.707 -0.216,-1.168 -0.19,-1.383c0.025,-0.215 -0.14,-0.404 -0.494,-0.568c-0.355,-0.164 -0.824,-1.308 -1.406,-3.43l-0.798,-0.038c0.734,2.476 1.203,3.739 1.406,3.79c0.203,0.051 0.405,0.316 0.608,0.796c0.05,0.379 0.056,0.91 0.019,1.592c-0.038,0.682 0.196,1.011 0.703,0.985l-0.342,0.417c-0.279,-0.075 -0.507,-0.239 -0.684,-0.492c-0.229,-0.353 -0.349,-0.714 -0.361,-1.08c-0.013,-0.367 -0.019,-0.746 -0.019,-1.138c0,-0.391 -0.19,-0.505 -0.57,-0.341c-0.38,0.165 -0.627,0.19 -0.742,0.076c-0.114,-0.113 -0.182,-0.253 -0.208,-0.417c-0.025,-0.164 0.076,-0.511 0.304,-1.042c0.051,-0.379 0.031,-0.645 -0.057,-0.796c-0.089,-0.151 -0.323,-0.202 -0.703,-0.151c-0.38,0.05 -0.507,-0.317 -0.38,-1.1l0.06,-0.215l-0.672,0.382Zm-49.581,5.897l-0.151,-0.303c-0.152,-0.228 0.113,-1.706 0.798,-4.435c-0.254,2.022 -0.469,3.601 -0.647,4.738Zm1.597,-3.411l0.265,-1.099l0.228,-1.1l0.608,-0.114l-0.76,2.047l-0.532,1.781l0.191,-1.515Zm3.54,-1.94c-0.143,0.099 -0.266,0.163 -0.363,0.187c-0.121,0.03 -0.514,0.456 -0.562,0.522c-0.556,0.949 -1.029,1.831 -1.404,2.618l2.165,-0.445c0.078,-0.87 0.218,-1.768 0.425,-2.736l-0.261,-0.146Zm43.725,-0.138l-0.525,0.298c0.204,0.848 0.351,1.767 0.439,2.738l1.67,0.33c-0.641,-1.097 -1.185,-2.215 -1.584,-3.366Zm-17.812,-0.726l0.026,0.073l0.101,0.002l10.546,-2.926c-2.381,-4.076 -6.354,-6.991 -10.985,-8.059l0.312,10.91Zm-8.326,-0.04l0.468,-10.907c-4.613,1.002 -8.614,3.865 -11.062,7.919l10.484,3.086l0.077,-0.002l0.033,-0.096Zm26.002,-2.604c-0.089,0.296 -0.145,0.57 -0.167,0.824l0.65,1.848l0.246,-0.14c0.062,-0.177 0.135,-0.357 0.218,-0.538c-0.193,-0.634 -0.501,-1.586 -0.659,-2.029l-0.288,0.035Zm1.546,2.513l0.376,-1.348c0.147,-0.805 -0.155,-0.939 -0.906,-0.401c0.073,0.225 0.148,0.458 0.217,0.678c0.002,-0.004 0.004,-0.008 0.006,-0.011c0.127,-0.177 0.139,-0.126 0.038,0.151l0,0.001c0.11,0.354 0.2,0.659 0.241,0.819l0.028,0.111Zm-0.506,-0.206c-0.006,0.019 -0.012,0.039 -0.018,0.059l0.03,-0.017c-0.004,-0.014 -0.008,-0.028 -0.012,-0.042Zm-2.035,-2.188l-0.901,0.108c0.282,0.247 0.491,0.497 0.627,0.75c0.456,0.834 0.823,1.251 1.102,1.251l-0.76,-2.009c-0.021,-0.033 -0.043,-0.066 -0.068,-0.1Zm-43.323,-1.114c-0.532,0.986 -0.938,1.87 -1.216,2.653l-0.304,-0.038l0.798,-2.463l0.722,-0.152Zm-2.964,2.312c0.178,-1.137 0.418,-2.173 0.722,-3.108l0.304,0.38l-1.026,2.728Zm48.256,-0.683c0.134,-0.584 0.362,-1.013 0.683,-1.288c0.354,-0.303 0.5,-0.669 0.437,-1.099c-0.064,-0.43 -0.064,-0.84 0,-1.232c0.063,-0.391 0.006,-0.65 -0.172,-0.776c-0.531,-0.051 -1.228,0.492 -2.089,1.629l0.418,-1.061c0.43,-1.288 0.519,-2.173 0.266,-2.653c-0.253,-0.328 -0.519,-0.556 -0.798,-0.682c-0.203,0.076 -0.469,0.341 -0.798,0.796c-0.329,0.378 -0.532,0.455 -0.607,0.227l0.189,-1.175c-0.025,-0.505 -0.234,-0.852 -0.626,-1.042c-0.394,-0.189 -0.831,-0.422 -1.311,-0.701c-0.076,0.304 -0.191,0.607 -0.343,0.91c-0.162,0.292 -0.268,0.589 -0.315,0.892l0.775,-0.361l0.108,0.125c0.083,0.096 0.224,0.277 0.392,0.499l0.066,0.019c0.014,0.041 0.027,0.082 0.041,0.124c0.453,0.608 1.037,1.426 1.215,1.711l0.088,0.141l-0.587,0.637c0.089,0.341 0.179,0.695 0.269,1.063c0.178,-0.656 0.469,-1.364 0.874,-2.122c0.482,-0.758 0.558,-0.784 0.229,-0.076c-0.634,1.339 -0.938,2.249 -0.912,2.729l0.801,1.78l0.647,-0.078c0.271,-0.725 0.675,-1.444 1.211,-2.157c0.304,-0.379 0.329,-0.341 0.076,0.114c-0.466,0.746 -0.814,1.418 -1.043,2.014l0.418,-0.05l0.061,0.158c0.066,0.171 0.196,0.553 0.337,0.985Zm-1.213,-0.605l-0.306,0.036l0.188,0.418c0.034,-0.152 0.073,-0.303 0.118,-0.454Zm-3.88,-6.155c0,0.005 0,0.01 0,0.015c-0.101,0.278 0.013,0.67 0.342,1.175c-0.887,0.001 -1.127,0.417 -0.721,1.251l0.303,0.454c0.202,0.253 0.38,0.594 0.533,1.024c-0.533,-0.051 -0.824,0.063 -0.874,0.341c-0.026,0.405 0.114,0.67 0.417,0.796c0.936,0.404 1.655,0.818 2.159,1.242l-0.039,-0.093c-0.142,-0.345 -0.296,-0.69 -0.462,-1.034c-0.298,-0.151 -0.635,-0.303 -1.011,-0.456c-0.406,-0.177 -0.406,-0.227 0,-0.152c0.327,0.13 0.625,0.254 0.895,0.374c-0.243,-0.486 -0.51,-0.97 -0.799,-1.447l-0.085,-0.14l0.433,-0.47c-0.194,-0.134 -0.406,-0.267 -0.634,-0.401c-0.331,-0.253 -0.331,-0.291 0,-0.114c0.259,0.118 0.507,0.251 0.743,0.397l0.5,-0.543c-0.145,-0.525 -0.271,-1.089 -0.378,-1.693c-0.245,-0.335 -0.482,-0.65 -0.637,-0.845l-0.685,0.319Zm2.31,5.541c0.052,0.114 0.101,0.229 0.15,0.344l0.28,-0.034c-0.124,-0.103 -0.267,-0.206 -0.43,-0.31Zm-0.865,-2.402l-0.245,0.266c0.358,0.602 0.683,1.214 0.97,1.829c0.327,0.165 0.592,0.321 0.794,0.467c-0.253,-0.582 -0.532,-1.226 -0.836,-1.933c-0.185,-0.21 -0.413,-0.42 -0.683,-0.629Zm-33.361,-11.614c0.405,-0.228 0.684,-0.317 0.836,-0.266c0.101,0.253 0.127,0.6 0.076,1.043c-0.051,0.442 -0.38,1.371 -0.988,2.785l-1.406,2.73c-0.988,0.126 -1.925,0.581 -2.812,1.364c0.457,-0.783 1.008,-1.68 1.653,-2.691c0.647,-1.01 1.653,-2.526 3.021,-4.548c0.228,-0.379 0.235,-0.473 0.02,-0.284c-0.216,0.19 -0.793,0.916 -1.729,2.18c-0.938,1.263 -2.191,3.222 -3.762,5.874c-0.431,0.657 -1.463,2.24 -3.167,4.847l0.208,-0.588l2.283,-4.031l2.196,-4.094c1.038,-1.845 2.229,-3.285 3.571,-4.321Zm33.759,11.182l-0.276,0.299c0.182,0.131 0.356,0.271 0.523,0.42c-0.087,-0.23 -0.169,-0.47 -0.247,-0.719Zm-43.068,-1.897c1.013,-1.642 2.229,-3.967 3.648,-6.974c0.43,-0.884 1.063,-1.882 1.9,-2.993c0.253,-0.582 0.114,-0.57 -0.419,0.038c-1.241,1.541 -2.685,3.979 -4.331,7.314l0.722,-1.819c0.127,-0.404 0.532,-1.32 1.216,-2.748c0.684,-1.427 1.355,-2.558 2.014,-3.392c0.658,-0.834 1.114,-1.377 1.368,-1.63c0.912,-0.783 1.443,-1.149 1.595,-1.099c0.127,0.101 0.165,0.265 0.115,0.492l-1.862,4.776c-1.216,2.35 -2.812,4.801 -4.788,7.352c-0.836,0.91 -1.355,1.491 -1.558,1.744c-0.202,0.253 -0.367,0.493 -0.494,0.72l0.152,-0.644l0.722,-1.137Zm43.017,0.368c0.066,0.233 0.133,0.474 0.2,0.723l0.172,-0.186c-0.093,-0.139 -0.224,-0.328 -0.372,-0.537Zm-4.127,-4.922l-0.848,1.861c0.709,0.625 1.356,1.27 1.97,1.964l0.7,-0.326c0.027,-0.265 0.089,-0.522 0.165,-0.731c0.164,-0.452 0.344,-0.945 0.386,-0.992c-0.655,-0.277 -1.43,-0.717 -1.842,-1.164c-0.22,-0.239 -0.397,-0.441 -0.531,-0.612Zm0.436,-0.903c-0.026,-0.304 0.24,-0.474 0.797,-0.512c0.557,-0.038 0.646,-0.196 0.267,-0.474c-0.735,-0.253 -1.343,-0.682 -1.824,-1.288c-0.329,-0.43 -0.329,-0.733 0,-0.91l0.57,-0.151l0.266,-0.342l-0.342,-1.326c-0.101,-0.682 0.089,-1.162 0.57,-1.44c0.684,-0.101 1.355,0.101 2.014,0.606c0.025,-0.353 0.26,-0.46 0.704,-0.322c0.442,0.14 0.854,1.08 1.233,2.824l0.609,0.227c0.202,-0.48 0.367,-0.72 0.494,-0.72c0.202,0 0.405,0.417 0.608,1.251c0.507,0.455 0.747,1.2 0.722,2.236c-0.329,0.43 -0.507,0.96 -0.531,1.592l-0.305,-0.682c-0.177,-0.758 -0.253,-1.554 -0.228,-2.388c-0.026,-0.353 -0.064,-0.353 -0.114,0c-0.076,0.733 -0.089,1.352 -0.038,1.857c-0.684,-0.884 -1.419,-1.68 -2.204,-2.388c-0.152,-0.556 -0.203,-1.187 -0.152,-1.895c-0.076,-0.606 -0.139,-0.745 -0.19,-0.417c-0.05,0.758 -0.025,1.465 0.076,2.123c-0.583,-0.581 -1.266,-1.428 -2.052,-2.54c-0.202,-0.353 -0.291,-0.429 -0.266,-0.227c0.481,0.909 0.988,1.667 1.52,2.274c0.532,0.606 0.962,1.086 1.292,1.44c-0.659,-0.202 -1.229,-0.335 -1.71,-0.398c-0.482,-0.063 -0.925,-0.196 -1.33,-0.398c-0.38,-0.076 -0.367,0.012 0.037,0.265c0.229,0.151 0.692,0.291 1.388,0.417c0.696,0.127 1.348,0.341 1.957,0.644c0.329,0.202 0.772,0.72 1.329,1.554l0.456,1.024c-0.709,-0.379 -1.494,-0.645 -2.356,-0.796c-0.86,-0.152 -1.367,-0.291 -1.519,-0.417c-0.658,-0.278 -0.734,-0.253 -0.228,0.076c0.152,0.151 0.69,0.322 1.615,0.511c0.925,0.19 1.817,0.55 2.678,1.08l0.076,0.227c-0.178,0.203 -0.241,0.481 -0.191,0.834l0.267,0.758c-0.228,-0.278 -0.545,-0.151 -0.95,0.38c0.151,-0.329 0.113,-0.632 -0.114,-0.91c-0.355,-0.53 -1.216,-1.099 -2.584,-1.705l-0.228,0.417c-1.114,-0.355 -1.811,-1.011 -2.089,-1.971Zm-31.383,3.098c-0.001,-0.009 -0.003,-0.018 -0.004,-0.027c-0.005,0.021 -0.003,0.03 0.004,0.027Zm29.743,-3.338c0.331,0.242 0.658,0.486 0.891,0.664c-0.109,-0.21 -0.207,-0.481 -0.222,-0.653c-0.221,0.004 -0.445,0 -0.669,-0.011Zm-0.77,-0.551c0.21,0.076 0.651,0.087 1.612,0.069c0.076,-0.176 0.221,-0.27 0.398,-0.321c-0.377,-0.277 -0.697,-0.582 -0.937,-0.927c-0.177,-0.403 -0.311,-1.074 -0.26,-1.479c-0.405,0.127 -0.76,0.152 -1.064,0.076c-0.304,-0.025 -0.342,-0.089 -0.114,-0.189c0.659,0.05 1.267,-0.152 1.824,-0.607c-0.328,-0.455 -0.709,-0.897 -1.14,-1.327c-0.431,-0.429 -0.304,-0.466 0.38,-0.113c0.355,0.253 0.659,0.556 0.912,0.91c-0.076,-0.582 -0.076,-1.075 0,-1.479c0.127,-0.632 0.558,-0.947 1.292,-0.947c-0.683,-0.38 -1.266,-0.102 -1.747,0.833c-1.09,-0.606 -1.774,-0.606 -2.053,0c0.025,0.758 0.184,1.225 0.476,1.402c0.291,0.177 0.284,0.443 -0.02,0.796l-0.684,0.266c0.04,1.021 0.801,1.468 1.625,1.843l-0.256,0.431c-0.5,0.284 -0.47,0.438 -0.417,0.606c0.008,0.021 0.018,0.041 0.031,0.059c0.045,0.031 0.092,0.063 0.142,0.098Zm-16.652,-8.154c0,0.48 -0.24,1.01 -0.823,1.592c-0.887,0.808 -1.946,1.554 -3.276,2.236c-1.33,0.683 -3.111,1.49 -5.035,2.425l0,-0.227c2.406,-1.92 4.826,-3.486 7.03,-4.7c0.583,-0.354 0.356,-0.454 -0.328,-0.303c-0.761,0.379 -1.583,0.847 -2.495,1.402c-1.52,0.986 -2.995,1.959 -4.439,2.919l0.041,-0.455c2.888,-2.527 5.258,-4.156 7.107,-4.89c0.912,-0.201 1.686,-0.201 2.218,0.001Zm-8.618,0.91c1.38,-1.138 3.033,-2.022 4.958,-2.654c0.938,-0.252 1.748,-0.366 2.432,-0.341c0.329,0.076 0.418,0.265 0.266,0.569l-0.836,1.099c-0.735,0.101 -1.742,0.518 -3.021,1.251c-1.279,0.733 -2.653,1.706 -4.122,2.918l-0.532,0.341c-0.278,-0.202 -0.785,-0.113 -1.519,0.265c2.33,-1.945 4.356,-3.423 6.079,-4.434c1.115,-0.556 1.76,-0.947 1.938,-1.175c-0.558,0.152 -1.343,0.5 -2.356,1.043c-1.013,0.543 -2.685,1.673 -5.016,3.391l-2.242,2.009c1.266,-1.718 2.59,-3.145 3.971,-4.282Zm22.55,3.259l0.076,-0.871l-0.722,0.151c-0.684,0.228 -1.368,0.025 -2.051,-0.606c-0.457,0.075 -0.647,-0.101 -0.571,-0.531c0.177,-0.379 0.127,-0.581 -0.151,-0.606l-1.102,0.114c-0.71,-0.101 -1.178,-0.304 -1.406,-0.607c-0.153,-0.253 -0.051,-0.568 0.304,-0.947c-0.684,-0.279 -1.109,-0.581 -1.273,-0.91c-0.165,-0.329 -0.064,-0.593 0.304,-0.796c0.367,-0.202 1.045,-0.24 2.033,-0.113c-0.228,-0.279 -0.292,-0.569 -0.19,-0.872c0.025,-0.303 0.683,-0.139 1.975,0.492l0.76,0.456c0.203,-0.38 0.544,-0.493 1.026,-0.342c0.582,0.278 1.128,0.613 1.634,1.004c0.507,0.392 1.076,0.954 1.71,1.687c0.532,-0.354 0.912,-0.278 1.139,0.227l0.114,0.91c-0.557,-0.531 -1.241,-0.569 -2.052,-0.114l-0.531,-0.227c-0.734,-0.884 -1.178,-1.554 -1.331,-2.009c-0.151,-0.581 -0.227,-0.632 -0.227,-0.152c0.025,0.506 0.329,1.151 0.912,1.933c-1.114,-0.353 -1.932,-0.808 -2.451,-1.364c-0.519,-0.556 -0.919,-1.023 -1.197,-1.402c-0.278,-0.455 -0.392,-0.455 -0.342,0c0.304,0.556 0.723,1.074 1.254,1.554c-0.405,-0.177 -0.786,-0.354 -1.14,-0.531c-0.887,-0.379 -1.621,-0.581 -2.203,-0.606c-0.279,0 -0.292,0.05 -0.038,0.151c0.988,0.253 1.703,0.487 2.146,0.701c0.444,0.215 0.741,0.411 0.893,0.588c-0.709,0.303 -1.444,0.442 -2.204,0.417c-0.481,-0.025 -0.696,-0.013 -0.646,0.038c0.051,0.05 0.203,0.101 0.456,0.151c0.912,0.101 1.836,0.001 2.774,-0.303c0.684,0.354 1.482,0.695 2.394,1.024c-0.558,0.126 -1.102,0.379 -1.634,0.758c-0.203,0.252 -0.102,0.265 0.303,0.038c0.406,-0.303 1.013,-0.493 1.824,-0.569l0.647,0.265c-0.051,0.683 0.114,1.377 0.493,2.085l-0.417,0.151l-1.292,-0.417Z"/></svg>