<?xml version="1.0" encoding="UTF-8" standalone="no"?><!DOCTYPE svg PUBLIC "-//W3C//DTD SVG 1.1//EN" "http://www.w3.org/Graphics/SVG/1.1/DTD/svg11.dtd"><svg width="100%" height="100%" viewBox="0 0 174 171" version="1.1" xmlns="http://www.w3.org/2000/svg" xmlns:xlink="http://www.w3.org/1999/xlink" xml:space="preserve" xmlns:serif="http://www.serif.com/" style="fill-rule:evenodd;clip-rule:evenodd;stroke-linejoin:round;stroke-miterlimit:2;"><path   d="M92.241,0.768c-3.907,0 -7.143,2.718 -8.058,6.354c-0.81,-0.023 -1.608,-0.066 -2.424,-0.066c-19.593,0 -37.598,6.897 -51.689,18.405c-1.389,-1.02 -3.07,-1.637 -4.913,-1.637c-4.607,0 -8.386,3.778 -8.386,8.384c0,1.842 0.617,3.523 1.638,4.912c-11.511,14.088 -18.409,32.088 -18.409,51.677c0,21.747 8.531,41.492 22.405,56.132c-1.025,1.654 -1.301,3.726 -1.441,4.65c0,4.605 3.779,8.384 8.385,8.384c2.155,0 4.078,-0.876 5.569,-2.227c13.271,9.283 29.425,14.737 46.841,14.737c45.129,0 81.759,-36.556 81.759,-81.676c0,-20.243 -7.378,-38.766 -19.588,-53.053c1.765,-2.868 2.817,-6.22 2.817,-9.824c0,-10.393 -8.472,-18.864 -18.867,-18.864c-5.664,0 -10.754,2.515 -14.217,6.485c-4.176,-1.773 -8.54,-3.259 -13.036,-4.323c-0.403,-5.666 -4.521,-8.202 -8.386,-8.45Zm0,4.193c2.34,0 4.193,1.852 4.193,4.191c0,2.34 -1.853,4.192 -4.193,4.192c-2.34,0 -4.193,-1.852 -4.193,-4.192c0,-2.339 1.853,-4.191 4.193,-4.191Zm-10.482,6.222c0.812,0 1.618,0.04 2.424,0.066c0.937,3.604 4.173,6.288 8.058,6.288c3.103,0 5.822,-1.73 7.272,-4.258c4.064,0.952 8.002,2.171 11.792,3.734c-1.437,2.66 -2.293,5.681 -2.293,8.907c0,10.393 8.472,18.864 18.868,18.864c5.263,0 10.068,-2.139 13.495,-5.633c11.198,13.453 17.95,30.767 17.95,49.647c0,42.854 -34.702,77.549 -77.566,77.549c-16.58,0 -31.885,-5.239 -44.483,-14.082c0.286,-0.84 0.459,-1.752 0.459,-2.685c0,-4.606 -3.779,-8.384 -8.386,-8.384c-1.376,0 -2.65,0.387 -3.799,0.983c-13.206,-13.9 -21.357,-32.674 -21.357,-53.381c0,-18.58 6.547,-35.634 17.426,-48.993c1.074,0.504 2.28,0.786 3.538,0.786c4.606,0 8.385,-3.778 8.385,-8.383c0,-1.258 -0.282,-2.463 -0.786,-3.537c13.355,-10.91 30.401,-17.488 49.003,-17.488Zm46.121,0.066c8.129,0 14.674,6.544 14.674,14.671c0,8.128 -6.545,14.672 -14.674,14.672c-8.13,0 -14.675,-6.544 -14.675,-14.672c0,-8.127 6.545,-14.671 14.675,-14.671Zm-102.723,16.767c2.34,0 4.192,1.852 4.192,4.192c0,2.34 -1.852,4.192 -4.192,4.192c-2.341,0 -4.193,-1.852 -4.193,-4.192c0,-2.34 1.852,-4.192 4.193,-4.192Zm140.457,0c-4.606,0 -8.385,3.778 -8.385,8.384c0,4.605 3.779,8.383 8.385,8.383c4.607,0 8.386,-3.778 8.386,-8.383c0,-4.606 -3.779,-8.384 -8.386,-8.384Zm0,4.192c2.341,0 4.193,1.852 4.193,4.192c0,2.339 -1.852,4.191 -4.193,4.191c-2.34,0 -4.192,-1.852 -4.192,-4.191c0,-2.34 1.852,-4.192 4.192,-4.192Zm-83.855,6.287c-27.762,0 -50.313,22.546 -50.313,50.303c0,27.756 22.551,50.236 50.313,50.236c27.762,0 50.313,-22.48 50.313,-50.236c0,-27.757 -22.551,-50.303 -50.313,-50.303Zm0,4.127c14.342,0 27.122,6.58 35.573,16.833l-21.291,0c-1.098,0.101 -2.004,1.195 -1.901,2.292c0.103,1.098 1.196,2.003 2.294,1.9c7.894,-0.354 16.127,0.552 23.912,-0.132c4.759,7.261 7.534,15.943 7.534,25.282c0,3.657 -0.443,7.202 -1.245,10.611c-14.87,-0.267 -30.334,-0.132 -43.173,-0.132c-1.097,0.104 -2.002,1.195 -1.899,2.293c0.103,1.097 1.195,2.001 2.292,1.899l41.601,0c-0.982,2.925 -2.216,5.754 -3.735,8.384l-29.873,0c-1.098,0.104 -2.002,1.195 -1.9,2.292c0.103,1.097 1.195,2.002 2.293,1.899l26.729,0c-8.385,11.431 -21.921,18.864 -37.211,18.864c-24.788,0 -44.953,-19.508 -46.055,-44.015l33.477,0c1.106,0.022 2.123,-0.989 2.123,-2.095c0,-1.107 -1.017,-2.111 -2.123,-2.097l-33.477,0c0.129,-2.866 0.486,-5.676 1.114,-8.383l40.748,0c1.107,0.021 2.124,-0.989 2.124,-2.096c0,-1.107 -1.017,-2.11 -2.124,-2.096l-39.504,0c6.118,-18.292 23.331,-31.504 43.697,-31.504l0,0.001Zm81.759,98.574c-4.606,0 -8.385,3.778 -8.385,8.383c0,4.606 3.779,8.384 8.385,8.384c4.606,0 8.386,-3.778 8.386,-8.384c0,-4.605 -3.78,-8.383 -8.386,-8.383Zm-134.169,4.192c2.341,0 4.193,1.851 4.193,4.191c0,2.34 -1.852,4.192 -4.193,4.192c-2.34,0 -4.192,-1.852 -4.192,-4.192c0,-2.34 1.852,-4.191 4.192,-4.191Zm134.169,0c2.341,0 4.193,1.851 4.193,4.191c0,2.34 -1.852,4.192 -4.193,4.192c-2.34,0 -4.193,-1.852 -4.193,-4.192c0,-2.34 1.853,-4.191 4.193,-4.191Z" style="fill:#f83e5a;fill-rule:nonzero;"/></svg>