<?xml version="1.0" encoding="UTF-8" standalone="no"?><!DOCTYPE svg PUBLIC "-//W3C//DTD SVG 1.1//EN" "http://www.w3.org/Graphics/SVG/1.1/DTD/svg11.dtd"><svg width="100%" height="100%" viewBox="0 0 68 34" version="1.1" xmlns="http://www.w3.org/2000/svg" xmlns:xlink="http://www.w3.org/1999/xlink" xml:space="preserve" xmlns:serif="http://www.serif.com/" style="fill-rule:evenodd;clip-rule:evenodd;stroke-linejoin:round;stroke-miterlimit:1.41421;"><rect x="0" y="0" width="68" height="34" style="fill:none;"/><g id="Group-8"><path id="XMLID_10_" d="M14.583,12.178c-2.957,-0.389 -5.026,-0.584 -6.207,-0.584c-1.18,0 -1.944,0.111 -2.291,0.32c-0.347,0.208 -0.514,0.555 -0.514,1.013c0,0.459 0.237,0.792 0.695,0.972c0.458,0.181 1.652,0.445 3.582,0.792c1.917,0.347 3.291,0.916 4.097,1.694c0.805,0.792 1.222,2.069 1.222,3.833c0,3.86 -2.403,5.79 -7.193,5.79c-1.569,0 -3.486,-0.208 -5.721,-0.639l-1.139,-0.208l0.139,-4.013c2.958,0.389 5.013,0.569 6.179,0.569c1.153,0 1.944,-0.111 2.361,-0.333c0.416,-0.222 0.625,-0.569 0.625,-1.014c0,-0.444 -0.223,-0.791 -0.667,-0.999c-0.444,-0.209 -1.583,-0.473 -3.43,-0.792c-1.847,-0.305 -3.221,-0.833 -4.138,-1.569c-0.916,-0.75 -1.374,-2.069 -1.374,-3.958c0,-1.902 0.638,-3.332 1.93,-4.29c1.291,-0.972 2.944,-1.444 4.971,-1.444c1.402,0 3.333,0.222 5.763,0.68l1.18,0.208l-0.07,3.972Z" style="fill:#06c;fill-rule:nonzero;"/><path id="XMLID_73_" d="M18.658,33.159l0,-25.411l4.763,0l0,0.972c1.555,-0.93 2.916,-1.402 4.082,-1.402c2.403,0 4.18,0.722 5.333,2.166c1.138,1.444 1.721,3.888 1.721,7.359c0,3.458 -0.638,5.86 -1.902,7.207c-1.264,1.347 -3.346,2.027 -6.221,2.027c-0.791,0 -1.638,-0.069 -2.541,-0.208l-0.43,-0.069l0,7.373l-4.805,0l0,-0.014Zm7.915,-21.537c-0.889,0 -1.777,0.181 -2.68,0.542l-0.43,0.18l0,9.359c1.069,0.139 1.944,0.209 2.61,0.209c1.389,0 2.333,-0.403 2.847,-1.222c0.513,-0.806 0.763,-2.194 0.763,-4.152c0,-3.277 -1.041,-4.916 -3.11,-4.916Z" style="fill:#06c;fill-rule:nonzero;"/><path id="XMLID_70_" d="M67.191,0.827l0,25.05l-4.762,0l0,-0.75c-1.667,0.792 -3.111,1.181 -4.333,1.181c-2.597,0 -4.416,-0.75 -5.443,-2.25c-1.028,-1.5 -1.542,-3.888 -1.542,-7.137c0,-3.264 0.611,-5.624 1.847,-7.124c1.222,-1.486 3.083,-2.235 5.569,-2.235c0.763,0 1.819,0.124 3.179,0.361l0.681,0.138l0,-7.234l4.804,0Zm-5.304,20.759l0.5,-0.111l0,-9.414c-1.305,-0.236 -2.486,-0.361 -3.513,-0.361c-1.93,0 -2.902,1.721 -2.902,5.151c0,1.861 0.208,3.18 0.638,3.972c0.431,0.791 1.139,1.18 2.125,1.18c1.014,0.014 2.055,-0.139 3.152,-0.417Z" style="fill:#06c;fill-rule:nonzero;"/><path id="XMLID_5_" d="M43.198,18.488c-1.471,0 -2.693,-0.5 -3.638,-1.5c-0.958,-1 -1.43,-2.236 -1.43,-3.707c0,-1.486 0.472,-2.708 1.416,-3.68c0.945,-0.972 2.167,-1.472 3.639,-1.472c1.471,0 2.68,0.5 3.596,1.5c0.93,0.999 1.389,2.235 1.389,3.707c0,1.472 -0.459,2.694 -1.389,3.68c-0.916,0.986 -2.111,1.472 -3.583,1.472" style="fill:#06c;fill-rule:nonzero;"/><path id="XMLID_4_" d="M38.13,25.451c0,-1.486 0.472,-2.708 1.416,-3.68c0.945,-0.972 2.167,-1.472 3.639,-1.472c1.471,0 2.68,0.5 3.596,1.5c0.93,0.999 1.389,2.235 1.389,3.707" style="fill:#06c;fill-rule:nonzero;"/></g></svg>