<?xml version="1.0" encoding="UTF-8" standalone="no"?><!DOCTYPE svg PUBLIC "-//W3C//DTD SVG 1.1//EN" "http://www.w3.org/Graphics/SVG/1.1/DTD/svg11.dtd"><svg width="100%" height="100%" viewBox="0 0 38 26" version="1.1" xmlns="http://www.w3.org/2000/svg" xmlns:xlink="http://www.w3.org/1999/xlink" xml:space="preserve" xmlns:serif="http://www.serif.com/" style="fill-rule:evenodd;clip-rule:evenodd;stroke-linejoin:round;stroke-miterlimit:1.41421;"><path id="icon-pagopa" d="M26.308,8.198l-0.011,3.033l-2.189,0l0,-10.231l4.046,0c1.305,0 1.957,0.358 1.968,1.063l0,4.982c0,0.705 -0.63,1.063 -1.901,1.063l-1.913,0l0,0.09Zm1.625,-6.011l-1.636,0l0,4.735l1.636,0l0,-4.735Zm-24.975,9.044l-0.011,3.034l-1.824,0l0,-10.22l3.383,0c1.094,0 1.636,0.358 1.647,1.063l0,4.982c0,0.705 -0.531,1.063 -1.592,1.063l-1.603,0l0,0.078Zm1.371,-6l-1.371,0l0,4.735l1.371,0l0,-4.735Zm7.474,5.922l-3.483,0c-1.028,0 -1.537,-0.358 -1.537,-1.063l0.011,-2.071c0,-0.694 0.531,-1.053 1.592,-1.064l1.603,0l0,-1.712l-1.381,0l-0.012,0.94l-1.791,0l0,-1.064c0,-0.694 0.542,-1.041 1.615,-1.041l1.791,-0.022c1.061,0 1.592,0.358 1.603,1.063l-0.011,6.034Zm-3.195,-1.187l1.381,0l-0.011,-1.824l-1.37,0l0,1.824Zm7.197,1.187l-1.603,0c-1.062,0 -1.592,-0.358 -1.592,-1.063l0,-4.982c0,-0.705 0.553,-1.063 1.647,-1.063l3.383,0l0,9.156c0,0.706 -0.531,1.064 -1.603,1.064l-1.824,0c-1.062,0 -1.603,-0.358 -1.603,-1.064l0,-1.063l1.824,0l0,0.929l1.371,0l0,-1.858l0,-0.056Zm-1.371,-1.187l1.371,0l0,-4.735l-1.371,0l0,4.735Zm8.856,0.124c-0.011,0.705 -0.553,1.063 -1.648,1.063l-1.769,0c-1.072,0 -1.614,-0.358 -1.614,-1.063l0,-4.993c0,-0.705 0.542,-1.063 1.614,-1.063l1.825,0c1.061,0 1.592,0.358 1.592,1.063l0,4.993Zm-1.813,-4.859l-1.382,0l0,4.735l1.37,0l0.012,-4.735Zm15.389,-3.112l0.011,8.597c0,7.892 -6.313,14.284 -14.107,14.284c-4.522,0 -8.535,-2.149 -11.122,-5.496l-1.404,1.13l-0.199,-6.313l4.389,2.989l-1.095,0.839c2.189,2.832 5.595,4.657 9.42,4.657c6.6,0 11.929,-5.396 11.929,-12.078l0,-2.609l-1.647,0l0,3.124l-2.189,0l0,-9.124c0,-0.716 0.641,-1.063 1.924,-1.063l2.189,0c1.271,0 1.901,0.358 1.901,1.063Zm-2.178,4.814l0,-4.69l-1.647,0l0,4.69l1.647,0Z" style="fill:#fff;fill-rule:nonzero;"/></svg>