<svg version="1.0" xmlns="http://www.w3.org/2000/svg" width="90.000000pt" height="64.000000pt" viewBox="0 0 90.000000 64.000000" ><g transform="translate(0.000000,64.000000) scale(0.100000,-0.100000)"
fill="#005a8c" stroke="none"><path d="M0 320 l0 -320 450 0 450 0 0 320 0 320 -450 0 -450 0 0 -320z m599 208 c-13 -45 -12 -48 14 -48 12 0 38 -5 58 -10 l37 -10 -11 -43 c-5 -23 -11 -43 -12 -44 -1 -2 -19 6 -40 17 -41 21 -91 26 -113 11 -27 -17 -8 -45 45 -66 73 -29 103 -60 103 -105 0 -93 -101 -139 -241 -109 -51 11 -51 11 -46 45 7 40 -14 47 -31 10 -6 -13 -31 -34 -57 -46 -39 -19 -57 -22 -104 -17 -32 4 -70 11 -85 17 -25 9 -27 14 -21 43 10 45 19 51 47 33 37 -24 109 -31 133 -12 30 22 10 45 -66 76 -51 20 -68 32 -83 61 -18 33 -18 37 -2 70 22 47 79 79 140 79 42 0 46 2 46 24 0 56 1 56 155 56 l144 0 -10 -32z"/> <path d="M343 473 c17 -5 22 -28 11 -57 -5 -12 -15 -15 -45 -10 -54 9 -89 -2 -89 -27 0 -15 17 -28 68 -51 37 -18 69 -33 72 -35 5 -3 40 151 40 176 0 6 -16 11 -37 10 -21 -1 -30 -3 -20 -6z"/> <path d="M218 458 c-43 -11 -88 -59 -88 -92 0 -30 33 -59 97 -86 28 -12 59 -30 69 -41 15 -17 15 -20 1 -43 -22 -33 -62 -40 -122 -22 -38 12 -51 13 -57 3 -19 -29 14 -44 105 -46 82 -2 128 33 131 99 3 49 -9 61 -86 90 -46 17 -59 27 -64 47 -11 41 27 67 88 60 43 -5 48 -4 48 13 0 15 -7 20 -29 20 -16 0 -35 2 -43 4 -7 2 -30 -1 -50 -6z"/> <path d="M441 253 c-6 -20 -8 -40 -5 -44 6 -10 71 -29 101 -29 22 0 53 24 53 41 0 8 -118 69 -134 69 -3 0 -10 -16 -15 -37z"/> </g> </svg> 