<svg version="1.0" xmlns="http://www.w3.org/2000/svg" width="90.000000pt" height="64.000000pt" viewBox="0 0 90.000000 64.000000" ><g transform="translate(0.000000,64.000000) scale(0.100000,-0.100000)" fill="#005a8c" stroke="none"><path d="M0 320 l0 -320 450 0 450 0 0 320 0 320 -450 0 -450 0 0 -320z m810 35 l0 -135 -74 0 c-92 0 -101 9 -101 97 0 56 3 67 24 84 13 10 38 19 57 19 32 0 34 2 34 35 0 32 2 35 30 35 l30 0 0 -135z m-586 59 c9 -3 16 -17 16 -30 0 -22 -3 -23 -44 -18 -59 9 -67 -10 -10 -26 54 -15 72 -46 52 -88 -12 -25 -19 -27 -81 -30 -66 -3 -67 -3 -67 23 0 23 3 25 50 25 59 0 66 15 11 24 -44 7 -63 25 -63 61 0 41 29 65 78 65 23 0 49 -3 58 -6z m207 -15 c14 -14 19 -33 19 -77 0 -79 -17 -102 -76 -102 l-44 0 0 -40 c0 -36 -2 -40 -25 -40 l-25 0 0 139 0 139 66 0 c52 0 70 -4 85 -19z m134 9 c33 -15 42 -51 21 -83 -30 -45 -98 -24 -98 30 0 18 8 36 22 47 26 21 23 21 55 6z m17 -145 c33 -30 23 -43 -37 -43 -46 0 -55 3 -55 18 0 41 57 57 92 25z"/> <path d="M694 356 c-3 -8 -4 -29 -2 -48 2 -28 7 -34 31 -36 26 -3 27 -2 27 47 0 48 -2 51 -25 51 -14 0 -28 -6 -31 -14z"/> <path d="M334 356 c-3 -8 -4 -31 -2 -52 3 -34 6 -39 28 -39 32 0 49 42 32 80 -13 27 -49 34 -58 11z"/> </g> </svg> 