<svg version="1.0" xmlns="http://www.w3.org/2000/svg" width="90.000000pt" height="64.000000pt" viewBox="0 0 90.000000 64.000000"><g transform="translate(0.000000,64.000000) scale(0.100000,-0.100000)"
fill="#005a8c" stroke="none">
<path d="M0 320 l0 -320 450 0 450 0 0 320 0 320 -450 0 -450 0 0 -320z m606
243 c10 -26 14 -53 10 -84 -6 -42 -3 -49 39 -103 25 -32 45 -62 45 -66 0 -5
-12 -18 -27 -30 -20 -16 -28 -31 -29 -61 -1 -22 -7 -46 -13 -53 -6 -7 -8 -26
-5 -43 10 -52 -12 -59 -116 -37 -50 10 -90 21 -90 24 0 3 13 16 30 28 93 69
98 237 8 318 -28 26 -81 54 -103 54 -8 0 -15 3 -15 8 1 8 205 80 232 81 11 1
24 -13 34 -36z m-342 -79 c28 -11 17 -24 -19 -24 -29 0 -37 -5 -46 -27 -17
-45 0 -87 36 -91 42 -5 53 -20 21 -28 -47 -11 -74 2 -87 45 -27 91 21 153 95
125z m56 -9 c0 -8 -7 -15 -15 -15 -8 0 -15 7 -15 15 0 8 7 15 15 15 8 0 15 -7
15 -15z m0 -101 c0 -48 -3 -65 -12 -62 -8 3 -14 28 -16 66 -2 51 0 62 13 62
12 0 15 -13 15 -66z m108 58 c7 -5 14 -22 15 -38 2 -27 -1 -29 -36 -32 -44 -4
-40 -22 4 -22 40 0 33 -24 -8 -28 -38 -4 -63 20 -63 59 0 45 17 69 48 69 15 0
33 -4 40 -8z m-133 -217 c0 -54 -4 -80 -12 -82 -10 -4 -13 17 -13 82 0 65 3
86 13 83 8 -3 12 -29 12 -83z m132 59 c7 -10 13 -37 13 -61 0 -57 -25 -83 -80
-83 l-40 0 0 86 0 87 47 -6 c29 -3 52 -12 60 -23z"/>
<path d="M377 413 c-14 -13 -6 -23 18 -23 18 0 23 4 19 15 -6 16 -26 20 -37 8z"/>
<path d="M350 215 c0 -51 2 -55 24 -55 25 0 36 16 36 55 0 39 -11 55 -36 55
-22 0 -24 -4 -24 -55z"/>
</g>
</svg>
