<?xml version="1.0" encoding="UTF-8" standalone="no"?><!DOCTYPE svg PUBLIC "-//W3C//DTD SVG 1.1//EN" "http://www.w3.org/Graphics/SVG/1.1/DTD/svg11.dtd"><svg width="100%" height="100%" viewBox="0 0 32 32" version="1.1" xmlns="http://www.w3.org/2000/svg" xmlns:xlink="http://www.w3.org/1999/xlink" xml:space="preserve" xmlns:serif="http://www.serif.com/" style="fill-rule:evenodd;clip-rule:evenodd;stroke-linejoin:round;stroke-miterlimit:1.41421;"><rect id="Rectangle-path" x="0" y="0.035" width="32" height="32" style="fill:none;"/><path   d="M22.545,0l-17.454,0c-1.6,0 -2.909,1.309 -2.909,2.909l0,20.364l2.909,0l0,-20.364l17.454,0l0,-2.909Zm4.364,5.818l-16,0c-1.6,0 -2.909,1.309 -2.909,2.909l0,20.364c0,1.6 1.309,2.909 2.909,2.909l16,0c1.6,0 2.909,-1.309 2.909,-2.909l0,-20.364c0,-1.6 -1.309,-2.909 -2.909,-2.909Zm0,23.273l-16,0l0,-20.364l16,0l0,20.364Z"/></svg>