<?xml version="1.0" encoding="UTF-8" standalone="no"?><!DOCTYPE svg PUBLIC "-//W3C//DTD SVG 1.1//EN" "http://www.w3.org/Graphics/SVG/1.1/DTD/svg11.dtd"><svg width="100%" height="100%" viewBox="0 0 32 32" version="1.1" xmlns="http://www.w3.org/2000/svg" xmlns:xlink="http://www.w3.org/1999/xlink" xml:space="preserve" xmlns:serif="http://www.serif.com/" style="fill-rule:evenodd;clip-rule:evenodd;stroke-linejoin:round;stroke-miterlimit:1.41421;"><rect id="Rectangle-path" x="0" y="0.035" width="32" height="32" style="fill:none;"/><path   d="M6.891,3.479c-0.358,0.033 -0.632,0.335 -0.63,0.695l0,3.826l-5.565,0c-0.385,0 -0.696,0.312 -0.696,0.696l0,16.174c0,2.117 1.781,3.652 3.826,3.652l24.565,0c2.045,0 3.609,-1.592 3.609,-3.652l0,-20.696c0,-0.384 -0.311,-0.695 -0.696,-0.695l-24.347,0c-0.022,-0.001 -0.044,-0.001 -0.066,0Zm0.761,1.391l22.957,0l0,20c0,1.421 -0.83,2.261 -2.218,2.261l-21.619,0c0.522,-0.613 0.88,-1.369 0.88,-2.261l0,-20Zm3.761,3.13c-0.358,0.034 -0.632,0.336 -0.63,0.696l0,6.261c0,0.384 0.311,0.696 0.695,0.696l15.305,0c0.384,0 0.695,-0.312 0.695,-0.696l0,-6.261c0,-0.384 -0.311,-0.696 -0.695,-0.696l-15.305,0c-0.021,-0.001 -0.043,-0.001 -0.065,0Zm-10.022,1.392l4.87,0l0,15.478c0,1.277 -0.969,2.149 -2.239,2.25c-0.022,0.003 -0.044,0.006 -0.065,0.011l-0.131,0c-1.387,0 -2.435,-0.898 -2.435,-2.261l0,-15.478Zm10.022,8.673c-0.249,0.018 -0.472,0.238 -0.586,0.576c-0.114,0.339 -0.102,0.745 0.032,1.066c0.135,0.321 0.371,0.507 0.619,0.489l15.305,0c0.25,0.006 0.484,-0.196 0.61,-0.528c0.127,-0.332 0.127,-0.742 0,-1.074c-0.126,-0.332 -0.36,-0.534 -0.61,-0.529l-15.305,0c-0.021,-0.001 -0.043,-0.001 -0.065,0Zm0,4.174c-0.249,0.018 -0.472,0.238 -0.586,0.576c-0.114,0.339 -0.102,0.745 0.032,1.066c0.135,0.321 0.371,0.507 0.619,0.489l15.305,0c0.25,0.006 0.484,-0.196 0.61,-0.528c0.127,-0.332 0.127,-0.743 0,-1.074c-0.126,-0.332 -0.36,-0.534 -0.61,-0.529l-15.305,0c-0.021,-0.001 -0.043,-0.001 -0.065,0Z" style="fill-rule:nonzero;"/></svg>