<?xml version="1.0" encoding="UTF-8" standalone="no"?><!DOCTYPE svg PUBLIC "-//W3C//DTD SVG 1.1//EN" "http://www.w3.org/Graphics/SVG/1.1/DTD/svg11.dtd"><svg width="100%" height="100%" viewBox="0 0 32 32" version="1.1" xmlns="http://www.w3.org/2000/svg" xmlns:xlink="http://www.w3.org/1999/xlink" xml:space="preserve" xmlns:serif="http://www.serif.com/" style="fill-rule:evenodd;clip-rule:evenodd;stroke-linejoin:round;stroke-miterlimit:1.41421;"><rect id="Rectangle-path" x="0" y="0.035" width="32" height="32" style="fill:none;"/><path   d="M31.006,24.104l0.89,1.792c0.245,0.494 0.043,1.095 -0.452,1.34l-4.091,2.055c-1.003,0.498 -2.222,0.075 -2.699,-0.94l-3.924,-8.351l-8.73,0c-0.995,0 -1.839,-0.732 -1.98,-1.717c-2.118,-14.826 -1.996,-13.905 -2.02,-14.283c0,-2.272 1.895,-4.102 4.191,-3.996c2.079,0.097 3.753,1.807 3.808,3.888c0.054,2.058 -1.447,3.776 -3.413,4.065l0.291,2.043l8.123,0c0.552,0 1,0.448 1,1l0,2c0,0.552 -0.448,1 -1,1l-7.551,0l0.286,2l8.265,0c0.775,0 1.48,0.448 1.81,1.15l3.595,7.65l2.261,-1.147c0.495,-0.245 1.095,-0.043 1.34,0.451Zm-11.546,-2.104l-1.532,0c-0.486,3.388 -3.408,6 -6.928,6c-3.86,0 -7,-3.14 -7,-7c0,-2.594 1.418,-4.863 3.52,-6.072c-0.232,-1.623 -0.427,-2.992 -0.593,-4.146c-4.055,1.622 -6.927,5.591 -6.927,10.218c0,6.065 4.935,11 11,11c4.492,0 8.363,-2.707 10.069,-6.574l-1.609,-3.426Z" style="fill-rule:nonzero;"/></svg>