<?xml version="1.0" encoding="UTF-8" standalone="no"?><!DOCTYPE svg PUBLIC "-//W3C//DTD SVG 1.1//EN" "http://www.w3.org/Graphics/SVG/1.1/DTD/svg11.dtd"><svg width="100%" height="100%" viewBox="0 0 32 32" version="1.1" xmlns="http://www.w3.org/2000/svg" xmlns:xlink="http://www.w3.org/1999/xlink" xml:space="preserve" xmlns:serif="http://www.serif.com/" style="fill-rule:evenodd;clip-rule:evenodd;stroke-linejoin:round;stroke-miterlimit:1.41421;"><rect id="Rectangle-path" x="0" y="0.035" width="32" height="32" style="fill:none;"/><path d="M25.168,0c1.685,0 3.056,1.372 3.056,3.056l0,16.807c0,1.686 -1.371,3.056 -3.056,3.056l-3.719,0l-5.449,9.081l-5.449,-9.081l-3.719,0c-1.685,0 -3.056,-1.37 -3.056,-3.056l0,-16.807c0,-1.684 1.371,-3.056 3.056,-3.056l18.336,0Zm0,19.863l0,-16.807l-18.336,0l0,16.807l5.449,0l3.719,6.199l3.719,-6.199l5.449,0Zm-4.586,-13.751l3.058,6.112l0,3.056l-1.528,0c0,0.845 -0.683,1.528 -1.528,1.528c-0.845,0 -1.528,-0.683 -1.528,-1.528l-6.112,0c0,0.845 -0.683,1.528 -1.528,1.528c-0.845,0 -1.528,-0.683 -1.528,-1.528l-1.528,0l0,-3.056l3.056,-6.112l9.166,0Zm0.002,7.64l0,-1.528l-3.056,0l0,1.528l3.056,0Zm-6.112,0l0,-1.528l-3.056,0l0,1.528l3.056,0Zm6.112,-3.056l-1.528,-3.056l-6.112,0l-1.528,3.056l9.168,0Z" style="fill-rule:nonzero;"/></svg>