<?xml version="1.0" encoding="UTF-8" standalone="no"?><!DOCTYPE svg PUBLIC "-//W3C//DTD SVG 1.1//EN" "http://www.w3.org/Graphics/SVG/1.1/DTD/svg11.dtd"><svg width="100%" height="100%" viewBox="0 0 32 32" version="1.1" xmlns="http://www.w3.org/2000/svg" xmlns:xlink="http://www.w3.org/1999/xlink" xml:space="preserve" xmlns:serif="http://www.serif.com/" style="fill-rule:evenodd;clip-rule:evenodd;stroke-linejoin:round;stroke-miterlimit:2;"><rect id="Rectangle-path" x="0" y="0.035" width="32" height="32" style="fill:none;"/><path d="M7.111,10.667l17.778,0l0,10.666l-17.778,0l0,-10.666Zm22.222,5.333c0,1.473 1.194,2.667 2.667,2.667l0,5.333c0,1.473 -1.194,2.667 -2.667,2.667l-26.666,0c-1.473,0 -2.667,-1.194 -2.667,-2.667l0,-5.333c1.473,0 2.667,-1.194 2.667,-2.667c0,-1.473 -1.194,-2.667 -2.667,-2.667l0,-5.333c0,-1.473 1.194,-2.667 2.667,-2.667l26.666,0c1.473,0 2.667,1.194 2.667,2.667l0,5.333c-1.473,0 -2.667,1.194 -2.667,2.667Zm-2.666,-5.778c0,-0.736 -0.597,-1.333 -1.334,-1.333l-18.666,0c-0.737,0 -1.334,0.597 -1.334,1.333l0,11.556c0,0.736 0.597,1.333 1.334,1.333l18.666,0c0.737,0 1.334,-0.597 1.334,-1.333l0,-11.556Z" style="fill-rule:nonzero;"/></svg>