<?xml version="1.0" encoding="UTF-8" standalone="no"?><!DOCTYPE svg PUBLIC "-//W3C//DTD SVG 1.1//EN" "http://www.w3.org/Graphics/SVG/1.1/DTD/svg11.dtd"><svg width="100%" height="100%" viewBox="0 0 32 32" version="1.1" xmlns="http://www.w3.org/2000/svg" xmlns:xlink="http://www.w3.org/1999/xlink" xml:space="preserve" xmlns:serif="http://www.serif.com/" style="fill-rule:evenodd;clip-rule:evenodd;stroke-linejoin:round;stroke-miterlimit:1.41421;"><rect id="Rectangle-path" x="0" y="0.035" width="32" height="32" style="fill:none;"/><path id="Oval" d="M15.984,0c-8.832,0 -15.984,7.168 -15.984,16c0,8.832 7.152,16 15.984,16c8.848,0 16.016,-7.168 16.016,-16c0,-8.832 -7.168,-16 -16.016,-16Zm0.016,28.8c-7.072,0 -12.8,-5.728 -12.8,-12.8c0,-7.072 5.728,-12.8 12.8,-12.8c7.072,0 12.8,5.728 12.8,12.8c0,7.072 -5.728,12.8 -12.8,12.8Zm-5.52,-9.6c1.12,1.904 3.152,3.2 5.52,3.2c2.368,0 4.4,-1.296 5.52,-3.2l2.672,0c-1.28,3.28 -4.464,5.6 -8.192,5.6c-3.728,0 -6.912,-2.32 -8.192,-5.6l2.672,0Zm11.12,-9.6c1.325,0 2.4,1.075 2.4,2.4c0,1.325 -1.075,2.4 -2.4,2.4c-1.325,0 -2.4,-1.075 -2.4,-2.4c0,-1.325 1.075,-2.4 2.4,-2.4Zm-11.2,0c1.325,0 2.4,1.075 2.4,2.4c0,1.325 -1.075,2.4 -2.4,2.4c-1.325,0 -2.4,-1.075 -2.4,-2.4c0,-1.325 1.075,-2.4 2.4,-2.4Z"/></svg>