<?xml version="1.0" encoding="UTF-8" standalone="no"?><!DOCTYPE svg PUBLIC "-//W3C//DTD SVG 1.1//EN" "http://www.w3.org/Graphics/SVG/1.1/DTD/svg11.dtd"><svg width="100%" height="100%" viewBox="0 0 32 32" version="1.1" xmlns="http://www.w3.org/2000/svg" xmlns:xlink="http://www.w3.org/1999/xlink" xml:space="preserve" xmlns:serif="http://www.serif.com/" style="fill-rule:evenodd;clip-rule:evenodd;stroke-linejoin:round;stroke-miterlimit:1.41421;"><rect id="Rectangle-path" x="0" y="0.035" width="32" height="32" style="fill:none;"/><path d="M10.055,29.037c0.04,0 0.08,0 0.119,0c10.185,0 18.565,-8.38 18.565,-18.565c0,-0.04 0,-0.079 0,-0.119l0,-0.849c1.276,-0.934 2.38,-2.084 3.261,-3.397c-1.199,0.528 -2.47,0.878 -3.771,1.036c1.361,-0.81 2.386,-2.082 2.888,-3.584c-1.309,0.745 -2.733,1.267 -4.213,1.546c-1.241,-1.322 -2.976,-2.072 -4.789,-2.072c-3.6,0 -6.564,2.956 -6.574,6.556c-0.004,0.503 0.053,1.005 0.17,1.494c-5.284,-0.237 -10.227,-2.709 -13.588,-6.794c-1.751,2.977 -0.857,6.855 2.021,8.765c-1.042,-0.025 -2.063,-0.305 -2.972,-0.816c0.002,3.145 2.26,5.87 5.35,6.455c-0.552,0.156 -1.124,0.236 -1.698,0.237c-0.415,0.007 -0.83,-0.021 -1.24,-0.084c0.86,2.664 3.332,4.499 6.131,4.552c-2.322,1.83 -5.195,2.824 -8.152,2.819c-0.523,0 -1.045,-0.034 -1.563,-0.102c3,1.921 6.493,2.936 10.055,2.922" style="fill-rule:nonzero;"/></svg>