<?xml version="1.0" encoding="UTF-8" standalone="no"?><!DOCTYPE svg PUBLIC "-//W3C//DTD SVG 1.1//EN" "http://www.w3.org/Graphics/SVG/1.1/DTD/svg11.dtd"><svg width="100%" height="100%" viewBox="0 0 32 32" version="1.1" xmlns="http://www.w3.org/2000/svg" xmlns:xlink="http://www.w3.org/1999/xlink" xml:space="preserve" xmlns:serif="http://www.serif.com/" style="fill-rule:evenodd;clip-rule:evenodd;stroke-linejoin:round;stroke-miterlimit:2;"><rect id="Rectangle-path" x="0" y="0.035" width="32" height="32" style="fill:none;"/><path d="M5.818,29.091l20.364,0l0,-1.455l2.91,0l0,1.455c0,1.604 -1.305,2.909 -2.91,2.909l-20.364,0c-1.605,0 -2.91,-1.305 -2.91,-2.909l0,-1.455l2.91,0l0,1.455Zm14.563,-16.002c0.135,0.002 0.271,0.023 0.405,0.064c0.612,0.186 1.032,0.752 1.032,1.392l0,10.183l-2.909,0l0,-5.377l-0.244,0.363c-0.54,0.811 -1.881,0.811 -2.421,0l-0.244,-0.365l0,5.378l-2.909,0l0,-10.182c0,-0.64 0.42,-1.206 1.033,-1.391c0.61,-0.188 1.275,0.051 1.632,0.585l1.699,2.548l1.699,-2.55c0.275,-0.413 0.735,-0.649 1.212,-0.648l0.015,0Zm5.801,0.001l0,8.728l4.364,0l0,2.909l-7.273,0l0,-11.637l2.909,0Zm-19.541,2.991l1.795,-2.991l3.394,0l-3.493,5.818l3.493,5.819l-3.394,0l-1.795,-2.989l-1.794,2.989l-3.393,0l3.491,-5.819l-3.491,-5.818l3.393,0l1.794,2.991Zm15.78,-16.081l6.671,6.671l0,3.51l-2.91,0l0,-1.455l-5.818,0l0,-5.818l-14.546,0l0,7.274l-2.91,0l0,-7.273c0,-1.606 1.305,-2.909 2.91,-2.909l16.603,0Z" style="fill-rule:nonzero;"/></svg>