<?xml version="1.0" encoding="UTF-8" standalone="no"?><!DOCTYPE svg PUBLIC "-//W3C//DTD SVG 1.1//EN" "http://www.w3.org/Graphics/SVG/1.1/DTD/svg11.dtd"><svg width="100%" height="100%" viewBox="0 0 32 32" version="1.1" xmlns="http://www.w3.org/2000/svg" xmlns:xlink="http://www.w3.org/1999/xlink" xml:space="preserve" xmlns:serif="http://www.serif.com/" style="fill-rule:evenodd;clip-rule:evenodd;stroke-linejoin:round;stroke-miterlimit:1.41421;"><rect id="Rectangle-path" x="0" y="0.035" width="32" height="32" style="fill:none;"/><path d="M24.062,10.087c-2.559,-0.087 -4.97,1.237 -6.268,3.445l0,-2.877l-6.447,0l0,21.31l6.624,0l0,-10.566c0,-2.789 0.515,-5.488 3.978,-5.488c3.463,0 3.427,3.197 3.427,5.665l0,10.389l6.624,0l0,-11.721c0,-5.736 -1.225,-10.157 -7.938,-10.157Zm-20.191,-10.087c-0.006,0 -0.012,0 -0.017,0c-2.114,0 -3.854,1.74 -3.854,3.854c0,2.113 1.74,3.853 3.854,3.853c2.107,0 3.843,-1.728 3.853,-3.836c0,-0.012 0,-0.023 0,-0.035c0,-2.104 -1.731,-3.836 -3.836,-3.836c0,0 0,0 0,0Zm-3.321,10.655l0,21.31l6.589,0l0,-21.31l-6.589,0Zm23.512,-0.533c-2.552,-0.094 -4.961,1.216 -6.268,3.41l0,-2.877l-6.447,0l0,21.31l6.624,0l0,-10.566c0,-2.789 0.515,-5.488 3.978,-5.488c3.463,0 3.427,3.197 3.427,5.665l0,10.389l6.624,0l0,-11.721c0,-5.736 -1.225,-10.157 -7.938,-10.157l0,0.035Zm-23.512,21.843l6.589,0l0,-21.31l-6.589,0l0,21.31Zm3.321,-31.965c-0.006,0 -0.012,0 -0.017,0c-2.114,0 -3.854,1.74 -3.854,3.854c0,2.113 1.74,3.853 3.854,3.853c2.107,0 3.843,-1.728 3.853,-3.836c0,-0.012 0,-0.023 0,-0.035c0,-2.104 -1.731,-3.836 -3.836,-3.836c0,0 0,0 0,0Z" style="fill-rule:nonzero;"/></svg>