<?xml version="1.0" encoding="UTF-8" standalone="no"?><!DOCTYPE svg PUBLIC "-//W3C//DTD SVG 1.1//EN" "http://www.w3.org/Graphics/SVG/1.1/DTD/svg11.dtd"><svg width="100%" height="100%" viewBox="0 0 32 32" version="1.1" xmlns="http://www.w3.org/2000/svg" xmlns:xlink="http://www.w3.org/1999/xlink" xml:space="preserve" xmlns:serif="http://www.serif.com/" style="fill-rule:evenodd;clip-rule:evenodd;stroke-linejoin:round;stroke-miterlimit:1.41421;"><rect id="Rectangle-path" x="0" y="0.035" width="32" height="32" style="fill:none;"/><g><path d="M29.333,9.689l-0.889,0l0,-7.022c0,-1.463 -1.203,-2.667 -2.666,-2.667l-19.556,0c-1.463,0 -2.666,1.204 -2.666,2.667l0,7.111l-0.889,0c-1.43,-0.001 -2.619,1.148 -2.667,2.578l0,8.888c0,1.463 1.204,2.667 2.667,2.667l0.889,0l0,5.333c0,1.463 1.203,2.667 2.666,2.667l19.556,0c1.463,0 2.666,-1.204 2.666,-2.667l0,-5.333l0.889,0c1.463,0 2.667,-1.204 2.667,-2.667l0,-8.888c0,-1.463 -1.204,-2.667 -2.667,-2.667Zm-24,-7.022c0,-0.488 0.402,-0.889 0.889,-0.889l19.556,0c0.487,0 0.889,0.401 0.889,0.889l0,7.004l-21.334,0l0,-7.004Zm21.334,26.666c0,0.488 -0.402,0.889 -0.889,0.889l-19.556,0c-0.487,0 -0.889,-0.401 -0.889,-0.889l0,-8.889c0,-0.487 0.402,-0.888 0.889,-0.888l19.556,0c0.487,0 0.889,0.401 0.889,0.888l0,8.889Zm3.555,-8.089c0,0.488 -0.401,0.889 -0.889,0.889l-0.889,0l0,-1.777c0,-1.463 -1.203,-2.667 -2.666,-2.667l-19.556,0c-1.463,0 -2.666,1.204 -2.666,2.667l0,1.777l-0.889,0c-0.488,0 -0.889,-0.401 -0.889,-0.889l0,-8.888c0,-0.488 0.401,-0.889 0.889,-0.889l26.666,0c0.488,0 0.889,0.401 0.889,0.889l0,8.888Z" style="fill-rule:nonzero;"/><path d="M23.093,24.269c0,-0.276 -0.224,-0.5 -0.5,-0.5l-13.222,0c-0.276,0 -0.5,0.224 -0.5,0.5l0,0.778c0,0.276 0.224,0.5 0.5,0.5l13.222,0c0.276,0 0.5,-0.224 0.5,-0.5l0,-0.778Z"/></g></svg>