<?xml version="1.0" encoding="UTF-8" standalone="no"?><!DOCTYPE svg PUBLIC "-//W3C//DTD SVG 1.1//EN" "http://www.w3.org/Graphics/SVG/1.1/DTD/svg11.dtd"><svg width="100%" height="100%" viewBox="0 0 32 32" version="1.1" xmlns="http://www.w3.org/2000/svg" xmlns:xlink="http://www.w3.org/1999/xlink" xml:space="preserve" xmlns:serif="http://www.serif.com/" style="fill-rule:evenodd;clip-rule:evenodd;stroke-linejoin:round;stroke-miterlimit:1.41421;"><rect id="Rectangle-path" x="0" y="0.035" width="32" height="32" style="fill:none;"/><path id="Path" d="M6.436,13.849c2.56,5.031 6.684,9.138 11.715,11.715l3.911,-3.911c0.48,-0.48 1.191,-0.64 1.814,-0.426c1.991,0.657 4.142,1.013 6.346,1.013c0.978,0 1.778,0.8 1.778,1.778l0,6.204c0,0.978 -0.8,1.778 -1.778,1.778c-16.693,0 -30.222,-13.529 -30.222,-30.222c0,-0.978 0.8,-1.778 1.778,-1.778l6.222,0c0.978,0 1.778,0.8 1.778,1.778c0,2.222 0.355,4.355 1.013,6.346c0.196,0.623 0.053,1.316 -0.444,1.814l-3.911,3.911Z" style="fill-rule:nonzero;"/></svg>