<?xml version="1.0" encoding="UTF-8" standalone="no"?><!DOCTYPE svg PUBLIC "-//W3C//DTD SVG 1.1//EN" "http://www.w3.org/Graphics/SVG/1.1/DTD/svg11.dtd"><svg width="100%" height="100%" viewBox="0 0 32 32" version="1.1" xmlns="http://www.w3.org/2000/svg" xmlns:xlink="http://www.w3.org/1999/xlink" xml:space="preserve" xmlns:serif="http://www.serif.com/" style="fill-rule:evenodd;clip-rule:evenodd;stroke-linejoin:round;stroke-miterlimit:2;"><rect id="Rectangle-path" x="0" y="0.035" width="32" height="32" style="fill:none;"/><path d="M32,2.814l0,26.372l-21.428,0l0,-8.241l3.297,0l0,4.945l14.834,0l0,-19.78l-18.131,0l0,-3.296l21.428,0Zm-16.483,11.538c1.82,0 3.297,1.48 3.297,3.296l0,1.649l3.296,0l0,-1.649c0,-3.636 -2.958,-6.593 -6.593,-6.593l-9.207,0l3.296,-3.296l-2.33,-2.331l-7.276,7.275l7.276,7.278l2.33,-2.331l-3.296,-3.297l9.207,0l0,-0.001Z" style="fill-rule:nonzero;"/></svg>