<?xml version="1.0" encoding="UTF-8" standalone="no"?><!DOCTYPE svg PUBLIC "-//W3C//DTD SVG 1.1//EN" "http://www.w3.org/Graphics/SVG/1.1/DTD/svg11.dtd"><svg width="100%" height="100%" viewBox="0 0 32 32" version="1.1" xmlns="http://www.w3.org/2000/svg" xmlns:xlink="http://www.w3.org/1999/xlink" xml:space="preserve" xmlns:serif="http://www.serif.com/" style="fill-rule:evenodd;clip-rule:evenodd;stroke-linejoin:round;stroke-miterlimit:1.41421;"><rect id="Rectangle-path" x="0" y="0.035" width="32" height="32" style="fill:none;"/><g><path d="M23.403,31.995c-0.078,0.003 -0.155,0.005 -0.233,0.005c-2.972,0 -5.418,-2.446 -5.418,-5.418c0,-0.055 0.001,-0.11 0.002,-0.164c-0.106,-1.913 -3.169,-4.728 -4.408,-5.826c-2.497,-2.231 -5.153,-4.94 -5.153,-8.959c0.019,-5.688 4.705,-10.358 10.394,-10.358c5.754,0.105 10.43,4.868 10.429,10.624l-1.771,0c0.001,-4.784 -3.876,-8.748 -8.658,-8.854c-4.711,0.01 -8.586,3.878 -8.606,8.588c0,3.276 2.249,5.56 4.551,7.614c2.302,2.053 4.869,4.727 5.011,7.082c-0.005,0.079 -0.008,0.157 -0.008,0.236c0,2.01 1.655,3.665 3.665,3.665c0.068,0 0.135,-0.002 0.203,-0.006c2.117,-0.013 3.852,-1.759 3.852,-3.877c0,-0.095 -0.003,-0.189 -0.01,-0.284l1.771,0c0.001,0.06 0.002,0.12 0.002,0.179c0,3.105 -2.512,5.678 -5.615,5.753Z" style="fill-rule:nonzero;"/><circle cx="18.427" cy="11.013" r="3.541"/><path d="M6.546,19.76c-2.072,-2.018 -3.333,-4.728 -3.541,-7.614c-0.297,-4.951 2.239,-9.665 6.534,-12.146l0.885,1.523c-3.744,2.175 -5.938,6.303 -5.648,10.623c0.21,2.428 1.27,4.704 2.992,6.428l-1.222,1.186Z" style="fill-rule:nonzero;"/></g></svg>