<?xml version="1.0" encoding="UTF-8" standalone="no"?><!DOCTYPE svg PUBLIC "-//W3C//DTD SVG 1.1//EN" "http://www.w3.org/Graphics/SVG/1.1/DTD/svg11.dtd"><svg width="100%" height="100%" viewBox="0 0 32 32" version="1.1" xmlns="http://www.w3.org/2000/svg" xmlns:xlink="http://www.w3.org/1999/xlink" xml:space="preserve" xmlns:serif="http://www.serif.com/" style="fill-rule:evenodd;clip-rule:evenodd;stroke-linejoin:round;stroke-miterlimit:2;"><rect id="Rectangle-path" x="0" y="0.035" width="32" height="32" style="fill:none;"/><path   d="M29.538,3.112l-27.076,0c-2.462,0 -2.462,2.461 -2.462,2.461l0,20.924c0,2.461 2.462,2.461 2.462,2.461l27.076,0c2.462,0 2.462,-2.461 2.462,-2.461l0,-20.924c0,-2.461 -2.462,-2.461 -2.462,-2.461Zm-23.384,24.615l-3.68,0c-0.566,-0.012 -1.243,-0.234 -1.243,-1.23l0,-2.462l4.923,0l0,3.692Zm0,-4.923l-4.923,0l0,-3.692l4.923,0l0,3.692Zm0,-4.923l-4.923,0l0,-3.692l4.923,0l0,3.692Zm0,-4.923l-4.923,0l0,-3.692l4.923,0l0,3.692Zm0,-4.923l-4.923,0l0,-2.449c0.012,-0.566 0.234,-1.243 1.231,-1.243l3.692,0l0,3.692Zm6.154,19.692l-4.923,0l0,-3.692l4.923,0l0,3.692Zm0,-4.923l-4.923,0l0,-3.692l4.923,0l0,3.692Zm0,-4.923l-4.923,0l0,-3.692l4.923,0l0,3.692Zm0,-4.923l-4.923,0l0,-3.692l4.923,0l0,3.692Zm0,-4.923l-4.923,0l0,-3.692l4.923,0l0,3.692Zm6.154,19.692l-4.924,0l0,-3.692l4.924,0l0,3.692Zm0,-4.923l-4.924,0l0,-3.692l4.924,0l0,3.692Zm0,-4.923l-4.924,0l0,-3.692l4.924,0l0,3.692Zm0,-4.923l-4.924,0l0,-3.692l4.924,0l0,3.692Zm0,-4.923l-4.924,0l0,-3.692l4.924,0l0,3.692Zm6.153,19.692l-4.923,0l0,-3.692l4.923,0l0,3.692Zm0,-4.923l-4.923,0l0,-3.692l4.923,0l0,3.692Zm0,-4.923l-4.923,0l0,-3.692l4.923,0l0,3.692Zm0,-4.923l-4.923,0l0,-3.692l4.923,0l0,3.692Zm0,-4.923l-4.923,0l0,-3.692l4.923,0l0,3.692Zm6.154,18.449c-0.012,0.566 -0.234,1.243 -1.231,1.243l-3.692,0l0,-3.692l4.923,0l0,2.449Zm0,-3.68l-4.923,0l0,-3.692l4.923,0l0,3.692Zm0,-4.923l-4.923,0l0,-3.692l4.923,0l0,3.692Zm0,-4.923l-4.923,0l0,-3.692l4.923,0l0,3.692Zm0,-4.923l-4.923,0l0,-3.692l3.68,0c0.566,0.012 1.243,0.246 1.243,1.23l0,2.462Zm-25.846,2.462l-2.461,0l0,1.23l2.461,0l0,-1.23Zm6.154,0l-2.462,0l0,1.23l2.462,0l0,-1.23Zm0,4.923l-2.462,0l0,1.23l2.462,0l0,-1.23Zm6.154,0l-2.462,0l0,1.23l2.462,0l0,-1.23Zm6.154,0l-2.462,0l0,1.23l2.462,0l0,-1.23Zm6.153,-4.923l-2.461,0l0,1.23l2.461,0l0,-1.23Zm0,4.923l-2.461,0l0,1.23l2.461,0l0,-1.23Zm-6.153,9.846l-2.462,0l0,1.231l2.462,0l0,-1.231Zm-18.462,-4.923l-2.461,0l0,1.23l2.461,0l0,-1.23Z" style="fill-rule:nonzero;"/></svg>