<?xml version="1.0" encoding="UTF-8" standalone="no"?><!DOCTYPE svg PUBLIC "-//W3C//DTD SVG 1.1//EN" "http://www.w3.org/Graphics/SVG/1.1/DTD/svg11.dtd"><svg width="100%" height="100%" viewBox="0 0 32 32" version="1.1" xmlns="http://www.w3.org/2000/svg" xmlns:xlink="http://www.w3.org/1999/xlink" xml:space="preserve" xmlns:serif="http://www.serif.com/" style="fill-rule:evenodd;clip-rule:evenodd;stroke-linejoin:round;stroke-miterlimit:2;"><rect id="Rectangle-path" x="0" y="0.035" width="32" height="32" style="fill:none;"/><path d="M5.819,29.091l20.363,0l0,-1.455l2.91,0l0,1.455c0,1.604 -1.305,2.909 -2.91,2.909l-20.363,0c-1.605,0 -2.909,-1.305 -2.909,-2.909l0,-1.455l2.909,0l0,1.455Zm5.818,-11.636l0,2.909c0,2.405 1.958,4.363 4.364,4.363c2.405,0 4.363,-1.958 4.363,-4.363l0,-2.909c0,-2.406 -1.958,-4.364 -4.363,-4.364c-2.406,0 -4.364,1.958 -4.364,4.364Zm18.909,-4.364l0,2.909l-4.364,0c-0.801,0 -1.454,0.652 -1.454,1.455l0,2.909c0,0.803 0.653,1.454 1.454,1.454l4.364,0l0,2.909l-4.364,0c-2.405,0 -4.363,-1.958 -4.363,-4.363l0,-2.909c0,-2.406 1.958,-4.364 4.363,-4.364l4.364,0Zm-13.091,4.364l0,2.909c0,0.803 -0.653,1.454 -1.454,1.454c-0.802,0 -1.455,-0.651 -1.455,-1.454l0,-2.909c0,-0.803 0.653,-1.455 1.455,-1.455c0.801,0 1.454,0.652 1.454,1.455Zm11.637,-7.273l-2.91,0l0,-1.455l-5.818,0l0,-5.818l-14.545,0l0,7.273l-2.909,0l0,-7.273c0,-1.603 1.304,-2.909 2.909,-2.909l16.602,0l6.671,6.671l0,3.511Z"/><path d="M1.306,13.091l4.364,0c2.405,0 4.363,1.958 4.363,4.364l0,2.909c0,2.405 -1.958,4.363 -4.363,4.363l-4.364,0l0,-11.636Zm4.364,2.909l-1.461,0l0,5.818l1.461,0c0.801,0 1.454,-0.651 1.454,-1.454l0,-2.909c0,-0.803 -0.653,-1.455 -1.454,-1.455Z"/></svg>