<?xml version="1.0" encoding="UTF-8" standalone="no"?><!DOCTYPE svg PUBLIC "-//W3C//DTD SVG 1.1//EN" "http://www.w3.org/Graphics/SVG/1.1/DTD/svg11.dtd"><svg width="100%" height="100%" viewBox="0 0 32 32" version="1.1" xmlns="http://www.w3.org/2000/svg" xmlns:xlink="http://www.w3.org/1999/xlink" xml:space="preserve" xmlns:serif="http://www.serif.com/" style="fill-rule:evenodd;clip-rule:evenodd;stroke-linejoin:round;stroke-miterlimit:2;"><rect id="Rectangle-path" x="0" y="0.035" width="32" height="32" style="fill:none;"/><path d="M4.703,29.133c-3.652,-3.768 -3.584,-9.844 0.086,-13.598l13.11,-13.41c2.77,-2.834 7.272,-2.834 10.042,0c2.744,2.805 2.747,7.333 0,10.142l-11.428,11.678c-1.866,1.909 -4.914,1.882 -6.749,-0.062c-1.767,-1.874 -1.71,-4.842 0.091,-6.685l8.984,-9.177c0.387,-0.395 1.02,-0.401 1.414,-0.015l1.429,1.399c0.395,0.386 0.401,1.019 0.015,1.414l-8.983,9.176c-0.308,0.315 -0.327,0.839 -0.04,1.143c0.273,0.29 0.702,0.295 0.98,0.011l11.428,-11.679c1.226,-1.254 1.226,-3.295 0,-4.55c-1.2,-1.226 -3.123,-1.227 -4.323,0l-13.11,13.41c-2.172,2.223 -2.206,5.82 -0.074,8.02c2.126,2.193 5.561,2.196 7.691,0.018l10.754,-11c0.386,-0.395 1.019,-0.402 1.414,-0.016l1.43,1.398c0.395,0.386 0.402,1.019 0.016,1.414l-10.754,11c-3.724,3.808 -9.746,3.763 -13.423,-0.031Z" style="fill-rule:nonzero;"/></svg>