<?xml version="1.0" encoding="UTF-8" standalone="no"?><!DOCTYPE svg PUBLIC "-//W3C//DTD SVG 1.1//EN" "http://www.w3.org/Graphics/SVG/1.1/DTD/svg11.dtd"><svg width="100%" height="100%" viewBox="0 0 32 32" version="1.1" xmlns="http://www.w3.org/2000/svg" xmlns:xlink="http://www.w3.org/1999/xlink" xml:space="preserve" xmlns:serif="http://www.serif.com/" style="fill-rule:evenodd;clip-rule:evenodd;stroke-linejoin:round;stroke-miterlimit:2;"><rect id="Rectangle-path" x="0" y="0.035" width="32" height="32" style="fill:none;"/><path d="M30.667,5.333l-24.445,0c-1.159,0 -2.147,0.744 -2.514,1.778l-2.375,0c-0.736,0 -1.333,0.597 -1.333,1.333l0,15.112c0,1.718 1.393,3.111 3.111,3.111l27.556,0c0.736,0 1.333,-0.597 1.333,-1.334l0,-18.666c0,-0.737 -0.597,-1.334 -1.333,-1.334Zm-28,18.223l0,-13.778l0.889,0l0,13.778c0,0.245 -0.2,0.444 -0.445,0.444c-0.245,0 -0.444,-0.199 -0.444,-0.444Zm26.666,0.444l-23.143,0c0.021,-0.145 0.032,-0.294 0.032,-0.444l0,-15.556l23.111,0l0,16Zm-19.777,-6.667l7.555,0c0.368,0 0.667,-0.298 0.667,-0.666l0,-5.334c0,-0.368 -0.299,-0.666 -0.667,-0.666l-7.555,0c-0.369,0 -0.667,0.298 -0.667,0.666l0,5.334c0,0.368 0.298,0.666 0.667,0.666Zm1.555,-4.444l4.445,0l0,2.222l-4.445,0l0,-2.222Zm-2.222,7.778l0,-1.334c0,-0.368 0.298,-0.666 0.667,-0.666l7.555,0c0.368,0 0.667,0.298 0.667,0.666l0,1.334c0,0.368 -0.299,0.666 -0.667,0.666l-7.555,0c-0.369,0 -0.667,-0.298 -0.667,-0.666Zm10.667,0l0,-1.334c0,-0.368 0.298,-0.666 0.666,-0.666l5.778,0c0.368,0 0.667,0.298 0.667,0.666l0,1.334c0,0.368 -0.299,0.666 -0.667,0.666l-5.778,0c-0.368,0 -0.666,-0.298 -0.666,-0.666Zm0,-8l0,-1.334c0,-0.368 0.298,-0.666 0.666,-0.666l5.778,0c0.368,0 0.667,0.298 0.667,0.666l0,1.334c0,0.368 -0.299,0.666 -0.667,0.666l-5.778,0c-0.368,0 -0.666,-0.298 -0.666,-0.666Zm0,4l0,-1.334c0,-0.368 0.298,-0.666 0.666,-0.666l5.778,0c0.368,0 0.667,0.298 0.667,0.666l0,1.334c0,0.368 -0.299,0.666 -0.667,0.666l-5.778,0c-0.368,0 -0.666,-0.298 -0.666,-0.666Z" style="fill-rule:nonzero;"/></svg>