<?xml version="1.0" encoding="UTF-8" standalone="no"?><!DOCTYPE svg PUBLIC "-//W3C//DTD SVG 1.1//EN" "http://www.w3.org/Graphics/SVG/1.1/DTD/svg11.dtd"><svg width="100%" height="100%" viewBox="0 0 32 32" version="1.1" xmlns="http://www.w3.org/2000/svg" xmlns:xlink="http://www.w3.org/1999/xlink" xml:space="preserve" xmlns:serif="http://www.serif.com/" style="fill-rule:evenodd;clip-rule:evenodd;stroke-linejoin:round;stroke-miterlimit:1.41421;"><rect id="Rectangle-path" x="0" y="0.035" width="32" height="32" style="fill:none;"/><path d="M16,26.676c1.469,0 2.662,1.192 2.662,2.662c0,1.469 -1.193,2.662 -2.662,2.662c-1.469,0 -2.662,-1.193 -2.662,-2.662c0,-1.47 1.193,-2.662 2.662,-2.662Zm0,-13.329c1.469,0 2.662,1.193 2.662,2.662c0,1.469 -1.193,2.662 -2.662,2.662c-1.469,0 -2.662,-1.193 -2.662,-2.662c0,-1.469 1.193,-2.662 2.662,-2.662Zm0,-13.347c1.469,0 2.662,1.193 2.662,2.662c0,1.47 -1.193,2.662 -2.662,2.662c-1.469,0 -2.662,-1.192 -2.662,-2.662c0,-1.469 1.193,-2.662 2.662,-2.662Z"/></svg>