<?xml version="1.0" encoding="UTF-8" standalone="no"?><!DOCTYPE svg PUBLIC "-//W3C//DTD SVG 1.1//EN" "http://www.w3.org/Graphics/SVG/1.1/DTD/svg11.dtd"><svg width="100%" height="100%" viewBox="0 0 32 32" version="1.1" xmlns="http://www.w3.org/2000/svg" xmlns:xlink="http://www.w3.org/1999/xlink" xml:space="preserve" xmlns:serif="http://www.serif.com/" style="fill-rule:evenodd;clip-rule:evenodd;stroke-linejoin:round;stroke-miterlimit:1.41421;"><rect id="Rectangle-path" x="0" y="0.035" width="32" height="32" style="fill:none;"/><path id="Rectangle-6" d="M14,14l0,-12c0,-1.104 0.896,-2 2,-2c1.104,0 2,0.896 2,2l0,12l12,0c1.104,0 2,0.896 2,2c0,1.104 -0.896,2 -2,2l-12,0l0,12c0,1.104 -0.896,2 -2,2c-1.104,0 -2,-0.896 -2,-2l0,-12l-12,0c-1.104,0 -2,-0.896 -2,-2c0,-1.104 0.896,-2 2,-2l12,0Z"/></svg>