<?xml version="1.0" encoding="UTF-8" standalone="no"?><!DOCTYPE svg PUBLIC "-//W3C//DTD SVG 1.1//EN" "http://www.w3.org/Graphics/SVG/1.1/DTD/svg11.dtd"><svg width="100%" height="100%" viewBox="0 0 32 32" version="1.1" xmlns="http://www.w3.org/2000/svg" xmlns:xlink="http://www.w3.org/1999/xlink" xml:space="preserve" xmlns:serif="http://www.serif.com/" style="fill-rule:evenodd;clip-rule:evenodd;stroke-linejoin:round;stroke-miterlimit:2;"><rect id="Rectangle-path" x="0" y="0.035" width="32" height="32" style="fill:none;"/><path id="Shape" d="M26.857,0l-21.771,0c-0.972,0 -2.8,0.594 -2.8,2.857l0,26.286c0,2.263 1.874,2.857 2.857,2.857l17.143,0c1.874,0 2.605,-1.291 2.8,-2.286l1.771,0c0.983,0 2.857,-0.594 2.857,-2.857l0,-24c0,-2.263 -1.874,-2.857 -2.857,-2.857Zm-2.857,29.143c0,0.286 -0.103,1.714 -1.714,1.714l-17.143,0c-0.286,0 -1.714,-0.103 -1.714,-1.714l0,-23.954c0.571,0.388 1.245,0.525 1.714,0.525l17.143,0c0.285,0 1.714,0.103 1.714,1.715l0,21.714Zm4.571,-2.286c0,1.612 -1.428,1.714 -1.714,1.714l-1.714,0l0,-21.142c0,-2.263 -1.874,-2.858 -2.857,-2.858l-17.143,0c-0.286,0 -1.714,-0.102 -1.714,-1.714c0,-1.611 1.382,-1.714 1.657,-1.714l21.771,0c0.286,0 1.714,0.103 1.714,1.714l0,24Zm-21.714,-13.143l13.714,0l0,-4.571l-13.714,0l0,4.571Zm1.143,-3.428l11.429,0l0,2.285l-11.429,0l0,-2.285Zm19.429,-5.143l0,21.143l-1.143,0l0,-21.143c0,-1.612 -1.429,-1.714 -1.715,-1.714l-19.428,0l0,-1.143l19.428,0c0.983,0 2.858,0.594 2.858,2.857Z" style="fill-rule:nonzero;"/></svg>