<?xml version="1.0" encoding="UTF-8" standalone="no"?><!DOCTYPE svg PUBLIC "-//W3C//DTD SVG 1.1//EN" "http://www.w3.org/Graphics/SVG/1.1/DTD/svg11.dtd"><svg width="100%" height="100%" viewBox="0 0 32 32" version="1.1" xmlns="http://www.w3.org/2000/svg" xmlns:xlink="http://www.w3.org/1999/xlink" xml:space="preserve" xmlns:serif="http://www.serif.com/" style="fill-rule:evenodd;clip-rule:evenodd;stroke-linejoin:round;stroke-miterlimit:1.41421;"><rect id="Rectangle-path" x="0" y="0.035" width="32" height="32" style="fill:none;"/><path d="M32,0c0,0 0,0 0,0l0,18.667l0,0l0,13.333l-32,0l0,-32l32,0Zm-28.667,28.667l5.334,0l0,-10l0,0l0,-15.334l-5.334,0l0,25.334Zm8.667,-10l0,10l6.667,0l0,-10l-6.667,0Zm16.667,0l-6.667,0l0,10l6.667,0l0,-10Zm-16.667,-3.334l16.667,0l0,-12l-16.667,0l0,12Z" style="fill-rule:nonzero;"/></svg>