<?xml version="1.0" encoding="UTF-8" standalone="no"?><!DOCTYPE svg PUBLIC "-//W3C//DTD SVG 1.1//EN" "http://www.w3.org/Graphics/SVG/1.1/DTD/svg11.dtd"><svg width="100%" height="100%" viewBox="0 0 32 32" version="1.1" xmlns="http://www.w3.org/2000/svg" xmlns:xlink="http://www.w3.org/1999/xlink" xml:space="preserve" xmlns:serif="http://www.serif.com/" style="fill-rule:evenodd;clip-rule:evenodd;stroke-linejoin:round;stroke-miterlimit:1.41421;"><rect id="Rectangle-path" x="0" y="0.035" width="32" height="32" style="fill:none;"/><g><path d="M31.182,22.222l-0.231,0c-0.488,0 -0.889,0.401 -0.889,0.889l0,5.333c-0.066,1.038 -0.971,1.839 -2.009,1.778l-24.017,0c-1.038,0.061 -1.943,-0.74 -2.009,-1.778l0,-5.333c0,-0.488 -0.402,-0.889 -0.889,-0.889l-0.231,0c-0.006,0 -0.012,0 -0.018,0c-0.488,0 -0.889,0.401 -0.889,0.889l0,5.333c0.132,2.075 1.942,3.677 4.018,3.556l24.035,0c2.05,0.081 3.814,-1.509 3.947,-3.556l0,-5.333c0.001,-0.462 -0.357,-0.852 -0.818,-0.889Z" style="fill-rule:nonzero;"/><path d="M23.236,16.871c-0.518,-0.516 -1.368,-0.516 -1.885,0l-4.018,4.018l0,-19.556c0,-0.731 -0.602,-1.333 -1.333,-1.333c-0.731,0 -1.333,0.602 -1.333,1.333l0,19.556l-4,-4.018c-0.517,-0.516 -1.368,-0.516 -1.885,0c-0.509,0.527 -0.509,1.375 0,1.902l5.334,5.334c0.497,0.503 1.176,0.787 1.884,0.787c0.708,0 1.387,-0.284 1.884,-0.787l5.334,-5.334c0.514,-0.522 0.522,-1.37 0.018,-1.902Z" style="fill-rule:nonzero;"/></g></svg>