<?xml version="1.0" encoding="UTF-8" standalone="no"?><!DOCTYPE svg PUBLIC "-//W3C//DTD SVG 1.1//EN" "http://www.w3.org/Graphics/SVG/1.1/DTD/svg11.dtd"><svg width="100%" height="100%" viewBox="0 0 32 32" version="1.1" xmlns="http://www.w3.org/2000/svg" xmlns:xlink="http://www.w3.org/1999/xlink" xml:space="preserve" xmlns:serif="http://www.serif.com/" style="fill-rule:evenodd;clip-rule:evenodd;stroke-linejoin:round;stroke-miterlimit:1.41421;"><rect id="Rectangle-path" x="0" y="0.035" width="32" height="32" style="fill:none;"/><path id="Shape" d="M17.6,4c-5.634,0 -10.307,4.179 -11.086,9.6l-0.114,0c-3.53,0 -6.4,2.872 -6.4,6.4l0,3.2c0,0.885 0.717,1.6 1.6,1.6l3.496,0c0.662,1.859 2.421,3.2 4.504,3.2c2.083,0 3.842,-1.341 4.506,-3.2l5.39,0c0.662,1.859 2.422,3.2 4.504,3.2c2.082,0 3.842,-1.341 4.506,-3.2l1.894,0c0.883,0 1.6,-0.715 1.6,-1.6l0,-4.8c0,-7.941 -6.461,-14.4 -14.4,-14.4Zm10.104,9.6l-8.504,0l0,-6.272c3.765,0.542 6.922,2.957 8.504,6.272Zm-11.704,-6.237l0,6.237l-6.238,0c0.638,-3.13 3.108,-5.6 6.238,-6.237Zm-6.4,17.437c-0.882,0 -1.6,-0.718 -1.6,-1.6c0,-0.882 0.718,-1.6 1.6,-1.6c0.882,0 1.6,0.718 1.6,1.6c0,0.882 -0.718,1.6 -1.6,1.6Zm14.4,0c-0.882,0 -1.6,-0.718 -1.6,-1.6c0,-0.882 0.718,-1.6 1.6,-1.6c0.882,0 1.6,0.718 1.6,1.6c0,0.882 -0.718,1.6 -1.6,1.6Zm4.8,-3.2l-0.294,0c-0.664,-1.859 -2.423,-3.2 -4.506,-3.2c-2.083,0 -3.842,1.341 -4.504,3.2l-5.39,0c-0.664,-1.859 -2.423,-3.2 -4.506,-3.2c-2.083,0 -3.842,1.341 -4.504,3.2l-1.896,0l0,-1.6c0,-1.766 1.435,-3.2 3.2,-3.2l22.272,0c0.075,0.525 0.128,1.056 0.128,1.6l0,3.2Z" style="fill-rule:nonzero;"/></svg>