<?xml version="1.0" encoding="UTF-8" standalone="no"?><!DOCTYPE svg PUBLIC "-//W3C//DTD SVG 1.1//EN" "http://www.w3.org/Graphics/SVG/1.1/DTD/svg11.dtd"><svg width="100%" height="100%" viewBox="0 0 32 32" version="1.1" xmlns="http://www.w3.org/2000/svg" xmlns:xlink="http://www.w3.org/1999/xlink" xml:space="preserve" xmlns:serif="http://www.serif.com/" style="fill-rule:evenodd;clip-rule:evenodd;stroke-linejoin:round;stroke-miterlimit:1.41421;"><rect id="Rectangle-path" x="0" y="0.035" width="32" height="32" style="fill:none;"/><path d="M24,32l-17.6,0c-1.765,0 -3.2,-1.435 -3.2,-3.2l0,-25.6c0,-1.763 1.435,-3.2 3.2,-3.2l17.6,0c1.765,0 3.2,1.437 3.2,3.2l0,4.8l-3.2,0l0,-4.8l-17.6,0l0,25.6l17.6,0l0,-4.8l3.2,0l0,4.8c0,1.765 -1.435,3.2 -3.2,3.2Zm4.8,-17.6l-13.744,0l3.675,-3.667l-2.262,-2.266l-7.531,7.519l7.529,7.544l2.266,-2.26l-3.664,-3.67l13.731,0l0,-3.2Z" style="fill-rule:nonzero;"/></svg>