<?xml version="1.0" encoding="UTF-8" standalone="no"?><!DOCTYPE svg PUBLIC "-//W3C//DTD SVG 1.1//EN" "http://www.w3.org/Graphics/SVG/1.1/DTD/svg11.dtd"><svg width="100%" height="100%" viewBox="0 0 32 32" version="1.1" xmlns="http://www.w3.org/2000/svg" xmlns:xlink="http://www.w3.org/1999/xlink" xml:space="preserve" xmlns:serif="http://www.serif.com/" style="fill-rule:evenodd;clip-rule:evenodd;stroke-linejoin:round;stroke-miterlimit:1.41421;"><rect id="Rectangle-path" x="0" y="0.035" width="32" height="32" style="fill:none;"/><path id="Oval-2" d="M20.743,23.178c-2.172,1.659 -4.887,2.645 -7.831,2.645c-7.131,0 -12.912,-5.78 -12.912,-12.911c0,-7.131 5.781,-12.912 12.912,-12.912c7.131,0 12.911,5.781 12.911,12.912c0,2.944 -0.986,5.659 -2.645,7.831l8.318,8.318c0.672,0.672 0.672,1.762 0,2.435c-0.673,0.672 -1.763,0.672 -2.435,0l-8.318,-8.318Zm-7.831,-19.735c-5.23,0 -9.469,4.239 -9.469,9.469c0,5.229 4.239,9.468 9.469,9.468l0.061,0c5.201,-0.033 9.407,-4.259 9.407,-9.468c0,-5.209 -4.206,-9.436 -9.407,-9.469l-0.061,0Z" style="fill-rule:nonzero;"/></svg>