<?xml version="1.0" encoding="UTF-8" standalone="no"?><!DOCTYPE svg PUBLIC "-//W3C//DTD SVG 1.1//EN" "http://www.w3.org/Graphics/SVG/1.1/DTD/svg11.dtd"><svg width="100%" height="100%" viewBox="0 0 32 32" version="1.1" xmlns="http://www.w3.org/2000/svg" xmlns:xlink="http://www.w3.org/1999/xlink" xml:space="preserve" xmlns:serif="http://www.serif.com/" style="fill-rule:evenodd;clip-rule:evenodd;stroke-linejoin:round;stroke-miterlimit:1.41421;"><rect id="Rectangle-path" x="0" y="0.035" width="32" height="32" style="fill:none;"/><path d="M16.122,0.001c7.312,0.139 14.127,5.764 15.507,12.971c1.377,7.187 -2.875,15.071 -9.665,17.845c-5.676,2.319 -12.644,1.001 -17.087,-3.235c-4.996,-4.763 -6.364,-12.893 -3.121,-19.038c2.667,-5.055 8.163,-8.433 13.953,-8.543c0.207,-0.001 0.206,-0.001 0.413,0Zm-0.4,1c-6.87,0.131 -13.244,5.405 -14.538,12.159c-1.291,6.741 2.695,14.13 9.062,16.732c5.321,2.174 11.853,0.937 16.019,-3.034c4.675,-4.458 5.965,-12.088 2.926,-17.848c-2.494,-4.727 -7.609,-7.905 -13.081,-8.009c-0.195,-0.001 -0.194,-0.001 -0.388,0Z" style="fill-rule:nonzero;"/><path d="M17.823,11.527c-0.109,0.012 -0.2,0.05 -0.286,0.118c-1.377,1.273 -2.653,2.651 -3.979,3.976c-0.175,0.191 -0.188,0.474 -0.026,0.679c1.289,1.394 2.684,2.686 4.026,4.029c0.389,0.358 1.124,-0.257 0.708,-0.708l-3.647,-3.646l3.597,-3.596c0.13,-0.142 0.124,-0.176 0.14,-0.276c0.046,-0.293 -0.184,-0.59 -0.533,-0.576Z" style="fill-rule:nonzero;"/></svg>