<?xml version="1.0" encoding="UTF-8" standalone="no"?><!DOCTYPE svg PUBLIC "-//W3C//DTD SVG 1.1//EN" "http://www.w3.org/Graphics/SVG/1.1/DTD/svg11.dtd"><svg width="100%" height="100%" viewBox="0 0 32 32" version="1.1" xmlns="http://www.w3.org/2000/svg" xmlns:xlink="http://www.w3.org/1999/xlink" xml:space="preserve" xmlns:serif="http://www.serif.com/" style="fill-rule:evenodd;clip-rule:evenodd;stroke-linejoin:round;stroke-miterlimit:1.41421;"><rect id="Rectangle-path" x="0" y="0.035" width="32" height="32" style="fill:none;"/><path d="M27.892,17.568c0.064,-0.512 0.112,-1.024 0.112,-1.568c0,-0.544 -0.048,-1.056 -0.112,-1.568l3.376,-2.64c0.304,-0.24 0.384,-0.672 0.192,-1.024l-3.2,-5.536c-0.192,-0.352 -0.624,-0.48 -0.976,-0.352l-3.984,1.6c-0.832,-0.64 -1.728,-1.168 -2.704,-1.568l-0.608,-4.24c-0.048,-0.384 -0.384,-0.672 -0.784,-0.672l-6.4,0c-0.4,0 -0.736,0.288 -0.784,0.672l-0.608,4.24c-0.976,0.4 -1.872,0.944 -2.704,1.568l-3.984,-1.6c-0.368,-0.144 -0.784,0 -0.976,0.352l-3.2,5.536c-0.208,0.352 -0.112,0.784 0.192,1.024l3.376,2.64c-0.064,0.512 -0.112,1.04 -0.112,1.568c0,0.528 0.048,1.056 0.112,1.568l-3.376,2.64c-0.304,0.24 -0.384,0.672 -0.192,1.024l3.2,5.536c0.192,0.352 0.624,0.48 0.976,0.352l3.984,-1.6c0.832,0.64 1.728,1.168 2.704,1.568l0.608,4.24c0.048,0.384 0.384,0.672 0.784,0.672l6.4,0c0.4,0 0.736,-0.288 0.784,-0.672l0.608,-4.24c0.976,-0.4 1.872,-0.944 2.704,-1.568l3.984,1.6c0.368,0.144 0.784,0 0.976,-0.352l3.2,-5.536c0.192,-0.352 0.112,-0.784 -0.192,-1.024l-3.376,-2.64Zm-11.888,4.032c-3.088,0 -5.6,-2.512 -5.6,-5.6c0,-3.088 2.512,-5.6 5.6,-5.6c3.088,0 5.6,2.512 5.6,5.6c0,3.088 -2.512,5.6 -5.6,5.6Z"/></svg>