<?xml version="1.0" encoding="UTF-8" standalone="no"?><!DOCTYPE svg PUBLIC "-//W3C//DTD SVG 1.1//EN" "http://www.w3.org/Graphics/SVG/1.1/DTD/svg11.dtd"><svg width="100%" height="100%" viewBox="0 0 32 32" version="1.1" xmlns="http://www.w3.org/2000/svg" xmlns:xlink="http://www.w3.org/1999/xlink" xml:space="preserve" xmlns:serif="http://www.serif.com/" style="fill-rule:evenodd;clip-rule:evenodd;stroke-linejoin:round;stroke-miterlimit:1.41421;"><rect id="Rectangle-path" x="0" y="0.035" width="32" height="32" style="fill:none;"/><path d="M13.606,2.494l1.585,-1.585c0.672,-0.672 1.757,-0.672 2.421,0l13.884,13.877c0.672,0.671 0.672,1.757 0,2.421l-13.884,13.884c-0.671,0.672 -1.757,0.672 -2.421,0l-1.585,-1.585c-0.679,-0.679 -0.665,-1.786 0.028,-2.45l8.606,-8.199l-20.526,0c-0.95,0 -1.714,-0.764 -1.714,-1.714l0,-2.286c0,-0.95 0.764,-1.714 1.714,-1.714l20.526,0l-8.606,-8.199c-0.7,-0.664 -0.714,-1.771 -0.028,-2.45Z" style="fill-rule:nonzero;"/></svg>