<?xml version="1.0" encoding="UTF-8" standalone="no"?><!DOCTYPE svg PUBLIC "-//W3C//DTD SVG 1.1//EN" "http://www.w3.org/Graphics/SVG/1.1/DTD/svg11.dtd"><svg width="100%" height="100%" viewBox="0 0 32 32" version="1.1" xmlns="http://www.w3.org/2000/svg" xmlns:xlink="http://www.w3.org/1999/xlink" xml:space="preserve" xmlns:serif="http://www.serif.com/" style="fill-rule:evenodd;clip-rule:evenodd;stroke-linejoin:round;stroke-miterlimit:1.41421;"><rect id="Rectangle-path" x="0" y="0.035" width="32" height="32" style="fill:none;"/><path d="M25.704,0c-0.012,0 -0.024,0 -0.036,0c-3.376,0 -6.155,2.779 -6.155,6.155c0,0.769 0.144,1.531 0.425,2.247l-8.667,3.979c-1.157,-1.66 -3.057,-2.653 -5.08,-2.653c-3.396,0 -6.191,2.795 -6.191,6.191c0,3.396 2.795,6.19 6.191,6.19c2.023,0 3.923,-0.992 5.08,-2.653l8.649,4.033c-0.289,0.684 -0.451,1.416 -0.478,2.158c0,0.028 0,0.055 0,0.083c0,3.444 2.834,6.279 6.279,6.279c3.445,0 6.279,-2.835 6.279,-6.279c0,-3.445 -2.834,-6.279 -6.279,-6.279c-1.954,0 -3.8,0.912 -4.987,2.464l-8.685,-4.086c0.206,-0.616 0.313,-1.261 0.319,-1.91c-0.012,-0.662 -0.125,-1.318 -0.337,-1.946l8.756,-4.086c1.167,1.568 3.011,2.494 4.965,2.494c3.396,0 6.191,-2.794 6.191,-6.19c0,-3.396 -2.795,-6.191 -6.191,-6.191c-0.016,0 -0.032,0 -0.048,0Zm0,10.613c-0.024,0 -0.047,0 -0.071,0c-2.425,0 -4.421,-1.996 -4.421,-4.422c0,-2.425 1.996,-4.422 4.421,-4.422c2.406,0 4.393,1.963 4.422,4.369c0.029,2.419 -1.932,4.436 -4.351,4.475Zm-19.456,9.781c-0.024,0 -0.047,0 -0.071,0c-2.425,0 -4.422,-1.996 -4.422,-4.422c0,-2.425 1.997,-4.421 4.422,-4.421c2.406,0 4.393,1.963 4.422,4.368c0,2.426 -1.996,4.422 -4.422,4.422l0.071,0.053Zm19.456,9.728c-0.024,0 -0.047,0 -0.071,0c-2.425,0 -4.421,-1.996 -4.421,-4.421c0,-2.426 1.996,-4.422 4.421,-4.422c2.406,0 4.393,1.963 4.422,4.368c0,2.426 -1.996,4.422 -4.422,4.422l0.071,0.053Z" style="fill-rule:nonzero;"/></svg>