<?xml version="1.0" encoding="UTF-8" standalone="no"?><!DOCTYPE svg PUBLIC "-//W3C//DTD SVG 1.1//EN" "http://www.w3.org/Graphics/SVG/1.1/DTD/svg11.dtd"><svg width="100%" height="100%" viewBox="0 0 32 32" version="1.1" xmlns="http://www.w3.org/2000/svg" xmlns:xlink="http://www.w3.org/1999/xlink" xml:space="preserve" xmlns:serif="http://www.serif.com/" style="fill-rule:evenodd;clip-rule:evenodd;stroke-linejoin:round;stroke-miterlimit:2;"><rect id="Rectangle-path" x="0" y="0.035" width="32" height="32" style="fill:none;"/><path d="M1.455,23.273c-0.803,0 -1.455,0.651 -1.455,1.454l0,2.909c0,0.805 0.652,1.455 1.455,1.455c0.802,0 1.454,-0.65 1.454,-1.455l0,-2.909c0,-0.803 -0.652,-1.454 -1.454,-1.454Zm29.741,-12.937l-14.546,-7.273c-0.408,-0.205 -0.891,-0.205 -1.302,0l-14.545,7.273c-0.291,0.144 -0.515,0.397 -0.647,0.672c-0.088,0.177 -0.156,0.48 -0.156,0.628l0,8.386c0,0.801 0.652,1.454 1.455,1.454c0.802,0 1.454,-0.653 1.454,-1.454l0,-6.236l2.909,1.164l0,7.133c0,0.55 0.311,1.053 0.805,1.3c2.5,1.248 5.07,2.791 9.377,2.791c4.307,0 6.879,-1.543 9.378,-2.791c0.493,-0.249 0.804,-0.75 0.804,-1.302l0,-7.133l4.905,-1.962c0.531,-0.212 0.888,-0.717 0.912,-1.29c0.024,-0.572 -0.291,-1.103 -0.803,-1.36Zm-7.923,10.846l-1.418,0.709c-3.667,1.834 -8.044,1.834 -11.71,0l-1.418,-0.709l0,-5.069l6.732,2.694c0.175,0.07 0.358,0.102 0.541,0.102c0.183,0 0.367,-0.032 0.541,-0.103l6.732,-2.694l0,5.07Zm-7.273,-5.294l-10.998,-4.4l10.998,-5.497l10.998,5.497l-10.998,4.4Z" style="fill-rule:nonzero;"/></svg>