<?xml version="1.0" encoding="UTF-8" standalone="no"?><!DOCTYPE svg PUBLIC "-//W3C//DTD SVG 1.1//EN" "http://www.w3.org/Graphics/SVG/1.1/DTD/svg11.dtd"><svg width="100%" height="100%" viewBox="0 0 32 32" version="1.1" xmlns="http://www.w3.org/2000/svg" xmlns:xlink="http://www.w3.org/1999/xlink" xml:space="preserve" xmlns:serif="http://www.serif.com/" style="fill-rule:evenodd;clip-rule:evenodd;stroke-linejoin:round;stroke-miterlimit:2;"><rect id="Rectangle-path" x="0" y="0.035" width="32" height="32" style="fill:none;"/><path id="Shape" d="M25.846,0l-19.692,0c-2.462,0 -2.462,2.462 -2.462,2.462l0,27.076c0,2.462 2.462,2.462 2.462,2.462l19.692,0c2.462,0 2.462,-2.462 2.462,-2.462l0,-27.076c0,-2.462 -2.462,-2.462 -2.462,-2.462Zm1.231,29.526c-0.012,0.566 -0.234,1.243 -1.231,1.243l-19.68,0c-0.566,-0.012 -1.243,-0.234 -1.243,-1.231l0,-27.064c0.012,-0.566 0.234,-1.243 1.231,-1.243l19.68,0c0.566,0.012 1.243,0.246 1.243,1.231l0,27.064Zm-3.692,-25.834l-14.77,0l0,1.231l14.77,0l0,-1.231Zm-16,24.616l17.23,0l0,-20.923l-17.23,0l0,20.923Zm12.307,-19.693l3.693,0l0,3.693l-3.693,0l0,-3.693Zm0,4.923l3.693,0l0,3.693l-3.693,0l0,-3.693Zm0,4.924l3.693,0l0,3.692l-3.693,0l0,-3.692Zm0,4.923l3.693,0l0,3.692l-3.693,0l0,-3.692Zm-11.077,-14.77l9.847,0l0,3.693l-9.847,0l0,-3.693Zm0,4.923l9.847,0l0,3.693l-9.847,0l0,-3.693Zm0,4.924l9.847,0l0,3.692l-9.847,0l0,-3.692Zm0,4.923l9.847,0l0,3.692l-9.847,0l0,-3.692Z" style="fill-rule:nonzero;"/></svg>