<?xml version="1.0" encoding="UTF-8" standalone="no"?><!DOCTYPE svg PUBLIC "-//W3C//DTD SVG 1.1//EN" "http://www.w3.org/Graphics/SVG/1.1/DTD/svg11.dtd"><svg width="100%" height="100%" viewBox="0 0 32 32" version="1.1" xmlns="http://www.w3.org/2000/svg" xmlns:xlink="http://www.w3.org/1999/xlink" xml:space="preserve" xmlns:serif="http://www.serif.com/" style="fill-rule:evenodd;clip-rule:evenodd;stroke-linejoin:round;stroke-miterlimit:1.41421;"><rect id="Rectangle-path" x="0" y="0.035" width="32" height="32" style="fill:none;"/><g><path d="M27.2,6.397c1.203,-0.064 2.344,0.556 2.944,1.6c0.167,0.304 0.255,0.645 0.256,0.992l0,14.016c-0.191,1.576 -1.618,2.732 -3.2,2.592l-22.4,0c-1.582,0.14 -3.009,-1.016 -3.2,-2.592l0,-14.016c0.003,-0.349 0.096,-0.691 0.272,-0.992c0.598,-1.039 1.731,-1.658 2.928,-1.6l22.4,0m0,-1.6l-22.4,0c-1.779,-0.062 -3.453,0.87 -4.336,2.416c-0.304,0.543 -0.464,1.154 -0.464,1.776l0,14.016c0.178,2.461 2.337,4.347 4.8,4.192l22.4,0c2.463,0.155 4.622,-1.731 4.8,-4.192l0,-14.016c-0.005,-0.602 -0.153,-1.194 -0.432,-1.728c-0.876,-1.575 -2.567,-2.529 -4.368,-2.464Z" style="fill-rule:nonzero;"/><path d="M27.2,6.397c0.876,-0.001 1.715,0.358 2.32,0.992l-11.2,11.2c-0.601,0.605 -1.419,0.945 -2.272,0.944c-0.849,0.007 -1.665,-0.334 -2.256,-0.944l-11.2,-11.2c0.578,-0.607 1.371,-0.963 2.208,-0.992l22.4,0m0,-1.6l-22.4,0c-1.856,0.005 -3.55,1.086 -4.336,2.768l12.176,12.176c0.9,0.904 2.125,1.412 3.4,1.412c1.275,0 2.5,-0.508 3.4,-1.412l12.128,-12.128c-0.777,-1.711 -2.489,-2.815 -4.368,-2.816Z" style="fill-rule:nonzero;"/><path d="M21.312,16.589l-1.136,1.136l8.992,9.008l1.136,-1.136l-8.992,-9.008Zm-10.448,-0.16l-9.168,9.168l1.136,1.136l9.168,-9.168l-1.136,-1.136Z" style="fill-rule:nonzero;"/></g></svg>