<?xml version="1.0" encoding="UTF-8" standalone="no"?><!DOCTYPE svg PUBLIC "-//W3C//DTD SVG 1.1//EN" "http://www.w3.org/Graphics/SVG/1.1/DTD/svg11.dtd"><svg width="100%" height="100%" viewBox="0 0 32 32" version="1.1" xmlns="http://www.w3.org/2000/svg" xmlns:xlink="http://www.w3.org/1999/xlink" xml:space="preserve" xmlns:serif="http://www.serif.com/" style="fill-rule:evenodd;clip-rule:evenodd;stroke-linejoin:round;stroke-miterlimit:2;"><rect id="Rectangle-path" x="0" y="0.035" width="32" height="32" style="fill:none;"/><path d="M20.413,11.586c3.734,3.739 3.683,9.732 0.022,13.412c-0.007,0.008 -0.015,0.016 -0.022,0.023l-4.2,4.2c-3.705,3.705 -9.731,3.704 -13.435,0c-3.705,-3.703 -3.705,-9.731 0,-13.435l2.319,-2.319c0.615,-0.615 1.674,-0.206 1.706,0.663c0.04,1.108 0.239,2.221 0.605,3.295c0.125,0.364 0.036,0.767 -0.236,1.039l-0.818,0.817c-1.752,1.752 -1.807,4.604 -0.072,6.373c1.751,1.786 4.63,1.797 6.395,0.032l4.2,-4.2c1.762,-1.761 1.755,-4.609 0,-6.364c-0.231,-0.231 -0.464,-0.41 -0.646,-0.535c-0.261,-0.18 -0.422,-0.472 -0.434,-0.788c-0.025,-0.661 0.209,-1.341 0.731,-1.863l1.316,-1.316c0.345,-0.345 0.886,-0.388 1.286,-0.108c0.458,0.32 0.888,0.679 1.283,1.074Zm8.808,-8.808c-3.704,-3.704 -9.73,-3.705 -13.435,0l-4.2,4.2c-0.007,0.007 -0.015,0.015 -0.022,0.023c-3.661,3.68 -3.712,9.674 0.022,13.412c0.395,0.395 0.825,0.754 1.283,1.074c0.4,0.28 0.941,0.237 1.286,-0.108l1.316,-1.316c0.522,-0.522 0.756,-1.202 0.731,-1.863c-0.012,-0.316 -0.173,-0.608 -0.434,-0.788c-0.182,-0.125 -0.415,-0.304 -0.646,-0.535c-1.755,-1.755 -1.762,-4.603 0,-6.364l4.2,-4.2c1.765,-1.765 4.644,-1.754 6.395,0.032c1.734,1.769 1.68,4.621 -0.072,6.373l-0.818,0.817c-0.272,0.272 -0.361,0.675 -0.236,1.039c0.366,1.074 0.565,2.187 0.605,3.295c0.032,0.869 1.091,1.278 1.706,0.663l2.319,-2.319c3.705,-3.704 3.705,-9.732 0,-13.435Z" style="fill-rule:nonzero;"/></svg>