<?xml version="1.0" encoding="UTF-8" standalone="no"?><!DOCTYPE svg PUBLIC "-//W3C//DTD SVG 1.1//EN" "http://www.w3.org/Graphics/SVG/1.1/DTD/svg11.dtd"><svg width="100%" height="100%" viewBox="0 0 32 32" version="1.1" xmlns="http://www.w3.org/2000/svg" xmlns:xlink="http://www.w3.org/1999/xlink" xml:space="preserve" xmlns:serif="http://www.serif.com/" style="fill-rule:evenodd;clip-rule:evenodd;stroke-linejoin:round;stroke-miterlimit:1.41421;"><rect id="Rectangle-path" x="0" y="0.035" width="32" height="32" style="fill:none;"/><path d="M24,0c0.751,0 1.4,0.523 1.562,1.253l6.4,28.8c0.105,0.474 -0.011,0.97 -0.314,1.349c-0.304,0.378 -0.763,0.598 -1.248,0.598l-28.8,0c-0.485,0 -0.944,-0.22 -1.248,-0.598c-0.304,-0.379 -0.419,-0.875 -0.314,-1.349l6.4,-28.8c0.162,-0.73 0.812,-1.253 1.562,-1.253l16,0Zm4.407,28.8l-5.69,-25.6l-5.117,0l0,6.4l-3.2,0l0,-6.4l-5.117,0l-5.688,25.6l10.805,0l0,-6.4l3.2,0l0,6.4l10.807,0Zm-10.807,-16l0,6.4l-3.2,0l0,-6.4l3.2,0Z" style="fill-rule:nonzero;"/></svg>