<?xml version="1.0" encoding="UTF-8" standalone="no"?><!DOCTYPE svg PUBLIC "-//W3C//DTD SVG 1.1//EN" "http://www.w3.org/Graphics/SVG/1.1/DTD/svg11.dtd"><svg width="100%" height="100%" viewBox="0 0 32 32" version="1.1" xmlns="http://www.w3.org/2000/svg" xmlns:xlink="http://www.w3.org/1999/xlink" xml:space="preserve" xmlns:serif="http://www.serif.com/" style="fill-rule:evenodd;clip-rule:evenodd;stroke-linejoin:round;stroke-miterlimit:2;"><rect id="Rectangle-path" x="0" y="0.035" width="32" height="32" style="fill:none;"/><path d="M8.6,5.2l0,5.386c-0.461,-0.091 -0.93,-0.136 -1.4,-0.136c-2.995,0 -5.2,2.192 -5.2,5.75c0,2.832 3.034,3.563 4.924,4.732c0.776,0.483 1.457,1.062 2.078,1.615l0.009,0.009l0.01,0.008c1.092,0.957 1.479,1.451 1.479,1.886l0,0.167c-0.31,0.36 -0.5,0.846 -0.5,1.383l0,4c0,1.105 0.806,2 1.8,2l14.4,0c0.994,0 1.8,-0.895 1.8,-2l0,-4c0,-0.537 -0.19,-1.023 -0.5,-1.383l0,-0.167c0,-1.793 2.5,-4.196 2.5,-7.95l0,-1.331c0,-3.909 -2.416,-6.175 -5.697,-6.246c-1.113,-0.781 -2.549,-1.156 -3.924,-0.999c-0.437,-0.223 -0.9,-0.39 -1.379,-0.496l0,-2.228c0,-2.84 -2.349,-5.2 -5.2,-5.2c-2.819,0 -5.2,2.381 -5.2,5.2Zm7.4,0l0,5.689c0.917,-0.802 2.677,-0.901 3.816,0.31c1.228,-0.702 2.851,-0.106 3.351,0.807c2.446,-0.407 3.833,0.63 3.833,3.163l0,1.331c0,2.843 -2.245,4.826 -2.48,7.5l-11.047,0c-0.185,-1.577 -1.326,-2.685 -2.475,-3.692c-0.79,-0.705 -1.581,-1.358 -2.492,-1.925c-1.462,-0.905 -3.506,-1.633 -3.506,-2.183c0,-1.461 0.55,-2.75 2.2,-2.75c2.2,0 3.317,1.65 4.4,1.65l0,-9.9c0,-1.152 1.031,-2.2 2.2,-2.2c1.186,0 2.2,1.014 2.2,2.2Zm8,21.3c0.828,0 1.5,0.672 1.5,1.5c0,0.828 -0.672,1.5 -1.5,1.5c-0.828,0 -1.5,-0.672 -1.5,-1.5c0,-0.828 0.672,-1.5 1.5,-1.5Z" style="fill-rule:nonzero;"/></svg>