<?xml version="1.0" encoding="UTF-8" standalone="no"?><!DOCTYPE svg PUBLIC "-//W3C//DTD SVG 1.1//EN" "http://www.w3.org/Graphics/SVG/1.1/DTD/svg11.dtd"><svg width="100%" height="100%" viewBox="0 0 32 32" version="1.1" xmlns="http://www.w3.org/2000/svg" xmlns:xlink="http://www.w3.org/1999/xlink" xml:space="preserve" xmlns:serif="http://www.serif.com/" style="fill-rule:evenodd;clip-rule:evenodd;stroke-linejoin:round;stroke-miterlimit:1.41421;"><rect id="Rectangle-path" x="0" y="0.035" width="32" height="32" style="fill:none;"/><path d="M16,16c4.419,0 8,-3.581 8,-8c0,-4.419 -3.581,-8 -8,-8c-4.419,0 -8,3.581 -8,8c0,4.419 3.581,8 8,8Zm5.6,2l-1.044,0c-1.387,0.637 -2.931,1 -4.556,1c-1.625,0 -3.162,-0.363 -4.556,-1l-1.044,0c-4.637,0 -8.4,3.762 -8.4,8.4l0,2.6c0,1.656 1.344,3 3,3l22,0c1.656,0 3,-1.344 3,-3l0,-2.6c0,-4.637 -3.762,-8.4 -8.4,-8.4Z" style="fill-rule:nonzero;"/></svg>