<?xml version="1.0" encoding="UTF-8" standalone="no"?><!DOCTYPE svg PUBLIC "-//W3C//DTD SVG 1.1//EN" "http://www.w3.org/Graphics/SVG/1.1/DTD/svg11.dtd"><svg width="100%" height="100%" viewBox="0 0 32 32" version="1.1" xmlns="http://www.w3.org/2000/svg" xmlns:xlink="http://www.w3.org/1999/xlink" xml:space="preserve" xmlns:serif="http://www.serif.com/" style="fill-rule:evenodd;clip-rule:evenodd;stroke-linejoin:round;stroke-miterlimit:1.41421;"><rect id="Rectangle-path" x="0" y="0.035" width="32" height="32" style="fill:none;"/><path d="M17.895,31.25l11.639,-11.638c0.271,-0.253 0.425,-0.607 0.425,-0.977c0,-0.732 -0.603,-1.335 -1.335,-1.335c-0.37,0 -0.724,0.154 -0.976,0.425l-10.322,10.304l0,-26.694c0,-0.732 -0.603,-1.335 -1.335,-1.335c-0.732,0 -1.335,0.603 -1.335,1.335l0,26.694l-10.304,-10.268c-0.252,-0.271 -0.606,-0.425 -0.976,-0.425c-0.732,0 -1.335,0.602 -1.335,1.335c0,0.37 0.154,0.724 0.425,0.976l11.71,11.603c1.029,1 2.69,1 3.719,0Z" style="fill-rule:nonzero;"/></svg>