<?xml version="1.0" encoding="UTF-8" standalone="no"?><!DOCTYPE svg PUBLIC "-//W3C//DTD SVG 1.1//EN" "http://www.w3.org/Graphics/SVG/1.1/DTD/svg11.dtd"><svg width="100%" height="100%" viewBox="0 0 32 32" version="1.1" xmlns="http://www.w3.org/2000/svg" xmlns:xlink="http://www.w3.org/1999/xlink" xml:space="preserve" xmlns:serif="http://www.serif.com/" style="fill-rule:evenodd;clip-rule:evenodd;stroke-linejoin:round;stroke-miterlimit:1.41421;"><rect id="Rectangle-path" x="0" y="0.035" width="32" height="32" style="fill:none;"/><path id="Line_Icons" d="M25.6,6.435l-1.6,0l0,-1.6c0,-0.883 -0.715,-1.6 -1.6,-1.6l-19.2,0c-0.885,0 -1.6,0.717 -1.6,1.6l0,12.8c0,3.133 1.298,5.966 3.376,8l-4.976,0l0,3.2l25.6,0l0,-3.2l-4.976,0c1.718,-1.68 2.89,-3.909 3.248,-6.4l1.728,0c3.528,0 6.4,-2.87 6.4,-6.4c0,-3.53 -2.872,-6.4 -6.4,-6.4Zm-4.8,11.2c0,4.411 -3.589,8 -8,8c-4.411,0 -8,-3.589 -8,-8l0,-11.2l16,0l0,11.2Zm4.8,-1.6l-1.6,0l0,-6.4l1.6,0c1.766,0 3.2,1.434 3.2,3.2c0,1.765 -1.434,3.2 -3.2,3.2Z" style="fill-rule:nonzero;"/></svg>