<?xml version="1.0" encoding="UTF-8" standalone="no"?><!DOCTYPE svg PUBLIC "-//W3C//DTD SVG 1.1//EN" "http://www.w3.org/Graphics/SVG/1.1/DTD/svg11.dtd"><svg width="100%" height="100%" viewBox="0 0 32 32" version="1.1" xmlns="http://www.w3.org/2000/svg" xmlns:xlink="http://www.w3.org/1999/xlink" xml:space="preserve" xmlns:serif="http://www.serif.com/" style="fill-rule:evenodd;clip-rule:evenodd;stroke-linejoin:round;stroke-miterlimit:1.41421;"><rect id="Rectangle-path" x="0" y="0.035" width="32" height="32" style="fill:none;"/><path d="M15.561,10.014l-10.242,8.435l0,9.104c0,0.488 0.401,0.889 0.889,0.889l6.225,-0.016c0.486,-0.002 0.884,-0.403 0.884,-0.889l0,-5.317c0,-0.487 0.401,-0.888 0.889,-0.888l3.555,0c0.488,0 0.889,0.401 0.889,0.888l0,5.313c0,0.001 0,0.002 0,0.003c0,0.488 0.401,0.889 0.889,0.889c0,0 0,0 0,0l6.223,0.017c0.487,0 0.888,-0.401 0.888,-0.889l0,-9.11l-10.239,-8.429c-0.247,-0.2 -0.603,-0.2 -0.85,0Zm16.178,5.733l-4.644,-3.828l0,-7.694c0,-0.366 -0.301,-0.667 -0.667,-0.667l-3.111,0c-0.365,0 -0.666,0.301 -0.666,0.667l0,4.033l-4.974,-4.092c-0.98,-0.807 -2.408,-0.807 -3.388,0l-14.062,11.581c-0.153,0.127 -0.242,0.315 -0.242,0.514c0,0.155 0.054,0.305 0.153,0.425l1.417,1.722c0.126,0.154 0.315,0.243 0.514,0.243c0.155,0 0.306,-0.054 0.425,-0.153l13.067,-10.762c0.247,-0.199 0.603,-0.199 0.85,0l13.067,10.762c0.12,0.099 0.27,0.153 0.425,0.153c0.199,0 0.387,-0.088 0.514,-0.241l1.416,-1.723c0.098,-0.119 0.152,-0.268 0.152,-0.423c0,-0.2 -0.09,-0.391 -0.246,-0.517Z" style="fill-rule:nonzero;"/></svg>