<?xml version="1.0" encoding="UTF-8" standalone="no"?><!DOCTYPE svg PUBLIC "-//W3C//DTD SVG 1.1//EN" "http://www.w3.org/Graphics/SVG/1.1/DTD/svg11.dtd"><svg width="100%" height="100%" viewBox="0 0 32 32" version="1.1" xmlns="http://www.w3.org/2000/svg" xmlns:xlink="http://www.w3.org/1999/xlink" xml:space="preserve" xmlns:serif="http://www.serif.com/" style="fill-rule:evenodd;clip-rule:evenodd;stroke-linejoin:round;stroke-miterlimit:1.41421;"><rect id="Rectangle-path" x="0" y="0.035" width="32" height="32" style="fill:none;"/><path d="M27.117,6.024l-5.243,-5.243c-0.563,-0.562 -1.325,-0.881 -2.118,-0.881l-12.754,0c-1.656,0.006 -3,1.35 -3,3.006l0,25.995c0,1.656 1.344,2.999 3,2.999l17.996,0c1.656,0 3,-1.343 3,-2.999l0,-20.753c0,-0.793 -0.319,-1.562 -0.881,-2.124Zm-2.362,1.881l-4.756,0l0,-4.756l4.756,4.756Zm-17.753,20.996l0,-25.995l9.998,0l0,6.498c0,0.831 0.668,1.5 1.5,1.5l6.498,0l0,17.997l-17.996,0Zm15.634,-8.98c-0.762,-0.75 -2.937,-0.544 -4.024,-0.406c-1.075,-0.656 -1.793,-1.562 -2.3,-2.893c0.244,-1.006 0.632,-2.537 0.338,-3.5c-0.263,-1.637 -2.362,-1.474 -2.662,-0.368c-0.275,1.006 -0.025,2.406 0.437,4.193c-0.625,1.493 -1.556,3.499 -2.212,4.649c-1.25,0.643 -2.937,1.637 -3.187,2.887c-0.206,0.987 1.625,3.449 4.756,-1.95c1.399,-0.462 2.924,-1.031 4.274,-1.256c1.181,0.637 2.562,1.062 3.487,1.062c1.593,0 1.749,-1.762 1.093,-2.418Zm-12.379,4.862c0.319,-0.856 1.531,-1.844 1.9,-2.187c-1.187,1.893 -1.9,2.23 -1.9,2.187Zm5.099,-11.911c0.463,0 0.419,2.006 0.113,2.55c-0.275,-0.869 -0.269,-2.55 -0.113,-2.55Zm-1.524,8.536c0.606,-1.056 1.124,-2.312 1.543,-3.418c0.519,0.944 1.181,1.7 1.881,2.219c-1.3,0.268 -2.431,0.818 -3.424,1.199Zm8.223,-0.312c0,0 -0.312,0.375 -2.331,-0.488c2.194,-0.162 2.556,0.338 2.331,0.488Z" style="fill-rule:nonzero;"/></svg>