<?xml version="1.0" encoding="UTF-8" standalone="no"?><!DOCTYPE svg PUBLIC "-//W3C//DTD SVG 1.1//EN" "http://www.w3.org/Graphics/SVG/1.1/DTD/svg11.dtd"><svg width="100%" height="100%" viewBox="0 0 32 32" version="1.1" xmlns="http://www.w3.org/2000/svg" xmlns:xlink="http://www.w3.org/1999/xlink" xml:space="preserve" xmlns:serif="http://www.serif.com/" style="fill-rule:evenodd;clip-rule:evenodd;stroke-linejoin:round;stroke-miterlimit:1.41421;"><rect id="Rectangle-path" x="0" y="0.035" width="32" height="32" style="fill:none;"/><path id="Shape" d="M16,0c-8.839,0 -16,7.161 -16,16c0,8.839 7.161,16 16,16c8.839,0 16,-7.161 16,-16c0,-8.839 -7.161,-16 -16,-16Zm0,28.903c-7.129,0 -12.903,-5.774 -12.903,-12.903c0,-7.129 5.774,-12.903 12.903,-12.903c7.129,0 12.903,5.774 12.903,12.903c0,7.129 -5.774,12.903 -12.903,12.903Zm3.987,-6.735l-5.477,-3.981c-0.2,-0.148 -0.316,-0.381 -0.316,-0.626l0,-10.593c0,-0.426 0.348,-0.774 0.774,-0.774l2.064,0c0.426,0 0.774,0.348 0.774,0.774l0,9.142l4.31,3.135c0.349,0.252 0.419,0.736 0.168,1.084l-1.213,1.671c-0.252,0.342 -0.736,0.419 -1.084,0.168Z" style="fill-rule:nonzero;"/></svg>