<?xml version="1.0" encoding="UTF-8" standalone="no"?><!DOCTYPE svg PUBLIC "-//W3C//DTD SVG 1.1//EN" "http://www.w3.org/Graphics/SVG/1.1/DTD/svg11.dtd"><svg width="100%" height="100%" viewBox="0 0 32 32" version="1.1" xmlns="http://www.w3.org/2000/svg" xmlns:xlink="http://www.w3.org/1999/xlink" xml:space="preserve" xmlns:serif="http://www.serif.com/" style="fill-rule:evenodd;clip-rule:evenodd;stroke-linejoin:round;stroke-miterlimit:1.41421;"><rect id="Rectangle-path" x="0" y="0.035" width="32" height="32" style="fill:none;"/><path d="M29.462,22.643c-1.208,-1.297 -3.467,-3.249 -3.467,-9.643c0,-4.856 -3.405,-8.744 -7.996,-9.697l0,-1.303c0,-1.104 -0.895,-2 -1.999,-2c-1.104,0 -1.999,0.896 -1.999,2l0,1.303c-4.591,0.953 -7.996,4.841 -7.996,9.697c0,6.394 -2.259,8.346 -3.467,9.643c-0.375,0.403 -0.541,0.885 -0.538,1.357c0.007,1.025 0.811,2 2.006,2l23.988,0c1.195,0 2,-0.975 2.006,-2c0.003,-0.472 -0.163,-0.954 -0.538,-1.357Zm-23.241,0.357c1.326,-1.748 2.776,-4.646 2.783,-9.964c0,-0.012 -0.004,-0.023 -0.004,-0.036c0,-3.866 3.134,-7 7,-7c3.866,0 7,3.134 7,7c0,0.012 -0.004,0.024 -0.004,0.036c0.007,5.319 1.457,8.217 2.783,9.964l-19.558,0Zm9.779,9c2.207,0 3.998,-1.791 3.998,-4l-7.996,0c0,2.209 1.79,4 3.998,4Z" style="fill-rule:nonzero;"/></svg>