<?xml version="1.0" encoding="UTF-8" standalone="no"?><!DOCTYPE svg PUBLIC "-//W3C//DTD SVG 1.1//EN" "http://www.w3.org/Graphics/SVG/1.1/DTD/svg11.dtd"><svg width="100%" height="100%" viewBox="0 0 32 32" version="1.1" xmlns="http://www.w3.org/2000/svg" xmlns:xlink="http://www.w3.org/1999/xlink" xml:space="preserve" xmlns:serif="http://www.serif.com/" style="fill-rule:evenodd;clip-rule:evenodd;stroke-linejoin:round;stroke-miterlimit:1.41421;"><rect id="Rectangle-path" x="0" y="0.035" width="32" height="32" style="fill:none;"/><path id="Combined-Shape" d="M15.984,0c8.848,0 16.016,7.168 16.016,16c0,8.832 -7.168,16 -16.016,16c-8.832,0 -15.984,-7.168 -15.984,-16c0,-8.832 7.152,-16 15.984,-16Zm0.016,30c7.735,0 14,-6.265 14,-14c0,-7.735 -6.265,-14 -14,-14c-7.735,0 -14,6.265 -14,14c0,7.735 6.265,14 14,14Zm1.003,-14.401l5.703,5.693l-1.412,1.416l-6.291,-6.28l0,-10.428l2,0l0,9.599Z" style="fill-rule:nonzero;"/></svg>