<?xml version="1.0" encoding="UTF-8" standalone="no"?><!DOCTYPE svg PUBLIC "-//W3C//DTD SVG 1.1//EN" "http://www.w3.org/Graphics/SVG/1.1/DTD/svg11.dtd"><svg width="100%" height="100%" viewBox="0 0 32 32" version="1.1" xmlns="http://www.w3.org/2000/svg" xmlns:xlink="http://www.w3.org/1999/xlink" xml:space="preserve" xmlns:serif="http://www.serif.com/" style="fill-rule:evenodd;clip-rule:evenodd;stroke-linejoin:round;stroke-miterlimit:1.41421;"><rect id="Rectangle-path" x="0" y="0.035" width="32" height="32" style="fill:none;"/><path d="M16.283,0.001c9.715,0.21 18.3,10.136 14.996,19.604c-2.77,7.939 -12.824,12.396 -21.346,9.199c0,0 -2.35,1.729 -4.059,2.403c-1.428,0.564 -2.957,0.856 -4.498,0.867c0,0 -0.382,-0.022 -0.639,-0.164c-1.977,-1.093 1.436,-3.929 2.512,-7.893c-2.914,-3.627 -4.049,-8.733 -2.658,-13.237c1.934,-6.266 8.382,-10.632 15.15,-10.779c0.272,-0.001 0.271,-0.001 0.542,0Zm-0.515,1.887c-8.403,0.182 -16.056,8.498 -13.324,16.791c0.513,1.559 1.346,2.999 2.371,4.275l0.489,0.588c-0.547,2.356 -1.601,4.554 -2.978,6.518c0,0 3.906,-0.674 6.572,-2.917l0.63,-0.545c8.565,3.584 20.467,-1.486 20.632,-11.416c0.12,-7.18 -6.68,-13.349 -14.392,-13.294Z"/></svg>